STARTFONT 2.1
COMMENT
COMMENT Converted from OpenType font "Ubuntu-Regular.ttf" by "otf2bdf 3.0".
COMMENT
FONT -FreeType-Ubuntu-Medium-R-Normal--77-560-100-100-P-410-ISO10646-1
SIZE 56 100 100
FONTBOUNDINGBOX 284 90 -13 -15
STARTPROPERTIES 19
FOUNDRY "FreeType"
FAMILY_NAME "Ubuntu"
WEIGHT_NAME "Medium"
SLANT "R"
SETWIDTH_NAME "Normal"
ADD_STYLE_NAME ""
PIXEL_SIZE 77
POINT_SIZE 560
RESOLUTION_X 100
RESOLUTION_Y 100
SPACING "P"
AVERAGE_WIDTH 410
CHARSET_REGISTRY "ISO10646"
CHARSET_ENCODING "1"
FONT_ASCENT 72
FONT_DESCENT 14
COPYRIGHT "Copyright 2011 Canonical Ltd.  Licensed under the Ubuntu Font Licence 1.0"
_OTF_FONTFILE "Ubuntu-Regular.ttf"
_OTF_PSNAME "Ubuntu-Regular"
ENDPROPERTIES
CHARS 1194
STARTCHAR 0000
ENCODING 0
SWIDTH 0 0
DWIDTH 0 0
BBX 0 0 0 0
BITMAP
ENDCHAR
STARTCHAR 0008
ENCODING 8
SWIDTH 0 0
DWIDTH 0 0
BBX 0 0 0 0
BITMAP
ENDCHAR
STARTCHAR 0009
ENCODING 9
SWIDTH 218 0
DWIDTH 17 0
BBX 0 0 0 0
BITMAP
ENDCHAR
STARTCHAR 000D
ENCODING 13
SWIDTH 218 0
DWIDTH 17 0
BBX 0 0 0 0
BITMAP
ENDCHAR
STARTCHAR 001D
ENCODING 29
SWIDTH 0 0
DWIDTH 0 0
BBX 0 0 0 0
BITMAP
ENDCHAR
STARTCHAR 0020
ENCODING 32
SWIDTH 218 0
DWIDTH 17 0
BBX 0 0 0 0
BITMAP
ENDCHAR
STARTCHAR 0021
ENCODING 33
SWIDTH 270 0
DWIDTH 21 0
BBX 10 55 6 -1
BITMAP
7F80
7F80
7F80
7F80
7F80
7F80
7F80
7F80
7F80
7F80
7F80
7F80
7F80
7F80
7F80
7F80
7F80
7F80
7F80
7F80
7F80
7F00
7F00
7F00
7F00
7F00
7F00
7F00
7F00
3F00
3F00
3F00
3F00
3E00
3E00
3E00
3E00
0000
0000
0000
0000
0000
0000
0000
0000
3F00
7F80
FF80
FFC0
FFC0
FFC0
FFC0
FF80
7F80
3E00
ENDCHAR
STARTCHAR 0022
ENCODING 34
SWIDTH 411 0
DWIDTH 32 0
BBX 21 20 6 39
BITMAP
FE07F8
FE07F8
FE07F8
FE07F8
FE07F8
FE07F8
FE07F8
FE07F8
FE03F8
FE03F8
FE03F8
FE03F0
FE03F0
FC03F0
FC03F0
7C03F0
7C03F0
7C01F0
7C01F0
7C01E0
ENDCHAR
STARTCHAR 0023
ENCODING 35
SWIDTH 655 0
DWIDTH 51 0
BBX 44 54 4 0
BITMAP
0003F8007F00
0003F8007F00
0003F0007F00
0003F0007E00
0007F0007E00
0007F000FE00
0007F000FE00
0007E000FE00
0007E000FC00
000FE000FC00
000FE001FC00
000FE001FC00
000FC001FC00
000FC001F800
FFFFFFFFFFF0
FFFFFFFFFFF0
FFFFFFFFFFF0
FFFFFFFFFFF0
FFFFFFFFFFF0
FFFFFFFFFFF0
003F8007F000
003F8007F000
003F8007F000
003F0007E000
003F0007E000
007F0007E000
007F000FE000
007F000FE000
007E000FC000
007E000FC000
00FE000FC000
00FE001FC000
00FE001FC000
00FC001FC000
FFFFFFFFFFF0
FFFFFFFFFFF0
FFFFFFFFFFF0
FFFFFFFFFFF0
FFFFFFFFFFF0
FFFFFFFFFFF0
03F8003F0000
03F8007F0000
03F8007F0000
03F0007F0000
03F0007E0000
03F0007E0000
07F000FE0000
07F000FE0000
07F000FE0000
07E000FC0000
07E000FC0000
0FE000FC0000
0FE001FC0000
0FE001FC0000
ENDCHAR
STARTCHAR 0024
ENCODING 36
SWIDTH 552 0
DWIDTH 43 0
BBX 34 68 5 -8
BITMAP
0003F00000
0003F00000
0003F00000
0003F00000
0003F00000
0003F00000
0003F00000
0003F00000
0003FC0000
003FFFF000
00FFFFFE00
03FFFFFE00
07FFFFFE00
0FFFFFFE00
1FFF8FFC00
3FF0003C00
3FE0000400
7FC0000000
7F80000000
7F80000000
7F00000000
7F00000000
7F00000000
7F80000000
7F80000000
7FC0000000
3FE0000000
3FF8000000
1FFE000000
1FFFC00000
0FFFF00000
07FFFE0000
01FFFF8000
007FFFE000
001FFFF000
0003FFFC00
0000FFFE00
00001FFE00
000007FF00
000003FF80
000000FF80
0000007F80
0000007FC0
0000003FC0
0000003FC0
0000003FC0
0000003FC0
0000003FC0
0000003FC0
0000007F80
700000FF80
7E0003FF00
7FF87FFF00
FFFFFFFE00
FFFFFFFC00
FFFFFFF800
3FFFFFE000
07FFFF8000
003FF00000
0003F00000
0003F00000
0003F00000
0003F00000
0003F00000
0003F00000
0003F00000
0003F00000
0003F00000
ENDCHAR
STARTCHAR 0025
ENCODING 37
SWIDTH 848 0
DWIDTH 66 0
BBX 59 56 4 -1
BITMAP
00FF000000000000
03FFC000007F0000
07FFF00000FE0000
0FFFF80000FE0000
1FFFFC0001FC0000
3FE3FC0001FC0000
7F80FE0003F80000
7F007E0007F80000
7E007F0007F00000
FE003F000FE00000
FC003F000FE00000
FC003F001FC00000
FC003F801FC00000
FC001F803F800000
FC001F807F800000
FC003F807F000000
FC003F80FE000000
FC003F00FE000000
FC003F01FC000000
7E003F01FC000000
7E007F03F8000000
7F00FE03F8000000
3F81FE07F0000000
3FFFFC0FE0000000
1FFFF80FE0000000
0FFFF01FC0000000
07FFE01FC0000000
01FF803F80000000
000C003F803FE000
0000007F00FFF800
000000FF03FFFE00
000000FE07FFFF00
000001FC07FFFF00
000001FC0FF07F80
000003F80FC03F80
000003F81FC01FC0
000007F01F800FC0
00000FF01F800FC0
00000FE03F800FE0
00001FC03F0007E0
00001FC03F0007E0
00003F803F0007E0
00003F803F0007E0
00007F003F0007E0
00007F003F0007E0
0000FE003F800FE0
0001FE001F800FC0
0001FC001F800FC0
0003F8001FC01FC0
0003F8000FE03F80
0007F0000FF8FF80
0007F00007FFFF00
000FE00003FFFE00
001FE00001FFFC00
001FC00000FFF800
00000000003FE000
ENDCHAR
STARTCHAR 0026
ENCODING 38
SWIDTH 655 0
DWIDTH 51 0
BBX 47 56 4 -1
BITMAP
0001FF000000
000FFFC00000
003FFFF00000
007FFFF80000
00FFFFFC0000
00FFFFFE0000
01FE01FE0000
03FC00FF0000
03F8007F0000
03F8007F0000
03F0003F0000
07F0003F0000
07F0003F0000
07F0003F0000
07F0007F0000
03F8007F0000
03F8007E0000
03F800FE0000
03FC01FC0000
01FE03FC0000
01FE07F80000
00FF1FF00000
007FFFE00000
003FFFC00000
003FFF000000
003FFE000000
007FF8000000
01FFFC000000
03FFFE000600
0FFDFF0007E0
1FF0FF8007E0
1FE07FC007E0
3FC03FE007E0
7F801FF00FE0
7F000FF80FC0
FF0007FC0FC0
FE0003FE1FC0
FE0001FF1F80
FE0000FFBF80
FE00007FFF00
FE00003FFF00
FE00001FFE00
FE00000FFE00
FE000007FC00
FF000003FE00
FF000007FF00
7F80000FFF80
7FC0003FFFC0
3FF000FFFFC0
3FFE1FFF9FE0
1FFFFFFF0FF0
0FFFFFFE07F8
03FFFFF803F8
01FFFFE003FC
007FFF8001FE
0001F0000000
ENDCHAR
STARTCHAR 0027
ENCODING 39
SWIDTH 231 0
DWIDTH 18 0
BBX 7 20 6 39
BITMAP
FE
FE
FE
FE
FE
FE
FE
FE
FE
FE
FE
FE
FE
FC
FC
7C
7C
7C
7C
7C
ENDCHAR
STARTCHAR 0028
ENCODING 40
SWIDTH 321 0
DWIDTH 25 0
BBX 19 75 6 -14
BITMAP
000400
000F00
000F80
001FE0
003FC0
003F80
007F80
00FF00
00FE00
01FE00
01FC00
03FC00
03F800
07F800
07F000
0FF000
0FE000
0FE000
1FC000
1FC000
1FC000
3F8000
3F8000
3F8000
7F8000
7F0000
7F0000
7F0000
7F0000
7F0000
FF0000
FF0000
FF0000
FE0000
FE0000
FE0000
FE0000
FE0000
FE0000
FE0000
FE0000
FE0000
FE0000
FF0000
FF0000
7F0000
7F0000
7F0000
7F0000
7F0000
7F8000
3F8000
3F8000
3F8000
3FC000
1FC000
1FC000
1FE000
0FE000
0FE000
07F000
07F000
07F800
03F800
03FC00
01FC00
01FE00
00FF00
007F00
007F80
003FC0
001FC0
001FC0
000F00
000600
ENDCHAR
STARTCHAR 0029
ENCODING 41
SWIDTH 321 0
DWIDTH 25 0
BBX 18 75 1 -14
BITMAP
080000
1C0000
7E0000
FE0000
FF0000
7F8000
3F8000
3FC000
1FC000
0FE000
0FE000
07F000
07F000
03F800
03F800
01FC00
01FC00
01FE00
00FE00
00FE00
00FF00
007F00
007F00
007F00
007F80
003F80
003F80
003F80
003F80
003FC0
003FC0
001FC0
001FC0
001FC0
001FC0
001FC0
001FC0
001FC0
001FC0
001FC0
001FC0
001FC0
001FC0
001FC0
001FC0
003FC0
003FC0
003F80
003F80
003F80
003F80
007F80
007F00
007F00
007F00
00FE00
00FE00
00FE00
01FC00
01FC00
03FC00
03F800
07F800
07F000
0FF000
0FE000
1FE000
1FC000
3FC000
7F8000
7F0000
FF0000
FE0000
3C0000
180000
ENDCHAR
STARTCHAR 002A
ENCODING 42
SWIDTH 475 0
DWIDTH 37 0
BBX 31 30 3 24
BITMAP
000FE000
000FE000
000FE000
000FE000
000FE000
000FE000
0007E000
0007C000
3807C03C
7E07C0FC
7F87C3FC
7FE3CFFE
FFFBDFFE
FFFFFFFE
7FFFFFFC
07FFFFC0
0007C000
000FF000
001EF800
007EFC00
00FC7E00
01FC7F00
03FC3F80
07F83FC0
07F81FE0
0FF01FE0
07E00FE0
03E00F80
01C00700
00400000
ENDCHAR
STARTCHAR 002B
ENCODING 43
SWIDTH 552 0
DWIDTH 43 0
BBX 36 38 4 4
BITMAP
0001F80000
0001F80000
0001F80000
0001F80000
0001F80000
0001F80000
0001F80000
0001F80000
0001F80000
0001F80000
0001F80000
0001F80000
0001F80000
0001F80000
0001F80000
0001F80000
FFFFFFFFF0
FFFFFFFFF0
FFFFFFFFF0
FFFFFFFFF0
FFFFFFFFF0
FFFFFFFFF0
0001F80000
0001F80000
0001F80000
0001F80000
0001F80000
0001F80000
0001F80000
0001F80000
0001F80000
0001F80000
0001F80000
0001F80000
0001F80000
0001F80000
0001F80000
0001F80000
ENDCHAR
STARTCHAR 002C
ENCODING 44
SWIDTH 244 0
DWIDTH 19 0
BBX 11 21 3 -12
BITMAP
1FE0
1FE0
1FE0
1FE0
1FE0
1FE0
1FE0
1FE0
1FC0
1FC0
1FC0
1FC0
3F80
3F80
3F80
3F00
7F00
7F00
FE00
FE00
1C00
ENDCHAR
STARTCHAR 002D
ENCODING 45
SWIDTH 295 0
DWIDTH 23 0
BBX 19 7 2 20
BITMAP
FFFFE0
FFFFE0
FFFFE0
FFFFE0
FFFFE0
FFFFE0
FFFFE0
ENDCHAR
STARTCHAR 002E
ENCODING 46
SWIDTH 244 0
DWIDTH 19 0
BBX 11 10 4 -1
BITMAP
3F80
7FC0
7FC0
FFE0
FFE0
FFE0
7FE0
7FC0
3F80
1F00
ENDCHAR
STARTCHAR 002F
ENCODING 47
SWIDTH 372 0
DWIDTH 29 0
BBX 34 75 -2 -14
BITMAP
0000003FC0
0000003F80
0000003F80
0000007F80
0000007F00
0000007F00
000000FF00
000000FE00
000000FE00
000001FC00
000001FC00
000003FC00
000003F800
000003F800
000007F800
000007F000
000007F000
00000FF000
00000FE000
00000FE000
00001FE000
00001FC000
00001FC000
00003FC000
00003F8000
00003F8000
00007F8000
00007F0000
00007F0000
0000FF0000
0000FE0000
0001FE0000
0001FC0000
0001FC0000
0003FC0000
0003F80000
0003F80000
0007F80000
0007F00000
0007F00000
000FF00000
000FE00000
000FE00000
001FE00000
001FC00000
001FC00000
003FC00000
003F800000
003F800000
007F800000
007F000000
00FF000000
00FF000000
00FE000000
01FE000000
01FC000000
01FC000000
03FC000000
03F8000000
03F8000000
07F8000000
07F0000000
07F0000000
0FF0000000
0FE0000000
0FE0000000
1FE0000000
1FC0000000
1FC0000000
3FC0000000
3F80000000
7F80000000
7F80000000
7F00000000
FF00000000
ENDCHAR
STARTCHAR 0030
ENCODING 48
SWIDTH 552 0
DWIDTH 43 0
BBX 36 56 4 -1
BITMAP
0007FE0000
001FFF8000
007FFFE000
00FFFFF000
01FFFFF800
03FFFFFC00
07FF0FFE00
0FFC03FE00
0FF001FF00
1FF000FF80
1FE0007F80
3FC0003F80
3FC0003FC0
3F80003FC0
7F80001FC0
7F80001FE0
7F80001FE0
7F00000FE0
7F00000FE0
FF00000FE0
FF00000FF0
FF00000FF0
FF00000FF0
FF00000FF0
FF00000FF0
FF00000FF0
FF00000FF0
FF00000FF0
FF00000FF0
FF00000FF0
FF00000FF0
FF00000FF0
FF00000FF0
FF00000FF0
FF00000FF0
FF00000FF0
FF00000FE0
7F00000FE0
7F00001FE0
7F80001FE0
7F80001FE0
7F80001FC0
3F80003FC0
3FC0003FC0
3FC0003F80
1FE0007F80
1FF000FF80
0FF001FF00
0FFC03FE00
07FF0FFE00
03FFFFFC00
01FFFFF800
00FFFFF000
007FFFE000
001FFF8000
0007FE0000
ENDCHAR
STARTCHAR 0031
ENCODING 49
SWIDTH 552 0
DWIDTH 43 0
BBX 22 54 7 0
BITMAP
0000FC
0001FC
0003FC
0007FC
000FFC
001FFC
007FFC
00FFFC
03FFFC
0FFFFC
3FFFFC
FFFBFC
7FE3FC
7FC3FC
3F03FC
3C03FC
2003FC
0003FC
0003FC
0003FC
0003FC
0003FC
0003FC
0003FC
0003FC
0003FC
0003FC
0003FC
0003FC
0003FC
0003FC
0003FC
0003FC
0003FC
0003FC
0003FC
0003FC
0003FC
0003FC
0003FC
0003FC
0003FC
0003FC
0003FC
0003FC
0003FC
0003FC
0003FC
0003FC
0003FC
0003FC
0003FC
0003FC
0003FC
ENDCHAR
STARTCHAR 0032
ENCODING 50
SWIDTH 552 0
DWIDTH 43 0
BBX 34 55 4 0
BITMAP
003FFC0000
01FFFF8000
07FFFFC000
0FFFFFF000
3FFFFFF800
7FFFFFFC00
FFF83FFC00
7FC007FE00
3F0003FE00
1C0001FF00
180000FF00
000000FF00
000000FF00
0000007F00
0000007F00
0000007F00
0000007F00
000000FF00
000000FF00
000000FE00
000001FE00
000001FE00
000003FC00
000007FC00
00000FF800
00000FF000
00001FE000
00003FE000
00007FC000
0000FF8000
0001FF0000
0003FE0000
0007FC0000
000FF80000
001FF00000
003FE00000
007FC00000
00FF800000
01FF000000
03FE000000
03FC000000
07F8000000
0FF8000000
0FF0000000
1FE0000000
1FE0000000
1FC0000000
3FC0000000
3F80000000
3FFFFFFFC0
3FFFFFFFC0
7FFFFFFFC0
7FFFFFFFC0
7FFFFFFFC0
7FFFFFFFC0
ENDCHAR
STARTCHAR 0033
ENCODING 51
SWIDTH 552 0
DWIDTH 43 0
BBX 34 56 4 -1
BITMAP
003FF80000
03FFFF0000
0FFFFFC000
3FFFFFE000
3FFFFFF000
3FFFFFF800
1FF07FFC00
1F000FFC00
0C0003FE00
000001FE00
000001FE00
000000FE00
000000FF00
000000FF00
000000FF00
000000FF00
000000FE00
000000FE00
000001FE00
000001FC00
000003FC00
00000FF800
00003FF000
003FFFE000
003FFFC000
003FFF0000
003FFF8000
003FFFE000
003FFFF800
0001FFFC00
00000FFE00
000003FF00
000001FF00
000000FF80
0000007F80
0000003F80
0000003FC0
0000003FC0
0000003FC0
0000003FC0
0000003FC0
0000003FC0
0000003FC0
0000003FC0
0000007F80
0000007F80
000000FF80
200001FF00
780007FF00
7FC07FFE00
7FFFFFFC00
7FFFFFF800
FFFFFFF000
7FFFFFC000
1FFFFF0000
01FFF80000
ENDCHAR
STARTCHAR 0034
ENCODING 52
SWIDTH 552 0
DWIDTH 43 0
BBX 38 54 3 0
BITMAP
000000FE00
000001FE00
000003FE00
000007FE00
00000FFE00
00001FFE00
00003FFE00
00003FFE00
00007FFE00
0000FEFE00
0001FEFE00
0001FCFE00
0003F8FE00
0007F0FE00
000FE0FE00
000FE0FE00
001FC0FE00
003F80FE00
003F00FE00
007F00FE00
00FE00FE00
00FC00FE00
01FC00FE00
03F800FE00
03F000FE00
07F000FE00
07E000FE00
0FE000FE00
0FC000FE00
1FC000FE00
3F8000FE00
3F0000FE00
7F0000FE00
7F0000FE00
FFFFFFFFFC
FFFFFFFFFC
FFFFFFFFFC
FFFFFFFFFC
FFFFFFFFFC
FFFFFFFFFC
000000FE00
000000FE00
000000FE00
000000FE00
000000FE00
000000FE00
000000FE00
000000FE00
000000FE00
000000FE00
000000FE00
000000FE00
000000FE00
000000FE00
ENDCHAR
STARTCHAR 0035
ENCODING 53
SWIDTH 552 0
DWIDTH 43 0
BBX 33 55 5 -1
BITMAP
07FFFFFE00
07FFFFFE00
07FFFFFE00
07FFFFFE00
07FFFFFE00
07FFFFFE00
07F0000000
07F0000000
07E0000000
07E0000000
07E0000000
07E0000000
07E0000000
07E0000000
07E0000000
0FE0000000
0FE0000000
0FE0000000
0FE0000000
0FE0000000
0FE0000000
0FFF800000
0FFFF80000
0FFFFF0000
0FFFFFC000
0FFFFFE000
1FFFFFF000
0003FFF800
00003FFC00
00000FFE00
000003FE00
000001FF00
000000FF00
000000FF80
0000007F80
0000007F80
0000007F80
0000007F80
0000003F80
0000003F80
0000003F80
0000007F80
0000007F80
0000007F80
000000FF00
000001FF00
400003FE00
78000FFE00
7FC0FFFC00
7FFFFFF800
FFFFFFF000
FFFFFFE000
FFFFFF8000
1FFFFE0000
01FFF00000
ENDCHAR
STARTCHAR 0036
ENCODING 54
SWIDTH 552 0
DWIDTH 43 0
BBX 35 55 5 -1
BITMAP
000000FE00
00000FFE00
00007FFE00
0001FFFE00
0007FFFE00
000FFFFE00
003FFF8000
007FF80000
00FFE00000
01FF800000
03FF000000
03FC000000
07F8000000
0FF0000000
0FF0000000
1FE0000000
1FE0000000
3FC0000000
3FC0000000
3F80000000
7F80000000
7F87FE0000
7F3FFFC000
7FFFFFF000
FFFFFFF800
FFFFFFFE00
FFFFFFFE00
FFF003FF00
FF8000FF80
FF00007F80
FE00003FC0
FE00003FC0
FE00001FC0
FE00001FE0
FE00001FE0
FF00001FE0
FF00001FE0
FF00001FE0
FF00001FE0
FF00001FE0
7F00001FE0
7F00001FC0
7F80001FC0
3F80003FC0
3FC0003FC0
3FC0007F80
1FE000FF80
1FF001FF00
0FFC07FE00
07FFFFFE00
03FFFFFC00
01FFFFF800
00FFFFE000
003FFFC000
0007FE0000
ENDCHAR
STARTCHAR 0037
ENCODING 55
SWIDTH 552 0
DWIDTH 43 0
BBX 34 54 5 0
BITMAP
FFFFFFFFC0
FFFFFFFFC0
FFFFFFFFC0
FFFFFFFFC0
FFFFFFFFC0
FFFFFFFFC0
0000003FC0
0000007F80
000000FF00
000001FE00
000001FE00
000003FC00
000003F800
000007F800
00000FF000
00000FF000
00001FE000
00001FC000
00003FC000
00003F8000
00007F8000
00007F0000
0000FF0000
0000FE0000
0001FE0000
0001FE0000
0001FC0000
0003FC0000
0003F80000
0007F80000
0007F80000
0007F00000
000FF00000
000FE00000
000FE00000
001FE00000
001FE00000
001FC00000
001FC00000
003FC00000
003F800000
003F800000
007F800000
007F800000
007F000000
007F000000
007F000000
00FF000000
00FF000000
00FF000000
00FF000000
00FE000000
00FE000000
00FE000000
ENDCHAR
STARTCHAR 0038
ENCODING 56
SWIDTH 552 0
DWIDTH 43 0
BBX 36 56 4 -1
BITMAP
0007FE0000
003FFFC000
00FFFFF000
01FFFFF800
03FFFFFC00
07FFFFFE00
0FFC03FF00
1FF000FF80
1FE0007F80
3FC0003FC0
3FC0003FC0
3F80001FC0
3F80001FC0
3F80001FC0
3F80001FC0
3F80001FC0
3F80001FC0
3F80001FC0
3FC0003F80
3FC0003F80
1FE0007F80
1FF000FF00
0FF801FE00
0FFE03FE00
07FF87FC00
03FFFFF800
00FFFFE000
007FFFE000
00FFFFF800
03FFFFFC00
07FC3FFE00
0FF00FFF00
1FE001FF80
1FC000FFC0
3FC0007FC0
3F80003FE0
7F00001FE0
7F00001FE0
7F00000FE0
FF00000FE0
FF00000FF0
FF00000FF0
FF00000FF0
FF00000FE0
7F00000FE0
7F80001FE0
7F80001FE0
3FC0003FC0
3FE000FFC0
1FFC03FF80
1FFFFFFF00
0FFFFFFE00
03FFFFFC00
01FFFFF800
007FFFE000
000FFF0000
ENDCHAR
STARTCHAR 0039
ENCODING 57
SWIDTH 552 0
DWIDTH 43 0
BBX 35 55 4 0
BITMAP
000FFC0000
007FFF8000
00FFFFE000
03FFFFF000
07FFFFF800
0FFFFFFC00
1FF807FE00
1FF003FE00
3FE000FF00
3FC000FF00
7F80007F80
7F80003F80
7F00003FC0
FF00003FC0
FF00001FC0
FF00001FC0
FE00001FE0
FE00001FE0
FE00001FE0
FF00001FE0
FF00001FE0
FF00001FE0
7F00001FE0
7F80001FE0
7F80001FE0
3FC0001FE0
3FE0003FE0
1FFC01FFE0
1FFFFFFFE0
0FFFFFFFE0
07FFFFFFC0
01FFFFFFC0
007FFFBFC0
000FF83FC0
0000003FC0
0000003F80
0000007F80
0000007F80
000000FF00
000000FF00
000001FE00
000001FE00
000003FC00
000007FC00
00000FF800
00003FF000
0000FFE000
0003FFC000
003FFF8000
1FFFFF0000
1FFFFE0000
1FFFF80000
1FFFC00000
1FFF000000
1FF0000000
ENDCHAR
STARTCHAR 003A
ENCODING 58
SWIDTH 244 0
DWIDTH 19 0
BBX 11 41 4 -1
BITMAP
3F80
7FC0
7FC0
FFE0
FFE0
FFE0
7FE0
7FC0
3F80
1F00
0000
0000
0000
0000
0000
0000
0000
0000
0000
0000
0000
0000
0000
0000
0000
0000
0000
0000
0000
0000
0000
3F80
7FC0
7FC0
FFE0
FFE0
FFE0
7FE0
7FC0
3F80
1F00
ENDCHAR
STARTCHAR 003B
ENCODING 59
SWIDTH 244 0
DWIDTH 19 0
BBX 12 52 3 -12
BITMAP
1FC0
3FE0
3FE0
7FF0
7FF0
7FF0
3FF0
3FE0
1FC0
0F80
0000
0000
0000
0000
0000
0000
0000
0000
0000
0000
0000
0000
0000
0000
0000
0000
0000
0000
0000
0000
0000
1FE0
1FE0
1FE0
1FE0
1FE0
1FE0
1FE0
1FE0
1FC0
1FC0
1FC0
1FC0
3F80
3F80
3F80
3F00
7F00
7F00
FE00
FE00
1C00
ENDCHAR
STARTCHAR 003C
ENCODING 60
SWIDTH 552 0
DWIDTH 43 0
BBX 36 35 4 6
BITMAP
0000000040
00000001C0
00000007C0
0000003FE0
000000FFE0
000003FFE0
00001FFFF0
00007FFF80
0001FFFE00
000FFFF000
003FFFC000
01FFFE0000
07FFF80000
1FFFC00000
FFFF000000
FFFC000000
FFE0000000
FF80000000
FFC0000000
FFF0000000
FFFE000000
3FFF800000
0FFFF00000
03FFFC0000
007FFF8000
001FFFE000
0007FFF800
0000FFFF00
00003FFFC0
00000FFFF0
000001FFE0
0000007FE0
0000000FE0
00000003C0
00000000C0
ENDCHAR
STARTCHAR 003D
ENCODING 61
SWIDTH 552 0
DWIDTH 43 0
BBX 36 23 4 12
BITMAP
FFFFFFFFF0
FFFFFFFFF0
FFFFFFFFF0
FFFFFFFFF0
FFFFFFFFF0
FFFFFFFFF0
FFFFFFFFF0
0000000000
0000000000
0000000000
0000000000
0000000000
0000000000
0000000000
0000000000
0000000000
0000000000
FFFFFFFFF0
FFFFFFFFF0
FFFFFFFFF0
FFFFFFFFF0
FFFFFFFFF0
FFFFFFFFF0
ENDCHAR
STARTCHAR 003E
ENCODING 62
SWIDTH 552 0
DWIDTH 43 0
BBX 36 34 4 7
BITMAP
3800000000
7E00000000
7FC0000000
7FF0000000
FFFC000000
FFFF800000
1FFFE00000
07FFF80000
00FFFF0000
003FFFC000
000FFFF000
0001FFFE00
00007FFF80
00000FFFE0
000003FFF0
0000007FF0
0000001FF0
0000003FF0
000001FFF0
000007FFF0
00001FFFC0
0000FFFF00
0003FFFC00
001FFFE000
007FFF8000
03FFFC0000
0FFFF00000
3FFFC00000
FFFE000000
7FF8000000
7FE0000000
7F00000000
3C00000000
3000000000
ENDCHAR
STARTCHAR 003F
ENCODING 63
SWIDTH 398 0
DWIDTH 31 0
BBX 27 56 2 -1
BITMAP
03FFC000
1FFFF800
FFFFFC00
FFFFFF00
FFFFFF80
FFFFFF80
7E01FFC0
70007FC0
40003FE0
00001FE0
00001FE0
00000FE0
00000FE0
00000FE0
00000FE0
00001FE0
00001FE0
00001FC0
00003FC0
00007F80
0000FF00
0001FF00
0001FE00
0003FC00
0007F800
000FF000
001FE000
003FC000
007F8000
007F0000
00FF0000
00FE0000
00FE0000
00FC0000
01FC0000
01FC0000
00FC0000
00FC0000
00000000
00000000
00000000
00000000
00000000
00000000
00000000
00000000
00FC0000
01FE0000
03FF0000
03FF0000
03FF0000
03FF0000
03FF0000
01FF0000
01FE0000
007C0000
ENDCHAR
STARTCHAR 0040
ENCODING 64
SWIDTH 938 0
DWIDTH 73 0
BBX 64 67 5 -12
BITMAP
0000003FFE000000
000003FFFFE00000
00001FFFFFFC0000
00007FFFFFFF0000
0001FFFFFFFFC000
0007FFFFFFFFF000
000FFFC001FFF800
001FFC00001FFC00
003FF0000007FE00
007FC0000001FF00
00FF80000000FF80
01FF000000007FC0
03FE000000003FE0
07FC000000001FE0
07F8000000000FF0
0FF00003FE0007F0
0FE0001FFFF003F8
1FE000FFFFFC03F8
1FC001FFFFFC01FC
3FC003FFFFFC01FC
3F8007FFFFFC01FE
3F800FFF03FC00FE
7F001FF801FC00FE
7F003FE001FC00FE
7F003FC001FC007E
7F007F8001FC007F
7E007F8001FC007F
FE007F0001FC007F
FE00FF0001FC007F
FE00FF0001FC007F
FE00FF0001FC007F
FE00FE0001FC007F
FE00FE0001FC007F
FE00FE0001FC007F
FE00FE0001FC007F
FE00FE0001FC007E
FE00FF0001FC00FE
FE00FF0001FC00FE
FE00FF0001FC00FE
FE007F0001FC00FE
7E007F8001FC01FC
7F007F8001FC01FC
7F003FC001FC03F8
7F003FE001FC07F8
7F001FF803FE0FF0
3F800FFFFFFFFFF0
3F8007FFFFFFFFE0
3FC003FFFFFFFFC0
1FC001FFFFFFFF80
1FE000FFFFBFFF00
0FE0001FFC0FFC00
0FF000000001C000
07F8000000000000
07FC000000000000
03FE000000000000
01FF000000000000
00FF800000000000
007FE00000000000
003FF80000000000
001FFF0000000000
000FFFF000780000
0007FFFFFFFC0000
0001FFFFFFFC0000
00007FFFFFFC0000
00001FFFFFFC0000
000001FFFFF80000
0000000FFF000000
ENDCHAR
STARTCHAR 0041
ENCODING 65
SWIDTH 655 0
DWIDTH 51 0
BBX 50 54 1 0
BITMAP
000007F0000000
000007F8000000
00000FF8000000
00000FFC000000
00001FFC000000
00001FFE000000
00003FFE000000
00003FFF000000
00007FFF000000
00007F7F800000
00007F7F800000
0000FE3F800000
0000FE3FC00000
0001FC1FC00000
0001FC1FE00000
0003FC0FE00000
0003F80FF00000
0003F80FF00000
0007F007F00000
0007F007F80000
000FF003F80000
000FE003FC0000
000FE003FC0000
001FC001FC0000
001FC001FE0000
003FC001FE0000
003F8000FF0000
003F8000FF0000
007F80007F0000
007F00007F8000
00FF00007F8000
00FE00003FC000
00FE00003FC000
01FE00003FC000
01FFFFFFFFE000
03FFFFFFFFE000
03FFFFFFFFE000
03FFFFFFFFF000
07FFFFFFFFF000
07FFFFFFFFF800
07F0000007F800
0FF0000007F800
0FF0000003FC00
1FE0000003FC00
1FE0000003FC00
1FE0000001FE00
3FC0000001FE00
3FC0000001FF00
3F80000000FF00
7F80000000FF00
7F80000000FF80
7F000000007F80
FF000000007F80
FF000000003FC0
ENDCHAR
STARTCHAR 0042
ENCODING 66
SWIDTH 642 0
DWIDTH 50 0
BBX 39 54 7 0
BITMAP
7FFFFF0000
FFFFFFF000
FFFFFFFC00
FFFFFFFE00
FFFFFFFF80
FFFFFFFFC0
FE0007FFC0
FE0000FFE0
FE00003FE0
FE00001FF0
FE00000FF0
FE00000FF0
FE00000FF0
FE000007F0
FE000007F0
FE000007F0
FE00000FF0
FE00000FF0
FE00001FF0
FE00001FE0
FE00003FE0
FE0000FFC0
FE001FFF80
FFFFFFFF00
FFFFFFFC00
FFFFFFFC00
FFFFFFFF00
FFFFFFFFC0
FFFFFFFFE0
FE0001FFF0
FE00001FF8
FE00000FFC
FE000007FC
FE000003FC
FE000001FE
FE000001FE
FE000001FE
FE000001FE
FE000001FE
FE000001FE
FE000001FE
FE000001FE
FE000003FE
FE000003FC
FE000007FC
FE00000FF8
FE00003FF8
FE0003FFF0
FFFFFFFFE0
FFFFFFFFC0
FFFFFFFF80
FFFFFFFE00
FFFFFFF800
7FFFFF8000
ENDCHAR
STARTCHAR 0043
ENCODING 67
SWIDTH 617 0
DWIDTH 48 0
BBX 41 56 5 -1
BITMAP
00001FFF0000
0000FFFFF000
0003FFFFFE00
000FFFFFFF80
003FFFFFFF80
007FFFFFFF00
00FFFFFFFF00
01FFE0007F00
03FF80000E00
07FF00000200
0FFC00000000
0FF800000000
1FF000000000
1FF000000000
3FE000000000
3FC000000000
7FC000000000
7F8000000000
7F8000000000
FF8000000000
FF0000000000
FF0000000000
FF0000000000
FF0000000000
FF0000000000
FF0000000000
FF0000000000
FF0000000000
FF0000000000
FF0000000000
FF0000000000
FF0000000000
FF0000000000
FF0000000000
FF0000000000
FF0000000000
FF8000000000
7F8000000000
7F8000000000
7FC000000000
7FC000000000
3FE000000000
3FE000000000
1FF000000000
1FF800000000
0FFC00000000
07FE00000000
07FF80000700
03FFE0003F00
01FFFF9FFF00
00FFFFFFFF80
007FFFFFFF80
001FFFFFFF80
0007FFFFFF00
0001FFFFF800
00003FFF8000
ENDCHAR
STARTCHAR 0044
ENCODING 68
SWIDTH 707 0
DWIDTH 55 0
BBX 44 54 7 0
BITMAP
7FFFFE000000
FFFFFFE00000
FFFFFFFC0000
FFFFFFFF0000
FFFFFFFF8000
FFFFFFFFE000
FE001FFFF000
FE0000FFF800
FE00003FFC00
FE00000FFE00
FE000007FE00
FE000003FF00
FE000001FF80
FE000000FF80
FE0000007FC0
FE0000007FC0
FE0000003FC0
FE0000003FE0
FE0000001FE0
FE0000001FE0
FE0000001FE0
FE0000001FF0
FE0000000FF0
FE0000000FF0
FE0000000FF0
FE0000000FF0
FE0000000FF0
FE0000000FF0
FE0000000FF0
FE0000000FF0
FE0000000FF0
FE0000000FF0
FE0000001FF0
FE0000001FE0
FE0000001FE0
FE0000001FE0
FE0000003FE0
FE0000003FC0
FE0000007FC0
FE0000007FC0
FE000000FF80
FE000001FF80
FE000003FF00
FE000007FE00
FE00000FFE00
FE00003FFC00
FE0000FFF800
FE000FFFF000
FFFFFFFFE000
FFFFFFFF8000
FFFFFFFF0000
FFFFFFFC0000
FFFFFFE00000
7FFFFF000000
ENDCHAR
STARTCHAR 0045
ENCODING 69
SWIDTH 565 0
DWIDTH 44 0
BBX 35 54 7 0
BITMAP
FFFFFFFF80
FFFFFFFF80
FFFFFFFF80
FFFFFFFF80
FFFFFFFF80
FFFFFFFF80
FFFFFFFF80
FE00000000
FE00000000
FE00000000
FE00000000
FE00000000
FE00000000
FE00000000
FE00000000
FE00000000
FE00000000
FE00000000
FE00000000
FE00000000
FE00000000
FE00000000
FE00000000
FFFFFFFC00
FFFFFFFC00
FFFFFFFC00
FFFFFFFC00
FFFFFFFC00
FFFFFFFC00
FE00000000
FE00000000
FE00000000
FE00000000
FE00000000
FE00000000
FE00000000
FE00000000
FE00000000
FE00000000
FE00000000
FE00000000
FE00000000
FE00000000
FE00000000
FE00000000
FE00000000
FE00000000
FE00000000
FFFFFFFFE0
FFFFFFFFE0
FFFFFFFFE0
FFFFFFFFE0
FFFFFFFFE0
FFFFFFFFE0
ENDCHAR
STARTCHAR 0046
ENCODING 70
SWIDTH 527 0
DWIDTH 41 0
BBX 32 54 7 0
BITMAP
FFFFFFFF
FFFFFFFF
FFFFFFFF
FFFFFFFF
FFFFFFFF
FFFFFFFF
FFFFFFFF
FE000000
FE000000
FE000000
FE000000
FE000000
FE000000
FE000000
FE000000
FE000000
FE000000
FE000000
FE000000
FE000000
FE000000
FE000000
FE000000
FFFFFFF8
FFFFFFF8
FFFFFFF8
FFFFFFF8
FFFFFFF8
FFFFFFF8
FE000000
FE000000
FE000000
FE000000
FE000000
FE000000
FE000000
FE000000
FE000000
FE000000
FE000000
FE000000
FE000000
FE000000
FE000000
FE000000
FE000000
FE000000
FE000000
FE000000
FE000000
FE000000
FE000000
FE000000
FE000000
ENDCHAR
STARTCHAR 0047
ENCODING 71
SWIDTH 668 0
DWIDTH 52 0
BBX 42 56 5 -1
BITMAP
00001FFF8000
0000FFFFF800
0003FFFFFF00
000FFFFFFFC0
003FFFFFFF80
007FFFFFFF80
00FFFFBFFF80
01FFF0003F00
03FF80000700
07FF00000100
0FFC00000000
0FF800000000
1FF000000000
1FF000000000
3FE000000000
3FC000000000
7FC000000000
7F8000000000
7F8000000000
FF8000000000
FF0000000000
FF0000000000
FF0000000000
FF0000000000
FF0000000000
FF0000000000
FF0000000000
FF0000000000
FF0000001FC0
FF0000001FC0
FF0000001FC0
FF0000001FC0
FF0000001FC0
FF0000001FC0
FF0000001FC0
FF0000001FC0
FF8000001FC0
7F8000001FC0
7F8000001FC0
7FC000001FC0
3FC000001FC0
3FE000001FC0
3FE000001FC0
1FF000001FC0
1FF800001FC0
0FFC00001FC0
07FE00001FC0
07FF80001FC0
03FFE0001FC0
01FFFF9FFFC0
00FFFFFFFFC0
003FFFFFFFC0
001FFFFFFFC0
0007FFFFFFC0
0001FFFFFE00
00001FFF8000
ENDCHAR
STARTCHAR 0048
ENCODING 72
SWIDTH 694 0
DWIDTH 54 0
BBX 41 54 7 0
BITMAP
FE0000003F80
FE0000003F80
FE0000003F80
FE0000003F80
FE0000003F80
FE0000003F80
FE0000003F80
FE0000003F80
FE0000003F80
FE0000003F80
FE0000003F80
FE0000003F80
FE0000003F80
FE0000003F80
FE0000003F80
FE0000003F80
FE0000003F80
FE0000003F80
FE0000003F80
FE0000003F80
FE0000003F80
FE0000003F80
FE0000003F80
FFFFFFFFFF80
FFFFFFFFFF80
FFFFFFFFFF80
FFFFFFFFFF80
FFFFFFFFFF80
FFFFFFFFFF80
FE0000003F80
FE0000003F80
FE0000003F80
FE0000003F80
FE0000003F80
FE0000003F80
FE0000003F80
FE0000003F80
FE0000003F80
FE0000003F80
FE0000003F80
FE0000003F80
FE0000003F80
FE0000003F80
FE0000003F80
FE0000003F80
FE0000003F80
FE0000003F80
FE0000003F80
FE0000003F80
FE0000003F80
FE0000003F80
FE0000003F80
FE0000003F80
FE0000003F80
ENDCHAR
STARTCHAR 0049
ENCODING 73
SWIDTH 257 0
DWIDTH 20 0
BBX 7 54 7 0
BITMAP
FE
FE
FE
FE
FE
FE
FE
FE
FE
FE
FE
FE
FE
FE
FE
FE
FE
FE
FE
FE
FE
FE
FE
FE
FE
FE
FE
FE
FE
FE
FE
FE
FE
FE
FE
FE
FE
FE
FE
FE
FE
FE
FE
FE
FE
FE
FE
FE
FE
FE
FE
FE
FE
FE
ENDCHAR
STARTCHAR 004A
ENCODING 74
SWIDTH 488 0
DWIDTH 38 0
BBX 32 55 1 -1
BITMAP
000000FF
000000FF
000000FF
000000FF
000000FF
000000FF
000000FF
000000FF
000000FF
000000FF
000000FF
000000FF
000000FF
000000FF
000000FF
000000FF
000000FF
000000FF
000000FF
000000FF
000000FF
000000FF
000000FF
000000FF
000000FF
000000FF
000000FF
000000FF
000000FF
000000FF
000000FF
000000FF
000000FF
000000FF
000000FF
000000FF
000000FF
000000FF
000000FF
000000FE
000000FE
000001FE
000001FE
000001FE
000003FE
300003FC
380007FC
7E001FF8
7FFBFFF8
FFFFFFF0
FFFFFFE0
FFFFFFC0
3FFFFF80
0FFFFE00
00FFF000
ENDCHAR
STARTCHAR 004B
ENCODING 75
SWIDTH 617 0
DWIDTH 48 0
BBX 41 54 7 0
BITMAP
FE000003FE00
FE000007FC00
FE00000FF800
FE00001FF800
FE00003FF000
FE00003FE000
FE00007FC000
FE0000FF8000
FE0001FF0000
FE0003FE0000
FE0007FC0000
FE000FF80000
FE001FF00000
FE003FE00000
FE007FC00000
FE00FF800000
FE01FF000000
FE03FE000000
FE07FC000000
FE0FF8000000
FE1FF0000000
FE3FE0000000
FE7FC0000000
FEFF80000000
FFFF00000000
FFFE00000000
FFFF80000000
FFFFC0000000
FFFFE0000000
FE7FF0000000
FE3FFC000000
FE0FFE000000
FE07FF000000
FE03FF800000
FE01FFC00000
FE00FFE00000
FE003FF00000
FE001FF80000
FE000FFC0000
FE0007FE0000
FE0003FE0000
FE0001FF0000
FE0000FF8000
FE0000FFC000
FE00007FE000
FE00003FF000
FE00001FF000
FE00000FF800
FE000007FC00
FE000007FE00
FE000003FE00
FE000001FF00
FE000000FF80
FE000000FF80
ENDCHAR
STARTCHAR 004C
ENCODING 76
SWIDTH 514 0
DWIDTH 40 0
BBX 32 54 7 0
BITMAP
FE000000
FE000000
FE000000
FE000000
FE000000
FE000000
FE000000
FE000000
FE000000
FE000000
FE000000
FE000000
FE000000
FE000000
FE000000
FE000000
FE000000
FE000000
FE000000
FE000000
FE000000
FE000000
FE000000
FE000000
FE000000
FE000000
FE000000
FE000000
FE000000
FE000000
FE000000
FE000000
FE000000
FE000000
FE000000
FE000000
FE000000
FE000000
FE000000
FE000000
FE000000
FE000000
FE000000
FE000000
FE000000
FE000000
FE000000
FFFFFFFF
FFFFFFFF
FFFFFFFF
FFFFFFFF
FFFFFFFF
FFFFFFFF
FFFFFFFF
ENDCHAR
STARTCHAR 004D
ENCODING 77
SWIDTH 861 0
DWIDTH 67 0
BBX 58 54 5 0
BITMAP
0FE000000001FC00
0FF000000003FC00
0FF000000003FC00
0FF800000007FC00
0FF80000000FFC00
0FFC0000000FFC00
1FFC0000001FFC00
1FFE0000001FFC00
1FFE0000003FFC00
1FFF0000003FFE00
1FFF0000007FFE00
1FFF8000007FFE00
1FFF800000FFFE00
1FFFC00000FEFE00
1FDFC00001FEFE00
1FCFE00001FCFE00
1FCFE00003FCFE00
3FC7F00003F8FE00
3F87F00007F8FE00
3F83F80007F0FE00
3F83F8000FF07E00
3F81FC000FE07F00
3F81FC000FE07F00
3F81FE001FC07F00
3F80FE001FC07F00
3F80FF003F807F00
3F807F003F807F00
3F807F007F007F00
3F803F807F007F00
3F803F80FF007F00
7F801FC0FE007F00
7F801FC0FE007F00
7F800FE1FC007F00
7F000FE1FC007F00
7F0007F3F8007F00
7F0007F3F8007F80
7F0007F7F0007F80
7F0003FFF0003F80
7F0003FFE0003F80
7F0001FFE0003F80
7F0001FFE0003F80
7F0000FFC0003F80
7F0000FFC0003F80
7F00007F80003F80
7F00007F80003F80
7F00007F00003F80
7F00003F00003F80
FF00000000003F80
FF00000000003F80
FF00000000003F80
FF00000000003F80
FF00000000003F80
FF00000000003FC0
FF00000000003FC0
ENDCHAR
STARTCHAR 004E
ENCODING 78
SWIDTH 720 0
DWIDTH 56 0
BBX 43 54 7 0
BITMAP
FC0000000FE0
FE0000000FE0
FF0000000FE0
FF8000000FE0
FFC000000FE0
FFC000000FE0
FFE000000FE0
FFF000000FE0
FFF800000FE0
FFFC00000FE0
FFFE00000FE0
FFFE00000FE0
FEFF00000FE0
FEFF80000FE0
FE7FC0000FE0
FE3FC0000FE0
FE1FE0000FE0
FE0FF0000FE0
FE0FF8000FE0
FE07F8000FE0
FE03FC000FE0
FE01FE000FE0
FE01FF000FE0
FE00FF000FE0
FE007F800FE0
FE003FC00FE0
FE003FE00FE0
FE001FE00FE0
FE000FF00FE0
FE0007F80FE0
FE0007F80FE0
FE0003FC0FE0
FE0001FE0FE0
FE0001FE0FE0
FE0000FF0FE0
FE00007F8FE0
FE00007F8FE0
FE00003FCFE0
FE00001FEFE0
FE00001FEFE0
FE00000FFFE0
FE000007FFE0
FE000007FFE0
FE000003FFE0
FE000001FFE0
FE000001FFE0
FE000000FFE0
FE0000007FE0
FE0000007FE0
FE0000003FE0
FE0000003FE0
FE0000001FE0
FE0000000FE0
FE0000000FE0
ENDCHAR
STARTCHAR 004F
ENCODING 79
SWIDTH 771 0
DWIDTH 60 0
BBX 51 56 5 -1
BITMAP
00001FFE000000
0000FFFFE00000
0007FFFFF80000
000FFFFFFE0000
003FFFFFFF0000
007FFFFFFFC000
00FFFFBFFFE000
01FFE001FFF000
03FF80003FF800
07FE00001FFC00
0FFC00000FFC00
0FF8000007FE00
1FF0000003FE00
1FE0000001FF00
3FE0000000FF00
3FC0000000FF80
7FC00000007F80
7F800000007FC0
7F800000003FC0
FF800000003FC0
FF000000003FC0
FF000000003FC0
FF000000001FE0
FF000000001FE0
FF000000001FE0
FF000000001FE0
FE000000001FE0
FE000000001FE0
FE000000001FE0
FE000000001FE0
FF000000001FE0
FF000000001FE0
FF000000001FE0
FF000000001FE0
FF000000003FE0
FF000000003FC0
FF800000003FC0
7F800000003FC0
7F800000007FC0
7FC00000007F80
3FC0000000FF80
3FE0000000FF00
1FE0000001FF00
1FF0000003FE00
0FF8000003FE00
0FFC00000FFC00
07FE00001FFC00
03FF80003FF800
01FFE000FFF000
00FFFFBFFFE000
007FFFFFFFC000
003FFFFFFF8000
001FFFFFFE0000
0007FFFFF80000
0000FFFFE00000
00001FFF000000
ENDCHAR
STARTCHAR 0050
ENCODING 80
SWIDTH 604 0
DWIDTH 47 0
BBX 38 54 7 0
BITMAP
7FFFFE0000
FFFFFFE000
FFFFFFF800
FFFFFFFE00
FFFFFFFF00
FFFFFFFF80
FE001FFFC0
FE0001FFE0
FE00007FF0
FE00001FF0
FE00000FF8
FE00000FF8
FE000007F8
FE000007F8
FE000007F8
FE000003FC
FE000003FC
FE000003FC
FE000003F8
FE000007F8
FE000007F8
FE000007F8
FE00000FF8
FE00001FF0
FE00003FF0
FE00007FE0
FE0003FFE0
FE03FFFFC0
FFFFFFFF80
FFFFFFFF00
FFFFFFFC00
FFFFFFF000
FFFFFFC000
FFFFF80000
FE00000000
FE00000000
FE00000000
FE00000000
FE00000000
FE00000000
FE00000000
FE00000000
FE00000000
FE00000000
FE00000000
FE00000000
FE00000000
FE00000000
FE00000000
FE00000000
FE00000000
FE00000000
FE00000000
FE00000000
ENDCHAR
STARTCHAR 0051
ENCODING 81
SWIDTH 771 0
DWIDTH 60 0
BBX 51 69 5 -14
BITMAP
00001FFE000000
0000FFFFE00000
0007FFFFF80000
000FFFFFFE0000
003FFFFFFF0000
007FFFFFFFC000
00FFFFBFFFE000
01FFE001FFF000
03FF80003FF800
07FE00001FFC00
0FFC00000FFC00
0FF8000007FE00
1FF0000003FE00
1FE0000001FF00
3FE0000000FF00
3FC0000000FF80
7FC00000007F80
7F800000007FC0
7F800000003FC0
FF800000003FC0
FF000000003FC0
FF000000003FC0
FF000000001FE0
FF000000001FE0
FF000000001FE0
FF000000001FE0
FE000000001FE0
FE000000001FE0
FE000000001FE0
FE000000001FE0
FF000000001FE0
FF000000001FE0
FF000000001FE0
FF000000001FE0
FF000000003FC0
FF000000003FC0
FF800000003FC0
7F800000003FC0
7F800000007FC0
7FC00000007F80
3FC0000000FF80
3FE0000000FF00
1FE0000001FF00
1FF0000003FE00
0FF8000003FE00
0FFC00000FFC00
07FE00001FFC00
03FF80003FF800
01FFE000FFF000
00FFFFBFFFE000
007FFFFFFFC000
003FFFFFFF0000
001FFFFFFE0000
0007FFFFF80000
0000FFFFE00000
00001FFE000000
000001FE000000
000000FE000000
000000FF000000
000000FF800000
0000007FE00000
0000003FFC0000
0000001FFF8000
0000000FFFFE00
00000007FFFE00
00000001FFFE00
000000007FFC00
000000000FFC00
0000000000FC00
ENDCHAR
STARTCHAR 0052
ENCODING 82
SWIDTH 617 0
DWIDTH 48 0
BBX 40 54 7 0
BITMAP
7FFFFE0000
FFFFFFE000
FFFFFFF800
FFFFFFFE00
FFFFFFFF00
FFFFFFFF80
FE001FFFC0
FE0001FFE0
FE00007FE0
FE00001FF0
FE00000FF0
FE00000FF8
FE000007F8
FE000007F8
FE000007F8
FE000007F8
FE000007F8
FE000007F8
FE000007F8
FE000007F8
FE000007F8
FE00000FF8
FE00000FF0
FE00001FF0
FE00007FE0
FE0001FFE0
FE00FFFFC0
FFFFFFFF80
FFFFFFFF00
FFFFFFFC00
FFFFFFF000
FFFFFFC000
FFFFFFE000
FE001FF000
FE000FF000
FE000FF800
FE0007FC00
FE0003FE00
FE0001FE00
FE0001FF00
FE0000FF80
FE00007F80
FE00007FC0
FE00003FE0
FE00001FE0
FE00001FF0
FE00000FF8
FE000007F8
FE000007FC
FE000003FC
FE000003FE
FE000001FE
FE000001FF
FE000000FF
ENDCHAR
STARTCHAR 0053
ENCODING 83
SWIDTH 527 0
DWIDTH 41 0
BBX 36 56 3 -1
BITMAP
0007FFC000
003FFFFC00
00FFFFFF00
03FFFFFFC0
07FFFFFF80
0FFFFFFF80
1FFFC7FF00
1FF8001F00
3FE0000300
3FC0000000
7F80000000
7F80000000
7F80000000
7F80000000
7F80000000
7F80000000
7F80000000
7F80000000
7FC0000000
7FE0000000
3FF0000000
3FFC000000
1FFF000000
0FFFC00000
07FFF80000
03FFFE0000
01FFFF8000
007FFFE000
001FFFF800
0007FFFC00
0000FFFF00
00001FFF80
000007FF80
000001FFC0
000000FFE0
0000003FE0
0000003FE0
0000001FF0
0000000FF0
0000000FF0
0000000FF0
0000000FF0
0000000FF0
0000000FF0
0000000FF0
0000001FE0
2000003FE0
7800007FE0
7F0001FFC0
7FFC1FFFC0
FFFFFFFF80
FFFFFFFF00
FFFFFFFE00
3FFFFFF800
07FFFFE000
007FFE0000
ENDCHAR
STARTCHAR 0054
ENCODING 84
SWIDTH 552 0
DWIDTH 43 0
BBX 42 54 1 0
BITMAP
FFFFFFFFFFC0
FFFFFFFFFFC0
FFFFFFFFFFC0
FFFFFFFFFFC0
FFFFFFFFFFC0
FFFFFFFFFFC0
FFFFFFFFFFC0
00007F800000
00007F800000
00007F800000
00007F800000
00007F800000
00007F800000
00007F800000
00007F800000
00007F800000
00007F800000
00007F800000
00007F800000
00007F800000
00007F800000
00007F800000
00007F800000
00007F800000
00007F800000
00007F800000
00007F800000
00007F800000
00007F800000
00007F800000
00007F800000
00007F800000
00007F800000
00007F800000
00007F800000
00007F800000
00007F800000
00007F800000
00007F800000
00007F800000
00007F800000
00007F800000
00007F800000
00007F800000
00007F800000
00007F800000
00007F800000
00007F800000
00007F800000
00007F800000
00007F800000
00007F800000
00007F800000
00007F800000
ENDCHAR
STARTCHAR 0055
ENCODING 85
SWIDTH 681 0
DWIDTH 53 0
BBX 41 55 6 -1
BITMAP
FF0000003F80
FF0000003F80
FF0000003F80
FF0000003F80
FF0000003F80
FF0000003F80
FF0000003F80
FF0000003F80
FF0000003F80
FF0000003F80
FF0000003F80
FF0000003F80
FF0000003F80
FF0000003F80
FF0000003F80
FF0000003F80
FF0000003F80
FF0000003F80
FF0000003F80
FF0000003F80
FF0000003F80
FF0000003F80
FF0000003F80
FF0000003F80
FF0000003F80
FF0000003F80
FF0000003F80
FF0000003F80
FF0000003F80
FF0000003F80
FF0000003F80
FF0000003F80
FF0000003F80
FF0000003F80
FF0000003F80
FF0000003F80
FF0000007F80
FF0000007F80
7F0000007F80
7F8000007F80
7F8000007F80
7F800000FF00
3FC00000FF00
3FC00001FF00
3FE00003FE00
1FF00007FE00
1FF8000FFC00
0FFE003FF800
07FFFFFFF800
03FFFFFFF000
01FFFFFFE000
00FFFFFFC000
007FFFFF0000
001FFFFC0000
0003FFE00000
ENDCHAR
STARTCHAR 0056
ENCODING 86
SWIDTH 655 0
DWIDTH 51 0
BBX 49 54 1 0
BITMAP
FF000000007F80
FF800000007F80
7F80000000FF00
7F80000000FF00
7FC0000000FF00
3FC0000001FE00
3FC0000001FE00
3FE0000001FE00
1FE0000003FC00
1FE0000003FC00
1FF0000003FC00
0FF0000007F800
0FF0000007F800
0FF8000007F800
07F800000FF000
07F800000FF000
03FC00000FE000
03FC00001FE000
03FC00001FE000
01FE00003FC000
01FE00003FC000
01FF00003FC000
00FF00007F8000
00FF00007F8000
007F80007F0000
007F8000FF0000
007F8000FF0000
003FC000FE0000
003FC001FE0000
001FC001FC0000
001FE001FC0000
001FE003FC0000
000FF003F80000
000FF007F80000
0007F007F00000
0007F807F00000
0007F80FF00000
0003FC0FE00000
0003FC1FE00000
0001FC1FC00000
0001FE1FC00000
0000FE3FC00000
0000FF3F800000
0000FF7F800000
00007F7F000000
00007FFF000000
00003FFE000000
00003FFE000000
00001FFE000000
00001FFC000000
00001FFC000000
00000FF8000000
00000FF8000000
000007F0000000
ENDCHAR
STARTCHAR 0057
ENCODING 87
SWIDTH 925 0
DWIDTH 72 0
BBX 68 54 2 0
BITMAP
FF0000000000000FF0
FF0000000000000FF0
7F8000000000000FF0
7F8000000000000FE0
7F8000000000000FE0
7F8000000000001FE0
7F800001FC00001FE0
7F800001FC00001FE0
3FC00003FC00001FC0
3FC00003FC00001FC0
3FC00003FE00003FC0
3FC00007FE00003FC0
3FC00007FE00003FC0
1FE00007FF00003FC0
1FE00007FF00003F80
1FE0000FFF00007F80
1FE0000FFF80007F80
1FE0000FFF80007F80
0FF0001FFF80007F00
0FF0001FDFC0007F00
0FF0001F9FC000FF00
0FF0003F9FC000FF00
07F0003F8FE000FF00
07F8003F0FE000FE00
07F8007F0FE000FE00
07F8007F07F001FE00
07F800FE07F001FE00
03FC00FE07F001FC00
03FC00FE03F801FC00
03FC01FC03F801FC00
03FC01FC03FC03FC00
01FC01F801FC03F800
01FE03F801FC03F800
01FE03F800FE03F800
01FE03F000FE07F800
00FE07F000FE07F000
00FF07F0007F07F000
00FF0FE0007F07F000
007F0FE0007F0FF000
007F0FE0003F8FE000
007F9FC0003F8FE000
007F9FC0003FCFE000
003F9F80001FDFE000
003FFF80001FDFC000
003FFF80000FFFC000
001FFF00000FFFC000
001FFF00000FFF8000
001FFE000007FF8000
001FFE000007FF8000
000FFE000003FF0000
000FFC000003FF0000
000FFC000003FF0000
0007F8000001FE0000
0007F8000001FE0000
ENDCHAR
STARTCHAR 0058
ENCODING 88
SWIDTH 630 0
DWIDTH 49 0
BBX 45 54 2 0
BITMAP
7F8000001FF0
7FC000001FE0
3FE000003FE0
1FE000007FC0
1FF000007F80
0FF80000FF80
07F80001FF00
03FC0001FE00
03FE0003FE00
01FE0007FC00
00FF0007F800
00FF800FF800
007F800FF000
003FC01FE000
003FE03FE000
001FE03FC000
000FF07F8000
000FF8FF8000
0007F8FF0000
0003FDFE0000
0003FFFE0000
0001FFFC0000
0000FFF80000
0000FFF00000
00007FF00000
00003FF00000
00007FF00000
0000FFF80000
0000FFFC0000
0001FFFC0000
0003FFFE0000
0003FDFF0000
0007FCFF0000
000FF8FF8000
000FF07FC000
001FE03FC000
003FE03FE000
003FC01FF000
007F800FF000
00FF800FF800
00FF0007FC00
01FE0003FC00
03FE0003FE00
03FC0001FF00
07FC0000FF00
07F80000FF80
0FF000007F80
1FF000007FC0
1FE000003FE0
3FE000001FE0
3FC000001FF0
7F8000000FF0
7F8000000FF8
FF00000007F8
ENDCHAR
STARTCHAR 0059
ENCODING 89
SWIDTH 591 0
DWIDTH 46 0
BBX 45 54 1 0
BITMAP
FF8000000FF8
FF8000000FF0
7F8000001FF0
7FC000001FE0
3FC000003FE0
3FE000003FC0
1FE000007F80
0FF000007F80
0FF00000FF00
07F80000FF00
07FC0001FE00
03FC0001FE00
03FE0003FC00
01FE0003FC00
00FF0007F800
00FF0007F000
007F800FF000
007F801FE000
003FC01FE000
003FE03FC000
001FE03F8000
000FF07F8000
000FF0FF0000
0007F8FF0000
0003FDFE0000
0003FDFC0000
0001FFFC0000
0001FFF80000
0000FFF00000
00007FF00000
00007FE00000
00003FE00000
00001FC00000
00001FC00000
00001FC00000
00001FC00000
00001FC00000
00001FC00000
00001FC00000
00001FC00000
00001FC00000
00001FC00000
00001FC00000
00001FC00000
00001FC00000
00001FC00000
00001FC00000
00001FC00000
00001FC00000
00001FC00000
00001FC00000
00001FC00000
00001FC00000
00001FC00000
ENDCHAR
STARTCHAR 005A
ENCODING 90
SWIDTH 565 0
DWIDTH 44 0
BBX 39 54 3 0
BITMAP
7FFFFFFFFC
7FFFFFFFFC
7FFFFFFFFC
7FFFFFFFFC
7FFFFFFFFC
7FFFFFFFFC
7FFFFFFFFC
0000000FF8
0000001FF0
0000003FE0
0000007FC0
0000007F80
000000FF00
000001FF00
000003FE00
000007FC00
000007F800
00000FF800
00001FF000
00003FE000
00003FC000
00007FC000
0000FF8000
0000FF0000
0001FE0000
0003FE0000
0007FC0000
0007F80000
000FF00000
001FF00000
001FE00000
003FC00000
007FC00000
007F800000
00FF000000
01FF000000
01FE000000
03FC000000
03FC000000
07F8000000
0FF0000000
0FF0000000
1FE0000000
1FE0000000
3FC0000000
7FC0000000
7F80000000
FF00000000
FFFFFFFFFE
FFFFFFFFFE
FFFFFFFFFE
FFFFFFFFFE
FFFFFFFFFE
FFFFFFFFFE
ENDCHAR
STARTCHAR 005B
ENCODING 91
SWIDTH 321 0
DWIDTH 25 0
BBX 18 75 7 -14
BITMAP
FFFFC0
FFFFC0
FFFFC0
FFFFC0
FFFFC0
FFFFC0
FE0000
FE0000
FE0000
FE0000
FE0000
FE0000
FE0000
FE0000
FE0000
FE0000
FE0000
FE0000
FE0000
FE0000
FE0000
FE0000
FE0000
FE0000
FE0000
FE0000
FE0000
FE0000
FE0000
FE0000
FE0000
FE0000
FE0000
FE0000
FE0000
FE0000
FE0000
FE0000
FE0000
FE0000
FE0000
FE0000
FE0000
FE0000
FE0000
FE0000
FE0000
FE0000
FE0000
FE0000
FE0000
FE0000
FE0000
FE0000
FE0000
FE0000
FE0000
FE0000
FE0000
FE0000
FE0000
FE0000
FE0000
FE0000
FE0000
FE0000
FE0000
FE0000
FE0000
FE0000
FFFFC0
FFFFC0
FFFFC0
FFFFC0
FFFFC0
ENDCHAR
STARTCHAR 005C
ENCODING 92
SWIDTH 372 0
DWIDTH 29 0
BBX 33 75 -2 -14
BITMAP
FF00000000
7F00000000
7F00000000
7F80000000
3F80000000
3F80000000
3FC0000000
1FC0000000
1FC0000000
1FE0000000
0FE0000000
0FE0000000
0FF0000000
07F0000000
07F0000000
07F8000000
03F8000000
03F8000000
01FC000000
01FC000000
01FE000000
00FE000000
00FE000000
00FF000000
007F000000
007F000000
007F800000
003F800000
003F800000
003FC00000
001FC00000
001FC00000
001FE00000
000FE00000
000FE00000
000FF00000
0007F00000
0007F00000
0007F80000
0003F80000
0003FC0000
0001FC0000
0001FC0000
0001FE0000
0000FE0000
0000FE0000
0000FF0000
00007F0000
00007F0000
00007F8000
00003F8000
00003F8000
00003FC000
00001FC000
00001FC000
00001FE000
00000FE000
00000FE000
00000FF000
000007F000
000007F800
000003F800
000003F800
000003FC00
000001FC00
000001FC00
000001FE00
000000FE00
000000FE00
000000FF00
0000007F00
0000007F00
0000007F80
0000003F80
0000003F80
ENDCHAR
STARTCHAR 005D
ENCODING 93
SWIDTH 321 0
DWIDTH 25 0
BBX 17 75 1 -14
BITMAP
FFFF80
FFFF80
FFFF80
FFFF80
FFFF80
FFFF80
003F80
003F80
003F80
003F80
003F80
003F80
003F80
003F80
003F80
003F80
003F80
003F80
003F80
003F80
003F80
003F80
003F80
003F80
003F80
003F80
003F80
003F80
003F80
003F80
003F80
003F80
003F80
003F80
003F80
003F80
003F80
003F80
003F80
003F80
003F80
003F80
003F80
003F80
003F80
003F80
003F80
003F80
003F80
003F80
003F80
003F80
003F80
003F80
003F80
003F80
003F80
003F80
003F80
003F80
003F80
003F80
003F80
003F80
003F80
003F80
003F80
003F80
003F80
003F80
FFFF80
FFFF80
FFFF80
FFFF80
FFFF80
ENDCHAR
STARTCHAR 005E
ENCODING 94
SWIDTH 552 0
DWIDTH 43 0
BBX 36 29 4 24
BITMAP
0001F80000
0003FC0000
0007FE0000
0007FE0000
000FFF0000
000FFF0000
001FFF8000
001FFF8000
003FBFC000
007F9FE000
007F0FE000
00FF0FF000
00FE07F000
01FE07F800
01FC03F800
03F803FC00
07F801FC00
07F000FE00
0FF000FF00
0FE0007F00
1FE0007F80
1FC0003F80
3F80003FC0
7F80001FC0
7F00000FE0
FF00000FF0
FE000007F0
7E000007C0
1C00000300
ENDCHAR
STARTCHAR 005F
ENCODING 95
SWIDTH 488 0
DWIDTH 38 0
BBX 39 6 0 -14
BITMAP
FFFFFFFFFE
FFFFFFFFFE
FFFFFFFFFE
FFFFFFFFFE
FFFFFFFFFE
FFFFFFFFFE
ENDCHAR
STARTCHAR 0060
ENCODING 96
SWIDTH 372 0
DWIDTH 29 0
BBX 14 15 5 45
BITMAP
0800
1C00
7E00
FF00
FF00
7F80
3FC0
1FE0
0FF0
07F8
03F8
01FC
00F8
0070
0020
ENDCHAR
STARTCHAR 0061
ENCODING 97
SWIDTH 514 0
DWIDTH 40 0
BBX 32 42 3 -1
BITMAP
01FFFE00
07FFFF80
07FFFFE0
07FFFFF0
07FFFFF8
07FFFFFC
07000FFC
000003FE
000001FE
000001FE
000000FE
000000FF
000000FF
0000007F
0000007F
0000007F
0000E07F
007FFFFF
01FFFFFF
07FFFFFF
0FFFFFFF
1FFFFFFF
3FFC03FF
3FE0007F
7FC0007F
7F80007F
7F00007F
FF00007F
FF00007F
FF00007F
FF00007F
7F00007F
7F00007F
7F80007F
7FE0007F
3FFC01FF
3FFFFFFF
1FFFFFFF
0FFFFFFF
03FFFFFF
00FFFFFE
001FFE00
ENDCHAR
STARTCHAR 0062
ENCODING 98
SWIDTH 578 0
DWIDTH 45 0
BBX 36 61 6 -1
BITMAP
3E00000000
FE00000000
FE00000000
FE00000000
FE00000000
FE00000000
FE00000000
FE00000000
FE00000000
FE00000000
FE00000000
FE00000000
FE00000000
FE00000000
FE00000000
FE00000000
FE00000000
FE00000000
FE00000000
FE0FFF0000
FE7FFFC000
FFFFFFF000
FFFFFFF800
FFFFFFFC00
FFFFFFFE00
FFF80FFF00
FFC001FF80
FF0000FF80
FE00007FC0
FE00003FC0
FE00003FC0
FE00001FE0
FE00001FE0
FE00000FE0
FE00000FE0
FE00000FF0
FE00000FF0
FE00000FF0
FE00000FF0
FE00000FF0
FE00000FF0
FE00000FF0
FE00000FF0
FE00000FF0
FE00000FE0
FE00000FE0
FE00001FE0
FE00001FE0
FE00003FC0
FE00003FC0
FE00007FC0
FE0000FF80
FE0001FF00
FE0007FF00
FFFCFFFE00
FFFFFFFC00
FFFFFFF800
FFFFFFF000
FFFFFFC000
1FFFFF0000
00FFF00000
ENDCHAR
STARTCHAR 0063
ENCODING 99
SWIDTH 462 0
DWIDTH 36 0
BBX 31 42 4 -1
BITMAP
0007FFE0
001FFFFC
007FFFFC
01FFFFF8
03FFFFF8
07FFFFF8
0FFF0078
0FF80000
1FF00000
1FE00000
3FC00000
3FC00000
7F800000
7F800000
7F000000
FF000000
FF000000
FF000000
FF000000
FF000000
FF000000
FF000000
FF000000
FF000000
FF000000
FF000000
FF000000
7F000000
7F800000
7F800000
3FC00000
3FE00000
3FF00000
1FF80000
0FFE000C
07FFF3FC
07FFFFFC
03FFFFFC
00FFFFFC
007FFFFE
001FFFF8
0001FF80
ENDCHAR
STARTCHAR 0064
ENCODING 100
SWIDTH 578 0
DWIDTH 45 0
BBX 36 61 4 -1
BITMAP
00000001F0
0000000FF0
0000000FF0
0000000FF0
0000000FF0
0000000FF0
0000000FF0
0000000FF0
0000000FF0
0000000FF0
0000000FF0
0000000FF0
0000000FF0
0000000FF0
0000000FF0
0000000FF0
0000000FF0
0000000FF0
0000000FF0
000FFF0FF0
003FFFEFF0
00FFFFFFF0
01FFFFFFF0
03FFFFFFF0
07FFFFFFF0
0FFE01FFF0
1FF8003FF0
1FF0001FF0
3FE0000FF0
3FC0000FF0
7F80000FF0
7F80000FF0
7F80000FF0
7F00000FF0
FF00000FF0
FF00000FF0
FF00000FF0
FF00000FF0
FF00000FF0
FF00000FF0
FF00000FF0
FF00000FF0
FF00000FF0
FF00000FF0
FF00000FF0
7F00000FF0
7F80000FF0
7F80000FF0
7F80000FF0
3FC0000FF0
3FE0000FF0
1FF0000FF0
1FF8000FF0
0FFE000FF0
07FFF7FFF0
03FFFFFFF0
01FFFFFFF0
00FFFFFFF0
003FFFFFF0
000FFFFF80
0001FFF000
ENDCHAR
STARTCHAR 0065
ENCODING 101
SWIDTH 552 0
DWIDTH 43 0
BBX 35 42 4 -1
BITMAP
0007FF8000
003FFFE000
00FFFFF800
01FFFFFC00
03FFFFFE00
07FFFFFF00
0FFC03FF00
0FF800FF80
1FE0007F80
3FC0003FC0
3FC0003FC0
7F80001FC0
7F80001FE0
7F00001FE0
7F00000FE0
FF00000FE0
FF00000FE0
FFFFFFFFE0
FFFFFFFFE0
FFFFFFFFE0
FFFFFFFFE0
FFFFFFFFE0
FFFFFFFFE0
FF00000000
FF00000000
FF00000000
FF00000000
7F00000000
7F80000000
7F80000000
3FC0000000
3FC0000000
3FE0000000
1FF8000000
0FFE000700
0FFFF1FF00
07FFFFFF00
03FFFFFF00
00FFFFFF00
007FFFFF00
000FFFFC00
0001FFC000
ENDCHAR
STARTCHAR 0066
ENCODING 102
SWIDTH 385 0
DWIDTH 30 0
BBX 25 60 6 0
BITMAP
003FFE00
01FFFF80
03FFFF00
0FFFFF00
1FFFFF00
1FFFFF00
3FF00700
3FE00000
7FC00000
7F800000
7F000000
7F000000
FF000000
FF000000
FF000000
FE000000
FE000000
FE000000
FE000000
FE000000
FFFFFE00
FFFFFE00
FFFFFE00
FFFFFE00
FFFFFE00
FFFFFE00
FE000000
FE000000
FE000000
FE000000
FE000000
FE000000
FE000000
FE000000
FE000000
FE000000
FE000000
FE000000
FE000000
FE000000
FE000000
FE000000
FE000000
FE000000
FE000000
FE000000
FE000000
FE000000
FE000000
FE000000
FE000000
FE000000
FE000000
FE000000
FE000000
FE000000
FE000000
FE000000
FE000000
FE000000
ENDCHAR
STARTCHAR 0067
ENCODING 103
SWIDTH 565 0
DWIDTH 44 0
BBX 35 56 4 -15
BITMAP
0007FFF800
001FFFFFC0
007FFFFFE0
01FFFFFFE0
03FFFFFFE0
07FFFFFFE0
0FFF007FE0
1FFC001FE0
1FF0001FE0
3FE0001FE0
3FC0001FE0
7FC0001FE0
7F80001FE0
7F80001FE0
FF00001FE0
FF00001FE0
FF00001FE0
FF00001FE0
FF00001FE0
FF00001FE0
FF00001FE0
FF00001FE0
FF00001FE0
FF00001FE0
FF00001FE0
FF00001FE0
7F80001FE0
7F80001FE0
7FC0001FE0
3FC0001FE0
3FE0001FE0
1FF0003FE0
1FFC00FFE0
0FFFFFFFE0
07FFFFFFE0
03FFFFFFE0
01FFFFFFE0
007FFFEFE0
001FFF0FE0
0000800FE0
0000001FE0
0000001FE0
0000001FC0
0000001FC0
0000003FC0
0000003FC0
0000007F80
100000FF80
1F0003FF00
1FFFFFFF00
1FFFFFFE00
1FFFFFFC00
3FFFFFF000
3FFFFFE000
03FFFF0000
000F800000
ENDCHAR
STARTCHAR 0068
ENCODING 104
SWIDTH 565 0
DWIDTH 44 0
BBX 33 60 6 0
BITMAP
3E00000000
FE00000000
FE00000000
FE00000000
FE00000000
FE00000000
FE00000000
FE00000000
FE00000000
FE00000000
FE00000000
FE00000000
FE00000000
FE00000000
FE00000000
FE00000000
FE00000000
FE00000000
FE00000000
FE3FFE0000
FFFFFF8000
FFFFFFE000
FFFFFFF000
FFFFFFF800
FFFFFFFC00
FFE01FFC00
FE0003FE00
FE0001FE00
FE0000FF00
FE0000FF00
FE00007F00
FE00007F00
FE00007F80
FE00007F80
FE00007F80
FE00003F80
FE00003F80
FE00003F80
FE00003F80
FE00003F80
FE00003F80
FE00003F80
FE00003F80
FE00003F80
FE00003F80
FE00003F80
FE00003F80
FE00003F80
FE00003F80
FE00003F80
FE00003F80
FE00003F80
FE00003F80
FE00003F80
FE00003F80
FE00003F80
FE00003F80
FE00003F80
FE00003F80
FE00003F80
ENDCHAR
STARTCHAR 0069
ENCODING 105
SWIDTH 244 0
DWIDTH 19 0
BBX 9 57 5 0
BITMAP
3E00
7F80
FF80
FF80
FF80
FF80
FF80
7F80
3E00
0000
0000
0000
0000
0000
0000
0000
0000
7F00
7F00
7F00
7F00
7F00
7F00
7F00
7F00
7F00
7F00
7F00
7F00
7F00
7F00
7F00
7F00
7F00
7F00
7F00
7F00
7F00
7F00
7F00
7F00
7F00
7F00
7F00
7F00
7F00
7F00
7F00
7F00
7F00
7F00
7F00
7F00
7F00
7F00
7F00
7F00
ENDCHAR
STARTCHAR 006A
ENCODING 106
SWIDTH 244 0
DWIDTH 19 0
BBX 19 72 -5 -15
BITMAP
000F80
001FE0
003FE0
003FE0
003FE0
003FE0
003FE0
001FE0
000F80
000000
000000
000000
000000
000000
000000
000000
000000
001FC0
001FC0
001FC0
001FC0
001FC0
001FC0
001FC0
001FC0
001FC0
001FC0
001FC0
001FC0
001FC0
001FC0
001FC0
001FC0
001FC0
001FC0
001FC0
001FC0
001FC0
001FC0
001FC0
001FC0
001FC0
001FC0
001FC0
001FC0
001FC0
001FC0
001FC0
001FC0
001FC0
001FC0
001FC0
001FC0
001FC0
001FC0
001FC0
001FC0
001FC0
001FC0
001FC0
001FC0
003FC0
003FC0
007F80
00FF80
7FFF80
FFFF00
FFFE00
FFFC00
FFF800
FFE000
180000
ENDCHAR
STARTCHAR 006B
ENCODING 107
SWIDTH 514 0
DWIDTH 40 0
BBX 33 60 6 0
BITMAP
3E00000000
FE00000000
FE00000000
FE00000000
FE00000000
FE00000000
FE00000000
FE00000000
FE00000000
FE00000000
FE00000000
FE00000000
FE00000000
FE00000000
FE00000000
FE00000000
FE00000000
FE00000000
FE00000000
FE00000000
FE0001FE00
FE0003FC00
FE0007F800
FE000FF000
FE001FE000
FE003FE000
FE007FC000
FE00FF8000
FE01FF0000
FE03FE0000
FE07FC0000
FE0FF80000
FE1FF00000
FE3FE00000
FE7FC00000
FEFF800000
FFFF000000
FFFE000000
FFFF000000
FFFF800000
FFFFC00000
FE7FE00000
FE3FF00000
FE1FF80000
FE0FFC0000
FE07FE0000
FE03FF0000
FE01FF8000
FE00FF8000
FE007FC000
FE003FE000
FE001FF000
FE000FF000
FE0007F800
FE0007FC00
FE0003FE00
FE0001FE00
FE0001FF00
FE0000FF80
FE00007F80
ENDCHAR
STARTCHAR 006C
ENCODING 108
SWIDTH 270 0
DWIDTH 21 0
BBX 13 61 6 -1
BITMAP
3E00
FE00
FE00
FE00
FE00
FE00
FE00
FE00
FE00
FE00
FE00
FE00
FE00
FE00
FE00
FE00
FE00
FE00
FE00
FE00
FE00
FE00
FE00
FE00
FE00
FE00
FE00
FE00
FE00
FE00
FE00
FE00
FE00
FE00
FE00
FE00
FE00
FE00
FE00
FE00
FE00
FE00
FE00
FE00
FE00
FE00
FE00
FE00
FE00
FE00
FE00
FF00
FF00
FF80
7FF0
7FF8
3FF8
3FF8
0FF8
07F8
0070
ENDCHAR
STARTCHAR 006D
ENCODING 109
SWIDTH 848 0
DWIDTH 66 0
BBX 55 41 6 0
BITMAP
03FFFC003FFC00
7FFFFF01FFFF80
FFFFFFC7FFFFC0
FFFFFFEFFFFFE0
FFFFFFFFFFFFF0
FFFFFFFFFFFFF8
FFC01FFFE01FF8
FE0007FF0007FC
FE0003FC0003FC
FE0003FC0003FC
FE0001FE0001FE
FE0001FE0001FE
FE0001FE0001FE
FE0000FE0000FE
FE0000FE0000FE
FE0000FE0000FE
FE0000FE0000FE
FE0000FE0000FE
FE0000FE0000FE
FE0000FE0000FE
FE0000FE0000FE
FE0000FE0000FE
FE0000FE0000FE
FE0000FE0000FE
FE0000FE0000FE
FE0000FE0000FE
FE0000FE0000FE
FE0000FE0000FE
FE0000FE0000FE
FE0000FE0000FE
FE0000FE0000FE
FE0000FE0000FE
FE0000FE0000FE
FE0000FE0000FE
FE0000FE0000FE
FE0000FE0000FE
FE0000FE0000FE
FE0000FE0000FE
FE0000FE0000FE
FE0000FE0000FE
FE0000FE0000FE
ENDCHAR
STARTCHAR 006E
ENCODING 110
SWIDTH 565 0
DWIDTH 44 0
BBX 33 41 6 0
BITMAP
03FFFE0000
7FFFFF8000
FFFFFFE000
FFFFFFF000
FFFFFFF800
FFFFFFFC00
FFC01FFC00
FE0003FE00
FE0001FE00
FE0000FF00
FE0000FF00
FE00007F00
FE00007F00
FE00007F80
FE00007F80
FE00007F80
FE00003F80
FE00003F80
FE00003F80
FE00003F80
FE00003F80
FE00003F80
FE00003F80
FE00003F80
FE00003F80
FE00003F80
FE00003F80
FE00003F80
FE00003F80
FE00003F80
FE00003F80
FE00003F80
FE00003F80
FE00003F80
FE00003F80
FE00003F80
FE00003F80
FE00003F80
FE00003F80
FE00003F80
FE00003F80
ENDCHAR
STARTCHAR 006F
ENCODING 111
SWIDTH 578 0
DWIDTH 45 0
BBX 38 42 4 -1
BITMAP
0007FF8000
003FFFF000
007FFFF800
01FFFFFE00
03FFFFFF00
07FFFFFF80
0FFE01FFC0
0FF8007FC0
1FF0003FE0
3FE0001FE0
3FC0000FF0
3FC0000FF0
7F800007F8
7F800007F8
7F000003F8
FF000003F8
FF000003FC
FF000003FC
FF000003FC
FF000003FC
FF000003FC
FF000003FC
FF000003FC
FF000003FC
FF000003FC
FF000003FC
7F000003F8
7F000007F8
7F800007F8
7F800007F8
3FC0000FF0
3FC0001FF0
1FE0001FE0
1FF0007FE0
0FFC00FFC0
07FFCFFF80
03FFFFFF00
01FFFFFE00
00FFFFFC00
007FFFF800
001FFFE000
0003FE0000
ENDCHAR
STARTCHAR 0070
ENCODING 112
SWIDTH 578 0
DWIDTH 45 0
BBX 36 55 6 -14
BITMAP
03FFFC0000
7FFFFF8000
FFFFFFE000
FFFFFFF000
FFFFFFF800
FFFFFFFC00
FFC01FFE00
FE0003FF00
FE0001FF80
FE0000FF80
FE00007FC0
FE00003FC0
FE00001FE0
FE00001FE0
FE00001FE0
FE00000FE0
FE00000FF0
FE00000FF0
FE00000FF0
FE00000FF0
FE00000FF0
FE00000FF0
FE00000FF0
FE00000FF0
FE00000FF0
FE00000FF0
FE00000FE0
FE00001FE0
FE00001FE0
FE00001FE0
FE00003FC0
FE00003FC0
FF00007F80
FF8000FF80
FFE003FF00
FFFF7FFF00
FFFFFFFE00
FFFFFFFC00
FFFFFFF800
FEFFFFE000
FE3FFF8000
FE07FC0000
FE00000000
FE00000000
FE00000000
FE00000000
FE00000000
FE00000000
FE00000000
FE00000000
FE00000000
FE00000000
FE00000000
FE00000000
FE00000000
ENDCHAR
STARTCHAR 0071
ENCODING 113
SWIDTH 578 0
DWIDTH 45 0
BBX 36 55 4 -14
BITMAP
0003FFFC00
001FFFFFC0
007FFFFFF0
00FFFFFFF0
03FFFFFFF0
07FFFFFFF0
0FFF803FF0
0FFC000FF0
1FF8000FF0
3FE0000FF0
3FE0000FF0
3FC0000FF0
7F80000FF0
7F80000FF0
7F00000FF0
FF00000FF0
FF00000FF0
FF00000FF0
FF00000FF0
FF00000FF0
FF00000FF0
FF00000FF0
FF00000FF0
FF00000FF0
FF00000FF0
FF00000FF0
FF00000FF0
7F00000FF0
7F80000FF0
7F80000FF0
3FC0000FF0
3FC0000FF0
3FE0000FF0
1FF0001FF0
0FFC007FF0
0FFFCFFFF0
07FFFFFFF0
03FFFFFFF0
01FFFFFFF0
007FFFFFF0
001FFFCFF0
0003FC0FF0
0000000FF0
0000000FF0
0000000FF0
0000000FF0
0000000FF0
0000000FF0
0000000FF0
0000000FF0
0000000FF0
0000000FF0
0000000FF0
0000000FF0
0000000FF0
ENDCHAR
STARTCHAR 0072
ENCODING 114
SWIDTH 385 0
DWIDTH 30 0
BBX 23 41 6 0
BITMAP
01FFFC
1FFFFE
FFFFFE
FFFFFE
FFFFFE
FFFFFC
FFC01C
FE0000
FE0000
FE0000
FE0000
FE0000
FE0000
FE0000
FE0000
FE0000
FE0000
FE0000
FE0000
FE0000
FE0000
FE0000
FE0000
FE0000
FE0000
FE0000
FE0000
FE0000
FE0000
FE0000
FE0000
FE0000
FE0000
FE0000
FE0000
FE0000
FE0000
FE0000
FE0000
FE0000
FE0000
ENDCHAR
STARTCHAR 0073
ENCODING 115
SWIDTH 437 0
DWIDTH 34 0
BBX 29 42 3 -1
BITMAP
007FFF00
01FFFFC0
07FFFFC0
0FFFFFC0
1FFFFFC0
3FFFFFC0
3FE00380
7F800000
7F000000
7F000000
7F000000
7F000000
7F000000
7F800000
7FC00000
7FE00000
3FF80000
1FFF0000
0FFFC000
07FFF800
03FFFE00
00FFFF00
001FFFC0
0007FFC0
0001FFE0
00007FF0
00001FF0
00000FF0
000007F8
000007F8
000007F8
000007F8
000007F8
400007F0
70001FF0
7F00FFF0
7FFFFFE0
7FFFFFC0
FFFFFF80
FFFFFF00
3FFFFC00
03FFC000
ENDCHAR
STARTCHAR 0074
ENCODING 116
SWIDTH 398 0
DWIDTH 31 0
BBX 24 54 6 -1
BITMAP
0E0000
FE0000
FE0000
FE0000
FE0000
FE0000
FE0000
FE0000
FE0000
FE0000
FE0000
FE0000
FE0000
FFFFFC
FFFFFC
FFFFFC
FFFFFC
FFFFFC
FFFFFC
FE0000
FE0000
FE0000
FE0000
FE0000
FE0000
FE0000
FE0000
FE0000
FE0000
FE0000
FE0000
FE0000
FE0000
FE0000
FE0000
FE0000
FE0000
FE0000
FE0000
FE0000
FE0000
FE0000
FE0000
FF0000
FF0000
7F8000
7FC00E
7FFFFE
3FFFFE
1FFFFE
1FFFFF
07FFFF
03FFFC
003FC0
ENDCHAR
STARTCHAR 0075
ENCODING 117
SWIDTH 565 0
DWIDTH 44 0
BBX 32 41 6 -1
BITMAP
FE00007F
FE00007F
FE00007F
FE00007F
FE00007F
FE00007F
FE00007F
FE00007F
FE00007F
FE00007F
FE00007F
FE00007F
FE00007F
FE00007F
FE00007F
FE00007F
FE00007F
FE00007F
FE00007F
FE00007F
FE00007F
FE00007F
FE00007F
FE00007F
FE00007F
FE00007F
FE00007F
FF00007F
FF00007F
7F00007F
7F80007F
7F80007F
3FC0007F
3FF0007F
1FFFFFFF
1FFFFFFF
0FFFFFFF
07FFFFFF
01FFFFFF
007FFFF8
000FFF00
ENDCHAR
STARTCHAR 0076
ENCODING 118
SWIDTH 501 0
DWIDTH 39 0
BBX 37 40 1 0
BITMAP
FF000007F8
7F800007F0
7F800007F0
7F80000FF0
3F80000FE0
3FC0000FE0
3FC0001FE0
1FC0001FC0
1FC0001FC0
1FE0001FC0
1FE0003FC0
0FE0003F80
0FF0003F80
0FF0007F80
07F0007F00
07F8007F00
03F800FF00
03F800FE00
03FC00FE00
01FC01FC00
01FC01FC00
01FE01FC00
00FE03F800
00FF03F800
007F07F000
007F07F000
007F87F000
003F8FE000
003F8FE000
001FDFC000
001FDFC000
001FFFC000
000FFF8000
000FFF8000
0007FF0000
0007FF0000
0003FE0000
0003FE0000
0001FC0000
0001FC0000
ENDCHAR
STARTCHAR 0077
ENCODING 119
SWIDTH 771 0
DWIDTH 60 0
BBX 57 40 2 0
BITMAP
FE00007F00007F80
FF00007F00007F80
FF00007F00007F00
FF0000FF00007F00
7F0000FF8000FF00
7F8000FF8000FE00
7F8000FF8000FE00
7F8001FF8000FE00
3F8001FFC001FE00
3FC001FFC001FC00
3FC001FFC001FC00
1FC003FFC001FC00
1FC003FFE003F800
1FE003FFE003F800
0FE003F7E003F800
0FE007E7E007F800
0FE007E7F007F000
0FF007E3F007F000
07F00FC3F007F000
07F00FC3F80FE000
07F80FC3F80FE000
03F80FC1F80FE000
03F81F81F81FC000
03FC1F81FC1FC000
01FC1F80FC1FC000
01FC3F00FC3F8000
01FE3F00FE3F8000
00FE3F007E3F8000
00FE7E007E7F0000
007F7E007F7F0000
007F7E003F7E0000
007FFC003FFE0000
003FFC003FFE0000
003FFC001FFC0000
001FF8001FFC0000
001FF8000FF80000
001FF0000FF80000
000FF0000FF80000
000FF00007F00000
0007E00007F00000
ENDCHAR
STARTCHAR 0078
ENCODING 120
SWIDTH 501 0
DWIDTH 39 0
BBX 37 40 1 0
BITMAP
7FC0000FF0
3FC0001FE0
1FE0003FC0
0FF0003F80
0FF0007F80
07F800FF00
03FC00FE00
03FC01FE00
01FE03FC00
00FF03F800
00FF87F000
007F8FF000
003FDFE000
001FFFC000
001FFFC000
000FFF8000
0007FF0000
0007FF0000
0003FE0000
0003FF0000
0007FF8000
000FFF8000
001FFFC000
001FDFE000
003FDFF000
007F8FF000
007F07F800
00FF03FC00
01FE03FC00
01FC01FE00
03F800FF00
07F800FF00
07F0007F80
0FF0003FC0
1FE0003FC0
1FC0001FE0
3FC0001FE0
3F80000FF0
7F800007F8
FF000007F8
ENDCHAR
STARTCHAR 0079
ENCODING 121
SWIDTH 488 0
DWIDTH 38 0
BBX 37 55 0 -15
BITMAP
7F800003F8
3F800007F8
3FC00007F8
3FC00007F0
1FC00007F0
1FE0000FF0
1FE0000FE0
0FE0000FE0
0FF0000FE0
0FF0001FE0
0FF0001FC0
07F0001FC0
07F8001FC0
03F8003FC0
03F8003F80
03FC003F80
01FC003F80
01FC007F00
01FE007F00
00FE007F00
00FF00FE00
007F00FE00
007F00FE00
007F81FC00
003F81FC00
003FC1FC00
001FC3F800
001FC3F800
000FE3F800
000FE7F000
000FF7F000
0007F7F000
0007FFE000
0003FFE000
0003FFC000
0001FFC000
0001FFC000
0000FF8000
0000FF8000
00007F0000
00007F0000
00007F0000
0000FE0000
0000FE0000
0001FC0000
0003FC0000
0007F80000
000FF00000
78FFF00000
7FFFE00000
7FFFC00000
7FFF800000
FFFE000000
FFF8000000
0700000000
ENDCHAR
STARTCHAR 007A
ENCODING 122
SWIDTH 462 0
DWIDTH 36 0
BBX 31 40 3 0
BITMAP
7FFFFFFC
7FFFFFFC
7FFFFFFC
7FFFFFFC
7FFFFFFC
7FFFFFFC
00000FF8
00001FF0
00003FE0
00003FC0
00007F80
0000FF80
0001FF00
0001FE00
0003FC00
0007F800
000FF800
000FF000
001FE000
003FC000
007FC000
007F8000
00FF0000
01FE0000
03FE0000
03FC0000
07F80000
0FF00000
0FF00000
1FE00000
1FE00000
3FC00000
7F800000
7F800000
FFFFFFFE
FFFFFFFE
FFFFFFFE
FFFFFFFE
FFFFFFFE
FFFFFFFE
ENDCHAR
STARTCHAR 007B
ENCODING 123
SWIDTH 321 0
DWIDTH 25 0
BBX 22 75 3 -14
BITMAP
00007C
0003FC
000FFC
003FFC
003FFC
007FFC
00FF80
00FF00
00FE00
00FE00
01FC00
01FC00
01FC00
01FC00
01FC00
01FC00
01FC00
01FC00
01FC00
01FC00
01FC00
01FC00
01FC00
01FC00
01FC00
01FC00
01FC00
01FC00
01FC00
01FC00
01FC00
03F800
03F800
07F800
1FF000
FFE000
FFC000
FF8000
FFC000
FFE000
FFF000
0FF000
07F800
03F800
03F800
01FC00
01FC00
01FC00
01FC00
01FC00
01FC00
01FC00
01FC00
01FC00
01FC00
01FC00
01FC00
01FC00
01FC00
01FC00
01FC00
01FC00
01FC00
01FC00
01FC00
01FC00
00FE00
00FE00
00FF00
007FF0
007FFC
003FFC
001FFC
000FFC
0001FC
ENDCHAR
STARTCHAR 007C
ENCODING 124
SWIDTH 270 0
DWIDTH 21 0
BBX 7 75 7 -14
BITMAP
FE
FE
FE
FE
FE
FE
FE
FE
FE
FE
FE
FE
FE
FE
FE
FE
FE
FE
FE
FE
FE
FE
FE
FE
FE
FE
FE
FE
FE
FE
FE
FE
FE
FE
FE
FE
FE
FE
FE
FE
FE
FE
FE
FE
FE
FE
FE
FE
FE
FE
FE
FE
FE
FE
FE
FE
FE
FE
FE
FE
FE
FE
FE
FE
FE
FE
FE
FE
FE
FE
FE
FE
FE
FE
FE
ENDCHAR
STARTCHAR 007D
ENCODING 125
SWIDTH 321 0
DWIDTH 25 0
BBX 22 75 1 -14
BITMAP
F80000
FF0000
FFC000
FFE000
FFF000
FFF800
0FFC00
03FC00
01FC00
01FC00
00FC00
00FE00
00FE00
00FE00
00FE00
00FE00
00FE00
00FE00
00FE00
00FE00
00FE00
00FE00
00FE00
00FE00
00FE00
00FE00
00FE00
00FE00
00FE00
00FE00
00FE00
007F00
007F00
007F80
003FE0
001FFC
001FFC
0007FC
000FFC
001FFC
003FFC
003FC0
007F80
007F00
00FE00
00FE00
00FE00
00FE00
00FE00
00FE00
00FE00
00FE00
00FE00
00FE00
00FE00
00FE00
00FE00
00FE00
00FE00
00FE00
00FE00
00FE00
00FE00
00FE00
00FE00
01FC00
01FC00
01FC00
07FC00
3FF800
FFF800
FFF000
FFE000
FF8000
FE0000
ENDCHAR
STARTCHAR 007E
ENCODING 126
SWIDTH 552 0
DWIDTH 43 0
BBX 37 13 3 17
BITMAP
0078000000
03FF0000E0
07FFC000F8
0FFFE001F8
1FFFF801F8
3FFFFE03F8
3FFFFF87F0
7F03FFFFF0
7E00FFFFE0
7C003FFFC0
FC001FFF80
7C0007FF00
000001FC00
ENDCHAR
STARTCHAR 00A0
ENCODING 160
SWIDTH 218 0
DWIDTH 17 0
BBX 0 0 0 0
BITMAP
ENDCHAR
STARTCHAR 00A1
ENCODING 161
SWIDTH 270 0
DWIDTH 21 0
BBX 10 54 6 -14
BITMAP
3F00
7F80
FF80
FFC0
FFC0
FFC0
FFC0
FF80
7F00
3E00
0000
0000
0000
0000
0000
0000
0000
3E00
3E00
3E00
3E00
3E00
3F00
3F00
3F00
3F00
7F00
7F00
7F00
7F00
7F00
7F00
7F00
7F00
7F80
7F80
7F80
7F80
7F80
7F80
7F80
7F80
7F80
7F80
7F80
7F80
7F80
7F80
7F80
7F80
7F80
7F80
7F80
7F80
ENDCHAR
STARTCHAR 00A2
ENCODING 162
SWIDTH 552 0
DWIDTH 43 0
BBX 30 62 7 -8
BITMAP
0001F800
0001F800
0001F800
0001F800
0001F800
0001F800
0001F800
0001F800
0001F800
0001F800
0001F800
0003FFC0
001FFFF8
007FFFFC
01FFFFF8
03FFFFF8
07FFFFF8
0FFF00F0
1FF80000
1FF00000
3FE00000
3FC00000
7F800000
7F800000
7F000000
FF000000
FF000000
FF000000
FE000000
FE000000
FE000000
FE000000
FE000000
FE000000
FE000000
FF000000
FF000000
FF000000
7F000000
7F800000
7FC00000
3FC00000
3FE00000
1FF80000
0FFE0018
0FFFFFFC
07FFFFFC
03FFFFFC
00FFFFFC
007FFFFC
000FFFF0
0001FE00
0001F800
0001F800
0001F800
0001F800
0001F800
0001F800
0001F800
0001F800
0001F800
0001F800
ENDCHAR
STARTCHAR 00A3
ENCODING 163
SWIDTH 552 0
DWIDTH 43 0
BBX 35 55 5 0
BITMAP
00001FF800
0001FFFF00
0007FFFFC0
000FFFFFC0
001FFFFF80
003FFFFF80
003FFEFF80
007FE00300
007F800000
00FF000000
00FF000000
00FE000000
01FE000000
01FE000000
01FE000000
01FC000000
01FC000000
01FC000000
01FC000000
01FC000000
01FC000000
01FC000000
01FC000000
01FC000000
01FC000000
01FC000000
FFFFFFF800
FFFFFFF800
FFFFFFF800
FFFFFFF800
FFFFFFF800
FFFFFFF800
01FC000000
01FC000000
01FC000000
01FC000000
01FC000000
01FC000000
01FC000000
01FC000000
01FC000000
03FC000000
03FC000000
03FC000000
03F8000000
03F8000000
03F8000000
03F8000000
03F8000000
03FFFFFFE0
07FFFFFFE0
07FFFFFFE0
07FFFFFFE0
07FFFFFFE0
07FFFFFFE0
ENDCHAR
STARTCHAR 00A4
ENCODING 164
SWIDTH 552 0
DWIDTH 43 0
BBX 36 36 4 9
BITMAP
1800000180
3C000003C0
7E000007E0
FF03FC0FF0
FF9FFF9FF0
7FFFFFFFE0
3FFFFFFFC0
1FFFFFFF80
0FFF1FFF00
07F803FE00
07F000FE00
0FE0007F00
0FC0003F00
1FC0003F00
1F80001F80
1F80001F80
1F80001F80
1F80001F80
1F80001F80
1F80001F80
1F80001F80
1F80001F80
1FC0003F00
0FC0003F00
0FE0007F00
07F000FE00
07F803FE00
0FFF0FFF00
1FFFFFFF80
3FFFFFFFC0
7FFFFFFFE0
FF9FFF9FF0
FF03FC0FF0
7E000007E0
3C000003C0
1800000180
ENDCHAR
STARTCHAR 00A5
ENCODING 165
SWIDTH 552 0
DWIDTH 43 0
BBX 40 54 2 0
BITMAP
FF0000007F
FF000000FF
7F000000FE
7F800001FE
3F800001FC
3FC00003FC
1FC00003F8
1FE00007F8
0FE00007F0
0FF0000FF0
07F0000FE0
07F8001FC0
03FC001FC0
01FC003F80
01FE003F80
00FE007F00
00FF00FF00
007F00FE00
007F81FC00
003F81FC00
001FC3F800
001FE3F800
000FE7F000
000FFFE000
0007FFE000
0003FFC000
0003FFC000
0FFFFFFFF0
0FFFFFFFF0
0FFFFFFFF0
0FFFFFFFF0
0FFFFFFFF0
0000FF0000
0000FF0000
0000FF0000
0000FF0000
0000FF0000
0000FF0000
0000FF0000
0000FF0000
0FFFFFFFF0
0FFFFFFFF0
0FFFFFFFF0
0FFFFFFFF0
0FFFFFFFF0
0FFFFFFFF0
0000FF0000
0000FF0000
0000FF0000
0000FF0000
0000FF0000
0000FF0000
0000FF0000
0000FF0000
ENDCHAR
STARTCHAR 00A6
ENCODING 166
SWIDTH 270 0
DWIDTH 21 0
BBX 7 75 7 -14
BITMAP
FE
FE
FE
FE
FE
FE
FE
FE
FE
FE
FE
FE
FE
FE
FE
FE
FE
FE
FE
FE
FE
FE
FE
FE
FE
FE
FE
FE
FE
FE
00
00
00
00
00
00
00
00
00
00
00
00
00
00
00
00
FE
FE
FE
FE
FE
FE
FE
FE
FE
FE
FE
FE
FE
FE
FE
FE
FE
FE
FE
FE
FE
FE
FE
FE
FE
FE
FE
FE
FE
ENDCHAR
STARTCHAR 00A7
ENCODING 167
SWIDTH 488 0
DWIDTH 38 0
BBX 32 63 3 -8
BITMAP
000FFF00
007FFFF0
01FFFFFC
03FFFFFC
07FFFFFC
07FFFFF8
0FF800F8
0FE00018
1FE00000
1FC00000
1FC00000
1FC00000
1FC00000
1FE00000
1FE00000
0FF00000
0FFC0000
07FF8000
03FFF000
01FFFC00
03FFFF80
07FFFFC0
0FFFFFF0
1FE1FFF8
3FC03FFC
3F800FFC
7F0003FE
7E0001FE
7E0000FF
FE00007F
FE00007F
FE00007F
FE00007F
7F00007F
7F00007F
7FC0007E
3FE000FE
3FF801FC
1FFF03FC
0FFFE7F8
07FFFFF0
01FFFFE0
00FFFFC0
001FFFC0
0003FFE0
0000FFF0
00001FF8
000007F8
000003FC
000001FC
000001FC
000001FC
000001FC
000001FC
000001FC
200003FC
3C0007F8
3FFFFFF8
7FFFFFF0
7FFFFFE0
7FFFFFC0
3FFFFF80
07FFFC00
ENDCHAR
STARTCHAR 00A8
ENCODING 168
SWIDTH 372 0
DWIDTH 29 0
BBX 24 9 3 48
BITMAP
3C0078
7F00FC
FF01FE
FF81FE
FF83FF
FF81FE
FF01FE
7F00FC
3C0078
ENDCHAR
STARTCHAR 00A9
ENCODING 169
SWIDTH 810 0
DWIDTH 63 0
BBX 53 56 5 -1
BITMAP
000007FF800000
00007FFFF00000
0001FFFFFC0000
0007FFFFFF0000
001FFFFFFFC000
003FFC01FFE000
007FE0001FF000
00FF800007F800
01FE000003FC00
03FC000000FE00
07F00000007F00
07E00000003F80
0FE000FF001F80
1FC007FFE01FC0
1F801FFFF80FC0
3F803FFFF807E0
3F007FFFF807E0
3F00FFC1F003F0
7E01FE003003F0
7E01FC000003F0
7E03F8000001F0
7C03F0000001F8
FC07F0000001F8
FC07E0000001F8
FC07E0000001F8
FC07E0000001F8
FC07E0000000F8
FC07E0000000F8
FC07E0000000F8
FC07E0000000F8
FC07E0000001F8
FC07E0000001F8
FC07E0000001F8
FC07F0000001F8
7C03F0000001F8
7E03F8000001F0
7E03F8000003F0
7E01FE001003F0
3F00FF80F803F0
3F00FFFFF807E0
3F807FFFF807E0
1F801FFFFC0FC0
1FC00FFFF01FC0
0FE001FF801F80
07E00000003F80
07F00000007F00
03FC000000FE00
01FE000003FC00
00FF800007FC00
007FE0001FF000
003FFC01FFE000
001FFFFFFFC000
0007FFFFFF0000
0001FFFFFC0000
00007FFFF00000
00000FFF800000
ENDCHAR
STARTCHAR 00AA
ENCODING 170
SWIDTH 385 0
DWIDTH 30 0
BBX 23 29 3 26
BITMAP
01FF00
1FFFE0
1FFFF0
1FFFF8
1FFFFC
0E03FC
0000FE
00007E
00007E
00003E
00003E
000C3E
03FFFE
0FFFFE
3FFFFE
7FFFFE
7F803E
FE003E
FC003E
F8003E
F8003E
FC003E
FC003E
FE003E
7FE0FE
7FFFFE
3FFFFE
0FFFFE
03FFFC
ENDCHAR
STARTCHAR 00AB
ENCODING 171
SWIDTH 488 0
DWIDTH 38 0
BBX 33 34 3 5
BITMAP
0018001800
003E003E00
007F003F80
007F007F00
00FE00FE00
01FE00FE00
01FC01FC00
03FC03FC00
07F807F800
07F007F000
0FF00FF000
1FE01FE000
3FE01FE000
3FC03FC000
7F807FC000
FF80FF8000
FF00FF0000
FF00FF0000
FF807F8000
7F807FC000
3FC03FC000
1FE01FE000
1FE01FE000
0FF00FF000
07F007F800
07F803F800
03FC03FC00
01FC01FC00
00FE00FE00
00FE00FF00
007F007F00
003F003F00
003C001E00
0018001800
ENDCHAR
STARTCHAR 00AC
ENCODING 172
SWIDTH 552 0
DWIDTH 43 0
BBX 36 27 4 4
BITMAP
FFFFFFFFF0
FFFFFFFFF0
FFFFFFFFF0
FFFFFFFFF0
FFFFFFFFF0
FFFFFFFFF0
FFFFFFFFF0
00000003F0
00000003F0
00000003F0
00000003F0
00000003F0
00000003F0
00000003F0
00000003F0
00000003F0
00000003F0
00000003F0
00000003F0
00000003F0
00000003F0
00000003F0
00000003F0
00000003F0
00000003F0
00000003F0
00000003F0
ENDCHAR
STARTCHAR 00AD
ENCODING 173
SWIDTH 295 0
DWIDTH 23 0
BBX 19 7 2 20
BITMAP
FFFFE0
FFFFE0
FFFFE0
FFFFE0
FFFFE0
FFFFE0
FFFFE0
ENDCHAR
STARTCHAR 00AE
ENCODING 174
SWIDTH 810 0
DWIDTH 63 0
BBX 53 56 5 -1
BITMAP
000007FF800000
00007FFFF00000
0001FFFFFC0000
0007FFFFFF0000
001FFFFFFFC000
003FFC01FFE000
007FE0001FF000
00FF800007F800
01FE000003FC00
03FC000000FE00
07F00000007F00
07E00000003F80
0FE003E0001F80
1FC0FFFF001FC0
1F80FFFFC00FC0
3F80FFFFE007E0
3F00FFFFF007E0
3F00F80FF803F0
7E00F803FC03F0
7E00F800FC03F0
7E00F800FC01F0
7C00F800FC01F8
FC00F800FC01F8
FC00F800FC01F8
FC00F800FC01F8
FC00F801FC01F8
FC00F803F800F8
FC00FFFFF800F8
FC00FFFFF000F8
FC00FFFFE000F8
FC00FFFF8001F8
FC00FFFF8001F8
FC00F81FC001F8
FC00F80FC001F8
7C00F807E001F8
7E00F807F001F0
7E00F803F003F0
7E00F801F803F0
3F00F801FC03F0
3F00F800FC07E0
3F80F8007E07E0
1F80F8007E0FC0
1FC0F8003F1FC0
0FE00000001F80
07E00000003F80
07F00000007F00
03FC000000FE00
01FE000003FC00
00FF800007FC00
007FE0001FF000
003FFC01FFE000
001FFFFFFFC000
0007FFFFFF0000
0001FFFFFC0000
00007FFFF00000
00000FFF800000
ENDCHAR
STARTCHAR 00AF
ENCODING 175
SWIDTH 372 0
DWIDTH 29 0
BBX 22 5 4 50
BITMAP
FFFFFC
FFFFFC
FFFFFC
FFFFFC
FFFFFC
ENDCHAR
STARTCHAR 00B0
ENCODING 176
SWIDTH 321 0
DWIDTH 25 0
BBX 22 21 2 39
BITMAP
03FE00
07FF80
1FFFE0
3FFFE0
3FFFF0
7F03F8
7E01F8
FC00F8
F800FC
F8007C
F8007C
F800FC
FC00FC
FC00F8
7E01F8
7F03F8
3FFFF0
3FFFE0
1FFFC0
07FF80
01FE00
ENDCHAR
STARTCHAR 00B1
ENCODING 177
SWIDTH 552 0
DWIDTH 43 0
BBX 36 48 4 0
BITMAP
0001F80000
0001F80000
0001F80000
0001F80000
0001F80000
0001F80000
0001F80000
0001F80000
0001F80000
0001F80000
0001F80000
0001F80000
0001F80000
0001F80000
0001F80000
FFFFFFFFF0
FFFFFFFFF0
FFFFFFFFF0
FFFFFFFFF0
FFFFFFFFF0
FFFFFFFFF0
FFFFFFFFF0
0001F80000
0001F80000
0001F80000
0001F80000
0001F80000
0001F80000
0001F80000
0001F80000
0001F80000
0001F80000
0001F80000
0001F80000
0001F80000
0001F80000
0001F80000
0000000000
0000000000
0000000000
0000000000
0000000000
FFFFFFFFF0
FFFFFFFFF0
FFFFFFFFF0
FFFFFFFFF0
FFFFFFFFF0
FFFFFFFFF0
ENDCHAR
STARTCHAR 00B2
ENCODING 178
SWIDTH 347 0
DWIDTH 27 0
BBX 21 31 3 24
BITMAP
07FC00
1FFF80
7FFFC0
FFFFE0
FFFFE0
FC07F0
7003F0
2003F0
0003F0
0003F0
0003F0
0007E0
0007E0
000FC0
001FC0
003F80
00FF00
01FE00
03FC00
07F800
0FE000
1FC000
1F8000
3F0000
7E0000
7E0000
7FFFF8
7FFFF8
FFFFF8
FFFFF8
7FFFF8
ENDCHAR
STARTCHAR 00B3
ENCODING 179
SWIDTH 347 0
DWIDTH 27 0
BBX 21 31 3 24
BITMAP
07FC00
3FFF00
FFFF80
FFFFC0
7FFFE0
7807E0
2003E0
0003E0
0003E0
0003E0
0007E0
000FC0
07FFC0
07FF00
07FF00
07FFC0
07FFE0
000FF0
0003F0
0001F8
0001F8
0001F8
0001F8
0001F8
0003F8
E007F0
FFFFF0
FFFFE0
FFFFC0
FFFF00
1FFC00
ENDCHAR
STARTCHAR 00B4
ENCODING 180
SWIDTH 372 0
DWIDTH 29 0
BBX 14 15 10 45
BITMAP
0060
00F0
01F8
01FC
03FC
07F8
0FF0
1FE0
3FC0
3F80
7F00
FE00
7C00
3800
1000
ENDCHAR
STARTCHAR 00B5
ENCODING 181
SWIDTH 578 0
DWIDTH 45 0
BBX 33 54 6 -14
BITMAP
FE00003F80
FE00003F80
FE00003F80
FE00003F80
FE00003F80
FE00003F80
FE00003F80
FE00003F80
FE00003F80
FE00003F80
FE00003F80
FE00003F80
FE00003F80
FE00003F80
FE00003F80
FE00003F80
FE00003F80
FE00003F80
FE00003F80
FE00003F80
FE00003F80
FE00003F80
FE00003F80
FF00003F80
FF00003F80
FF00003F80
FF00003F80
FF00003F80
FF00003F80
FF80003F80
FF80003F80
FFC0003F80
FFE0003F80
FFF0003F80
FFFFFFFF80
FFFFFFFF80
FFFFFFFF80
FFFFFFFF80
FEFFFFFF80
FE3FFFFC00
FE07FF0000
FE00000000
FE00000000
FE00000000
FE00000000
FE00000000
FE00000000
FE00000000
FE00000000
FE00000000
FE00000000
FE00000000
FE00000000
FE00000000
ENDCHAR
STARTCHAR 00B6
ENCODING 182
SWIDTH 642 0
DWIDTH 50 0
BBX 39 68 3 -14
BITMAP
0000FFFFFC
000FFFFFFE
003FFFFFFE
00FFFFFFFE
03FFFFFFFE
07FFFFFFFE
0FFFFF807E
1FFFFF807E
1FFFFF807E
3FFFFF807E
7FFFFF807E
7FFFFF807E
7FFFFF807E
7FFFFF807E
FFFFFF807E
FFFFFF807E
FFFFFF807E
FFFFFF807E
FFFFFF807E
FFFFFF807E
7FFFFF807E
7FFFFF807E
7FFFFF807E
7FFFFF807E
3FFFFF807E
3FFFFF807E
1FFFFF807E
0FFFFF807E
07FFFF807E
03FFFF807E
00FFFF807E
003FFF807E
000FFF807E
00003F807E
00001F807E
00001F807E
00001F807E
00001F807E
00001F807E
00001F807E
00001F807E
00001F807E
00001F807E
00001F807E
00001F807E
00001F807E
00001F807E
00001F807E
00001F807E
00001F807E
00001F807E
00001F807E
00001F807E
00001F807E
00001F807E
00001F807E
00001F807E
00001F807E
00001F807E
00001F807E
00001F807E
00001F807E
00001F807E
00001F807E
00001F807E
00001F807E
00001F807E
00001F807E
ENDCHAR
STARTCHAR 00B7
ENCODING 183
SWIDTH 244 0
DWIDTH 19 0
BBX 11 10 4 18
BITMAP
1F00
3F80
7FC0
7FE0
FFE0
FFE0
7FE0
7FC0
7FC0
1F80
ENDCHAR
STARTCHAR 00B8
ENCODING 184
SWIDTH 372 0
DWIDTH 29 0
BBX 15 17 5 -15
BITMAP
00F8
01F0
01F0
03E0
03E0
07F0
07F8
07FC
01FC
00FE
00FE
40FE
7FFC
7FFC
7FF8
FFF0
0F80
ENDCHAR
STARTCHAR 00B9
ENCODING 185
SWIDTH 347 0
DWIDTH 27 0
BBX 15 31 4 24
BITMAP
001E
003E
00FE
01FE
07FE
1FFE
FFFE
FFFE
7F7E
787E
607E
007E
007E
007E
007E
007E
007E
007E
007E
007E
007E
007E
007E
007E
007E
007E
007E
007E
007E
007E
007E
ENDCHAR
STARTCHAR 00BA
ENCODING 186
SWIDTH 437 0
DWIDTH 34 0
BBX 28 29 3 26
BITMAP
003FE000
00FFF800
03FFFE00
07FFFF00
0FFFFF80
1FF07FC0
3FC01FC0
3F000FE0
7F0007E0
7E0003F0
7E0003F0
7C0003F0
FC0003F0
FC0001F0
FC0001F0
FC0001F0
FC0003F0
7C0003F0
7E0003F0
7E0003F0
7E0007E0
3F0007E0
3F800FC0
1FE03FC0
1FFFFF80
0FFFFF00
07FFFE00
01FFFC00
007FF000
ENDCHAR
STARTCHAR 00BB
ENCODING 187
SWIDTH 488 0
DWIDTH 38 0
BBX 33 34 3 5
BITMAP
0C000C0000
3C003E0000
FE00FE0000
7F007F0000
7F803F8000
3F803F8000
1FC01FC000
1FE01FE000
0FE00FF000
0FF00FF000
07F807F800
03F803FC00
03FC03FC00
01FE01FE00
01FF01FF00
00FF00FF00
00FF807F80
00FF807F80
00FF00FF00
01FE01FF00
01FE01FE00
03FC03FC00
07F803FC00
07F807F800
0FF00FF000
0FE00FE000
1FE01FE000
3FC01FC000
3F803F8000
7F007F8000
7F007F0000
FE00FE0000
3C003C0000
0C000C0000
ENDCHAR
STARTCHAR 00BC
ENCODING 188
SWIDTH 861 0
DWIDTH 67 0
BBX 62 55 4 0
BITMAP
001E000000000000
003E0000007F0000
00FE0000007F0000
01FE000000FE0000
07FE000000FE0000
1FFE000001FC0000
FFFE000001F80000
FFFE000003F80000
7F7E000007F00000
787E000007F00000
607E00000FE00000
007E00000FE00000
007E00001FC00000
007E00001F800000
007E00003F800000
007E00003F000000
007E00007F000000
007E0000FE000000
007E0000FE000000
007E0001FC000000
007E0001F8000000
007E0003F8000000
007E0003F0000000
007E0007F0000000
007E000FE0000000
007E000FE0000FC0
007E001FC0001FC0
007E001FC0003FC0
007E003F80007FC0
007E003F0000FFC0
007E007F0000FFC0
000000FE0001FFC0
000000FE0003F7C0
000001FC0007E7C0
000001FC000FC7C0
000003F8000F87C0
000003F0001F07C0
000007F0003F07C0
000007E0007E07C0
00000FE0007C07C0
00001FC000F807C0
00001FC001F807C0
00003F8001F007C0
00003F8003FFFFFC
00007F0003FFFFFC
00007E0003FFFFFC
0000FE0003FFFFFC
0001FC0003FFFFFC
0001FC00000007C0
0003F800000007C0
0003F800000007C0
0007F000000007C0
0007E000000007C0
000FE000000007C0
000FC000000007C0
ENDCHAR
STARTCHAR 00BD
ENCODING 189
SWIDTH 861 0
DWIDTH 67 0
BBX 60 55 4 0
BITMAP
001E000000000000
003E000000FE0000
00FE000001FC0000
01FE000001F80000
07FE000003F80000
1FFE000003F00000
FFFE000007F00000
FFFE00000FE00000
7F7E00000FE00000
787E00001FC00000
607E00001F800000
007E00003F800000
007E00003F000000
007E00007F000000
007E0000FE000000
007E0000FE000000
007E0001FC000000
007E0001FC000000
007E0003F8000000
007E0003F0000000
007E0007F0000000
007E000FE0000000
007E000FE0000000
007E001FC0000000
007E001FC007F000
007E003F803FFE00
007E003F007FFF80
007E007F01FFFFC0
007E007E01FFFFC0
007E00FE01FC1FE0
007E01FC00F007E0
000001FC004007E0
000003F8000007E0
000003F8000007E0
000007F0000007E0
000007E0000007E0
00000FE000000FC0
00001FC000001F80
00001FC000003F80
00003F8000007F00
00003F800000FE00
00007F000001FC00
00007E000007F800
0000FE00000FF000
0000FC00001FE000
0001FC00001FC000
0003F800003F0000
0003F800007E0000
0007F000007E0000
0007E00000FC0000
000FE00000FFFFF0
000FC00000FFFFF0
001FC00000FFFFF0
003F800000FFFFF0
003F800000FFFFF0
ENDCHAR
STARTCHAR 00BE
ENCODING 190
SWIDTH 861 0
DWIDTH 67 0
BBX 63 55 3 0
BITMAP
07FC000000000000
3FFF0000000FC000
FFFF8000001FC000
FFFFC000003F8000
7FFFE000003F8000
7807E000007F0000
2003E000007F0000
0003E00000FE0000
0003E00000FC0000
0003E00001FC0000
0007E00001F80000
000FC00003F80000
07FFC00007F00000
07FF000007F00000
07FF00000FE00000
07FFC0000FC00000
07FFE0001FC00000
000FF0001F800000
0003F0003F800000
0001F8007F000000
0001F8007F000000
0001F800FE000000
0001F800FE000000
0001F801FC000000
0003F801F8000000
E007F003F80007E0
FFFFF007F0000FE0
FFFFE007F0001FE0
FFFFC00FE0003FE0
FFFF000FE0007FE0
1FFC001FC0007FE0
0000001F8000FFE0
0000003F8001FBE0
0000003F0003F3E0
0000007F0007E3E0
000000FE0007C3E0
000000FE000F83E0
000001FC001F83E0
000001FC003F03E0
000003F8003E03E0
000003F0007C03E0
000007F000FC03E0
00000FE000F803E0
00000FE001FFFFFE
00001FC001FFFFFE
00001FC001FFFFFE
00003F8001FFFFFE
00003F0001FFFFFE
00007F00000003E0
00007E00000003E0
0000FE00000003E0
0001FC00000003E0
0001FC00000003E0
0003F800000003E0
0003F000000003E0
ENDCHAR
STARTCHAR 00BF
ENCODING 191
SWIDTH 398 0
DWIDTH 31 0
BBX 28 55 2 -15
BITMAP
0007E000
000FF000
001FF800
001FF800
001FF800
001FF800
001FF800
001FF000
000FF000
0007C000
00000000
00000000
00000000
00000000
00000000
00000000
00000000
0007E000
0007E000
0007F000
0007F000
0007F000
0007E000
000FE000
000FE000
001FC000
003FC000
003F8000
007F8000
00FF0000
01FE0000
03FC0000
07F80000
0FF00000
1FE00000
1FE00000
3FC00000
7F800000
7F800000
7F000000
FF000000
FF000000
FF000000
FF000000
FF000000
FF800000
7FC00040
7FE003E0
3FFE7FE0
3FFFFFE0
1FFFFFF0
0FFFFFF0
03FFFFC0
00FFFE00
00078000
ENDCHAR
STARTCHAR 00C0
ENCODING 192
SWIDTH 655 0
DWIDTH 51 0
BBX 50 72 1 1
BITMAP
00001800000000
00003C00000000
00007E00000000
0000FE00000000
0000FF00000000
00007F80000000
00003FC0000000
00001FE0000000
00000FF0000000
000007F0000000
000003F8000000
000001FC000000
000000F8000000
00000070000000
00000020000000
00000000000000
00000000000000
00000000000000
000007F0000000
000007F8000000
00000FF8000000
00000FFC000000
00001FFC000000
00001FFE000000
00003FFE000000
00003FFF000000
00007FFF000000
00007F7F800000
00007F7F800000
0000FE3F800000
0000FE3FC00000
0001FC1FC00000
0001FC1FE00000
0003FC0FE00000
0003F80FF00000
0003F80FF00000
0007F007F00000
0007F007F80000
000FF003F80000
000FE003FC0000
000FE003FC0000
001FC001FC0000
001FC001FE0000
003FC001FE0000
003F8000FF0000
003F8000FF0000
007F80007F0000
007F00007F8000
00FF00007F8000
00FE00003FC000
00FE00003FC000
01FE00003FC000
01FFFFFFFFE000
03FFFFFFFFE000
03FFFFFFFFE000
03FFFFFFFFF000
07FFFFFFFFF000
07FFFFFFFFF800
07F0000007F800
0FF0000007F800
0FF0000003FC00
1FE0000003FC00
1FE0000003FC00
1FE0000001FE00
3FC0000001FE00
3FC0000001FF00
3F80000000FF00
7F80000000FF00
7F80000000FF80
7F000000007F80
FF000000007F80
FF000000003FC0
ENDCHAR
STARTCHAR 00C1
ENCODING 193
SWIDTH 655 0
DWIDTH 51 0
BBX 50 72 1 1
BITMAP
00000006000000
0000000F000000
0000001F800000
0000001FC00000
0000003FC00000
0000007F800000
000000FF000000
000001FE000000
000003FC000000
000003F8000000
000007F0000000
00000FE0000000
000007C0000000
00000380000000
00000100000000
00000000000000
00000000000000
00000000000000
000007F0000000
000007F8000000
00000FF8000000
00000FFC000000
00001FFC000000
00001FFE000000
00003FFE000000
00003FFF000000
00007FFF000000
00007F7F800000
00007F7F800000
0000FE3F800000
0000FE3FC00000
0001FC1FC00000
0001FC1FE00000
0003FC0FE00000
0003F80FF00000
0003F80FF00000
0007F007F00000
0007F007F80000
000FF003F80000
000FE003FC0000
000FE003FC0000
001FC001FC0000
001FC001FE0000
003FC001FE0000
003F8000FF0000
003F8000FF0000
007F80007F0000
007F00007F8000
00FF00007F8000
00FE00003FC000
00FE00003FC000
01FE00003FC000
01FFFFFFFFE000
03FFFFFFFFE000
03FFFFFFFFE000
03FFFFFFFFF000
07FFFFFFFFF000
07FFFFFFFFF800
07F0000007F800
0FF0000007F800
0FF0000003FC00
1FE0000003FC00
1FE0000003FC00
1FE0000001FE00
3FC0000001FE00
3FC0000001FF00
3F80000000FF00
7F80000000FF00
7F80000000FF80
7F000000007F80
FF000000007F80
FF000000003FC0
ENDCHAR
STARTCHAR 00C2
ENCODING 194
SWIDTH 655 0
DWIDTH 51 0
BBX 50 72 1 0
BITMAP
00000080000000
000001C0000000
000003E0000000
000007F0000000
000007F8000000
00000FFC000000
00001FFE000000
00003FFF000000
00007F3F800000
0000FE1FC00000
0001FC0FE00000
0003F807E00000
0001F003C00000
0000C001800000
00000000000000
00000000000000
00000000000000
00000000000000
000007F0000000
000007F8000000
00000FF8000000
00000FFC000000
00001FFC000000
00001FFE000000
00003FFE000000
00003FFF000000
00007FFF000000
00007F7F800000
00007F7F800000
0000FE3F800000
0000FE3FC00000
0001FC1FC00000
0001FC1FE00000
0003FC0FE00000
0003F80FF00000
0003F80FF00000
0007F007F00000
0007F007F80000
000FF003F80000
000FE003FC0000
000FE003FC0000
001FC001FC0000
001FC001FE0000
003FC001FE0000
003F8000FF0000
003F8000FF0000
007F80007F0000
007F00007F8000
00FF00007F8000
00FE00003FC000
00FE00003FC000
01FE00003FC000
01FFFFFFFFE000
03FFFFFFFFE000
03FFFFFFFFE000
03FFFFFFFFF000
07FFFFFFFFF000
07FFFFFFFFF800
07F0000007F800
0FF0000007F800
0FF0000003FC00
1FE0000003FC00
1FE0000003FC00
1FE0000001FE00
3FC0000001FE00
3FC0000001FF00
3F80000000FF00
7F80000000FF00
7F80000000FF80
7F000000007F80
FF000000007F80
FF000000003FC0
ENDCHAR
STARTCHAR 00C3
ENCODING 195
SWIDTH 655 0
DWIDTH 51 0
BBX 50 69 1 0
BITMAP
00003C00600000
0000FF80780000
0001FFE0F80000
0003FFFFF80000
0007FFFFF00000
0007FFFFE00000
000FC1FFC00000
0007807F800000
00010006000000
00000000000000
00000000000000
00000000000000
00000000000000
00000000000000
00000000000000
000007F0000000
000007F8000000
00000FF8000000
00000FFC000000
00001FFC000000
00001FFE000000
00003FFE000000
00003FFF000000
00007FFF000000
00007F7F800000
00007F7F800000
0000FE3F800000
0000FE3FC00000
0001FC1FC00000
0001FC1FE00000
0003FC0FE00000
0003F80FF00000
0003F80FF00000
0007F007F00000
0007F007F80000
000FF003F80000
000FE003FC0000
000FE003FC0000
001FC001FC0000
001FC001FE0000
003FC001FE0000
003F8000FF0000
003F8000FF0000
007F80007F0000
007F00007F8000
00FF00007F8000
00FE00003FC000
00FE00003FC000
01FE00003FC000
01FFFFFFFFE000
03FFFFFFFFE000
03FFFFFFFFE000
03FFFFFFFFF000
07FFFFFFFFF000
07FFFFFFFFF800
07F0000007F800
0FF0000007F800
0FF0000003FC00
1FE0000003FC00
1FE0000003FC00
1FE0000001FE00
3FC0000001FE00
3FC0000001FF00
3F80000000FF00
7F80000000FF00
7F80000000FF80
7F000000007F80
FF000000007F80
FF000000003FC0
ENDCHAR
STARTCHAR 00C4
ENCODING 196
SWIDTH 655 0
DWIDTH 51 0
BBX 50 69 1 0
BITMAP
0001F003E00000
0003F807F00000
0007FC0FF00000
0007FC0FF80000
0007FC0FF80000
0007FC0FF80000
0007F80FF00000
0003F807E00000
0001E003C00000
00000000000000
00000000000000
00000000000000
00000000000000
00000000000000
00000000000000
000007F0000000
000007F8000000
00000FF8000000
00000FFC000000
00001FFC000000
00001FFE000000
00003FFE000000
00003FFF000000
00007FFF000000
00007F7F800000
00007F7F800000
0000FE3F800000
0000FE3FC00000
0001FC1FC00000
0001FC1FE00000
0003FC0FE00000
0003F80FF00000
0003F80FF00000
0007F007F00000
0007F007F80000
000FF003F80000
000FE003FC0000
000FE003FC0000
001FC001FC0000
001FC001FE0000
003FC001FE0000
003F8000FF0000
003F8000FF0000
007F80007F0000
007F00007F8000
00FF00007F8000
00FE00003FC000
00FE00003FC000
01FE00003FC000
01FFFFFFFFE000
03FFFFFFFFE000
03FFFFFFFFE000
03FFFFFFFFF000
07FFFFFFFFF000
07FFFFFFFFF800
07F0000007F800
0FF0000007F800
0FF0000003FC00
1FE0000003FC00
1FE0000003FC00
1FE0000001FE00
3FC0000001FE00
3FC0000001FF00
3F80000000FF00
7F80000000FF00
7F80000000FF80
7F000000007F80
FF000000007F80
FF000000003FC0
ENDCHAR
STARTCHAR 00C5
ENCODING 197
SWIDTH 655 0
DWIDTH 51 0
BBX 50 65 1 0
BITMAP
000007F0000000
00000FFC000000
00003FFE000000
00003F7F000000
00007C0F000000
0000780F000000
00007807800000
00007807800000
00007807800000
0000780F000000
0000780F000000
00003E1F000000
00003FFE000000
00001FFC000000
00000FFC000000
00001FFC000000
00001FFE000000
00003FFE000000
00003FFF000000
00007FFF000000
00007F7F000000
00007F7F800000
0000FE3F800000
0000FE3FC00000
0001FC1FC00000
0001FC1FE00000
0003FC0FE00000
0003F80FF00000
0003F80FF00000
0007F007F00000
0007F007F80000
000FF003F80000
000FE003FC0000
001FE003FC0000
001FC001FC0000
001FC001FE0000
003FC001FE0000
003F8000FF0000
003F8000FF0000
007F80007F0000
007F00007F8000
00FF00007F8000
00FE00003FC000
00FE00003FC000
01FE00003FC000
01FFFFFFFFE000
03FFFFFFFFE000
03FFFFFFFFE000
03FFFFFFFFF000
07FFFFFFFFF000
07FFFFFFFFF800
07F0000007F800
0FF0000007F800
0FF0000003FC00
1FE0000003FC00
1FE0000003FC00
1FC0000001FE00
3FC0000001FE00
3FC0000001FF00
3F80000000FF00
7F80000000FF00
7F80000000FF80
7F000000007F80
FF000000007F80
FF000000003FC0
ENDCHAR
STARTCHAR 00C6
ENCODING 198
SWIDTH 925 0
DWIDTH 72 0
BBX 69 54 1 0
BITMAP
00000000FFFFFFFFE0
00000001FFFFFFFFE0
00000001FFFFFFFFE0
00000003FFFFFFFFE0
00000007FFFFFFFFE0
0000000FFFFFFFFFE0
0000000FFFE0000000
0000001FEFE0000000
0000003FCFE0000000
0000003FCFE0000000
0000007F8FE0000000
000000FF0FE0000000
000000FE0FE0000000
000001FE0FE0000000
000003FC0FE0000000
000003F80FE0000000
000007F80FE0000000
000007F00FE0000000
00000FF00FE0000000
00001FE00FE0000000
00001FC00FE0000000
00003FC00FE0000000
00007F800FE0000000
00007F000FFFFFFF00
0000FF000FFFFFFF00
0000FE000FFFFFFF00
0001FE000FFFFFFF00
0003FC000FFFFFFF00
0003F8000FFFFFFF00
0007F8000FE0000000
0007F0000FE0000000
000FF0000FE0000000
001FE0000FE0000000
001FE0000FE0000000
003FFFFFFFE0000000
003FFFFFFFE0000000
007FFFFFFFE0000000
007FFFFFFFE0000000
00FFFFFFFFE0000000
01FFFFFFFFE0000000
01FE00000FE0000000
03FC00000FE0000000
03FC00000FE0000000
07F800000FE0000000
07F000000FE0000000
0FF000000FE0000000
1FE000000FE0000000
1FE000000FE0000000
3FC000000FFFFFFFF8
3FC000000FFFFFFFF8
7F8000000FFFFFFFF8
7F8000000FFFFFFFF8
FF0000000FFFFFFFF8
FF0000000FFFFFFFF8
ENDCHAR
STARTCHAR 00C7
ENCODING 199
SWIDTH 617 0
DWIDTH 48 0
BBX 41 70 5 -15
BITMAP
00001FFF0000
0000FFFFF000
0003FFFFFE00
000FFFFFFF80
003FFFFFFF80
007FFFFFFF00
00FFFFFFFF00
01FFE0007F00
03FF80000E00
07FF00000200
0FFC00000000
0FF800000000
1FF000000000
1FF000000000
3FE000000000
3FC000000000
7FC000000000
7F8000000000
7F8000000000
FF8000000000
FF0000000000
FF0000000000
FF0000000000
FF0000000000
FF0000000000
FF0000000000
FF0000000000
FF0000000000
FF0000000000
FF0000000000
FF0000000000
FF0000000000
FF0000000000
FF0000000000
FF0000000000
FF0000000000
FF8000000000
7F8000000000
7F8000000000
7FC000000000
3FC000000000
3FE000000000
3FE000000000
1FF000000000
1FF800000000
0FFC00000000
07FE00000000
07FF80000700
03FFE0003F00
01FFFF9FFF00
00FFFFFFFF80
007FFFFFFF80
001FFFFFFF80
0007FFFFFF00
0001FFFFF800
00003FFF8000
00000F800000
00000F800000
00001FC00000
00001FE00000
00001FF00000
000007F80000
000003F80000
000001F80000
000103F80000
0001FFF80000
0001FFF00000
0001FFF00000
0001FFC00000
00001E000000
ENDCHAR
STARTCHAR 00C8
ENCODING 200
SWIDTH 565 0
DWIDTH 44 0
BBX 35 72 7 1
BITMAP
000C000000
001E000000
003F000000
007F800000
007F800000
003FC00000
001FE00000
000FF00000
0007F80000
0003FC0000
0001FC0000
0000FE0000
00007C0000
0000380000
0000100000
0000000000
0000000000
0000000000
FFFFFFFF80
FFFFFFFF80
FFFFFFFF80
FFFFFFFF80
FFFFFFFF80
FFFFFFFF80
FFFFFFFF80
FE00000000
FE00000000
FE00000000
FE00000000
FE00000000
FE00000000
FE00000000
FE00000000
FE00000000
FE00000000
FE00000000
FE00000000
FE00000000
FE00000000
FE00000000
FE00000000
FFFFFFFC00
FFFFFFFC00
FFFFFFFC00
FFFFFFFC00
FFFFFFFC00
FFFFFFFC00
FE00000000
FE00000000
FE00000000
FE00000000
FE00000000
FE00000000
FE00000000
FE00000000
FE00000000
FE00000000
FE00000000
FE00000000
FE00000000
FE00000000
FE00000000
FE00000000
FE00000000
FE00000000
FE00000000
FFFFFFFFE0
FFFFFFFFE0
FFFFFFFFE0
FFFFFFFFE0
FFFFFFFFE0
FFFFFFFFE0
ENDCHAR
STARTCHAR 00C9
ENCODING 201
SWIDTH 565 0
DWIDTH 44 0
BBX 35 72 7 1
BITMAP
0000030000
0000078000
00000FC000
00001FE000
00003FE000
00003FC000
00007F8000
0000FF0000
0001FE0000
0003FC0000
0007F80000
0007F00000
0003E00000
0001C00000
0000800000
0000000000
0000000000
0000000000
FFFFFFFF80
FFFFFFFF80
FFFFFFFF80
FFFFFFFF80
FFFFFFFF80
FFFFFFFF80
FFFFFFFF80
FE00000000
FE00000000
FE00000000
FE00000000
FE00000000
FE00000000
FE00000000
FE00000000
FE00000000
FE00000000
FE00000000
FE00000000
FE00000000
FE00000000
FE00000000
FE00000000
FFFFFFFC00
FFFFFFFC00
FFFFFFFC00
FFFFFFFC00
FFFFFFFC00
FFFFFFFC00
FE00000000
FE00000000
FE00000000
FE00000000
FE00000000
FE00000000
FE00000000
FE00000000
FE00000000
FE00000000
FE00000000
FE00000000
FE00000000
FE00000000
FE00000000
FE00000000
FE00000000
FE00000000
FE00000000
FFFFFFFFE0
FFFFFFFFE0
FFFFFFFFE0
FFFFFFFFE0
FFFFFFFFE0
FFFFFFFFE0
ENDCHAR
STARTCHAR 00CA
ENCODING 202
SWIDTH 565 0
DWIDTH 44 0
BBX 35 72 7 0
BITMAP
0000800000
0001C00000
0003C00000
0007E00000
000FF00000
001FF80000
003FFC0000
007FFE0000
00FE7F0000
01FC3F8000
03F81FC000
03F00FC000
01E007C000
00C0038000
0080000000
0000000000
0000000000
0000000000
FFFFFFFF80
FFFFFFFF80
FFFFFFFF80
FFFFFFFF80
FFFFFFFF80
FFFFFFFF80
FFFFFFFF80
FE00000000
FE00000000
FE00000000
FE00000000
FE00000000
FE00000000
FE00000000
FE00000000
FE00000000
FE00000000
FE00000000
FE00000000
FE00000000
FE00000000
FE00000000
FE00000000
FFFFFFFC00
FFFFFFFC00
FFFFFFFC00
FFFFFFFC00
FFFFFFFC00
FFFFFFFC00
FE00000000
FE00000000
FE00000000
FE00000000
FE00000000
FE00000000
FE00000000
FE00000000
FE00000000
FE00000000
FE00000000
FE00000000
FE00000000
FE00000000
FE00000000
FE00000000
FE00000000
FE00000000
FE00000000
FFFFFFFFE0
FFFFFFFFE0
FFFFFFFFE0
FFFFFFFFE0
FFFFFFFFE0
FFFFFFFFE0
ENDCHAR
STARTCHAR 00CB
ENCODING 203
SWIDTH 565 0
DWIDTH 44 0
BBX 35 69 7 0
BITMAP
03E007C000
07F00FE000
07F81FF000
0FF81FF000
0FF81FF000
0FF81FF000
07F81FF000
07F00FE000
01E007C000
0000000000
0000000000
0000000000
0000000000
0000000000
0000000000
FFFFFFFF80
FFFFFFFF80
FFFFFFFF80
FFFFFFFF80
FFFFFFFF80
FFFFFFFF80
FFFFFFFF80
FE00000000
FE00000000
FE00000000
FE00000000
FE00000000
FE00000000
FE00000000
FE00000000
FE00000000
FE00000000
FE00000000
FE00000000
FE00000000
FE00000000
FE00000000
FE00000000
FFFFFFFC00
FFFFFFFC00
FFFFFFFC00
FFFFFFFC00
FFFFFFFC00
FFFFFFFC00
FE00000000
FE00000000
FE00000000
FE00000000
FE00000000
FE00000000
FE00000000
FE00000000
FE00000000
FE00000000
FE00000000
FE00000000
FE00000000
FE00000000
FE00000000
FE00000000
FE00000000
FE00000000
FE00000000
FFFFFFFFE0
FFFFFFFFE0
FFFFFFFFE0
FFFFFFFFE0
FFFFFFFFE0
FFFFFFFFE0
ENDCHAR
STARTCHAR 00CC
ENCODING 204
SWIDTH 257 0
DWIDTH 20 0
BBX 14 72 2 1
BITMAP
1800
3C00
7C00
FE00
FF00
7F80
3FC0
1FC0
0FE0
07F0
03F8
01FC
00F8
0070
0000
0000
0000
0000
07F0
07F0
07F0
07F0
07F0
07F0
07F0
07F0
07F0
07F0
07F0
07F0
07F0
07F0
07F0
07F0
07F0
07F0
07F0
07F0
07F0
07F0
07F0
07F0
07F0
07F0
07F0
07F0
07F0
07F0
07F0
07F0
07F0
07F0
07F0
07F0
07F0
07F0
07F0
07F0
07F0
07F0
07F0
07F0
07F0
07F0
07F0
07F0
07F0
07F0
07F0
07F0
07F0
07F0
ENDCHAR
STARTCHAR 00CD
ENCODING 205
SWIDTH 257 0
DWIDTH 20 0
BBX 14 72 5 1
BITMAP
0060
0070
00F8
01FC
03FC
07F8
0FF0
0FE0
1FC0
3F80
7F00
FE00
7C00
1800
0000
0000
0000
0000
3F80
3F80
3F80
3F80
3F80
3F80
3F80
3F80
3F80
3F80
3F80
3F80
3F80
3F80
3F80
3F80
3F80
3F80
3F80
3F80
3F80
3F80
3F80
3F80
3F80
3F80
3F80
3F80
3F80
3F80
3F80
3F80
3F80
3F80
3F80
3F80
3F80
3F80
3F80
3F80
3F80
3F80
3F80
3F80
3F80
3F80
3F80
3F80
3F80
3F80
3F80
3F80
3F80
3F80
ENDCHAR
STARTCHAR 00CE
ENCODING 206
SWIDTH 257 0
DWIDTH 20 0
BBX 21 72 0 0
BITMAP
002000
007000
00F800
01FC00
03FE00
07FF00
0FFF80
1FFFC0
3FDFE0
7F8FF0
7E03F0
FC01F8
7800F0
300060
000000
000000
000000
000000
01FC00
01FC00
01FC00
01FC00
01FC00
01FC00
01FC00
01FC00
01FC00
01FC00
01FC00
01FC00
01FC00
01FC00
01FC00
01FC00
01FC00
01FC00
01FC00
01FC00
01FC00
01FC00
01FC00
01FC00
01FC00
01FC00
01FC00
01FC00
01FC00
01FC00
01FC00
01FC00
01FC00
01FC00
01FC00
01FC00
01FC00
01FC00
01FC00
01FC00
01FC00
01FC00
01FC00
01FC00
01FC00
01FC00
01FC00
01FC00
01FC00
01FC00
01FC00
01FC00
01FC00
01FC00
ENDCHAR
STARTCHAR 00CF
ENCODING 207
SWIDTH 257 0
DWIDTH 20 0
BBX 23 69 -1 0
BITMAP
3E00F8
7F01FC
FF01FE
FF83FE
FF83FE
FF03FE
FF01FE
7E00FC
3C0078
000000
000000
000000
000000
000000
000000
00FE00
00FE00
00FE00
00FE00
00FE00
00FE00
00FE00
00FE00
00FE00
00FE00
00FE00
00FE00
00FE00
00FE00
00FE00
00FE00
00FE00
00FE00
00FE00
00FE00
00FE00
00FE00
00FE00
00FE00
00FE00
00FE00
00FE00
00FE00
00FE00
00FE00
00FE00
00FE00
00FE00
00FE00
00FE00
00FE00
00FE00
00FE00
00FE00
00FE00
00FE00
00FE00
00FE00
00FE00
00FE00
00FE00
00FE00
00FE00
00FE00
00FE00
00FE00
00FE00
00FE00
00FE00
ENDCHAR
STARTCHAR 00D0
ENCODING 208
SWIDTH 720 0
DWIDTH 56 0
BBX 51 54 1 0
BITMAP
00FFFFFC000000
01FFFFFFC00000
01FFFFFFF80000
01FFFFFFFE0000
01FFFFFFFF0000
01FFFFFFFFC000
01FC003FFFE000
01FC0001FFF000
01FC00007FF800
01FC00001FFC00
01FC00000FFC00
01FC000007FE00
01FC000003FF00
01FC000001FF00
01FC000000FF80
01FC000000FF80
01FC0000007F80
01FC0000007FC0
01FC0000003FC0
01FC0000003FC0
01FC0000003FC0
01FC0000003FE0
01FC0000001FE0
FFFFFF00001FE0
FFFFFF00001FE0
FFFFFF00001FE0
FFFFFF00001FE0
FFFFFF00001FE0
FFFFFF00001FE0
01FC0000001FE0
01FC0000001FE0
01FC0000001FE0
01FC0000003FE0
01FC0000003FC0
01FC0000003FC0
01FC0000003FC0
01FC0000007FC0
01FC0000007F80
01FC000000FF80
01FC000000FF80
01FC000001FF00
01FC000003FF00
01FC000003FE00
01FC00000FFC00
01FC00001FFC00
01FC00007FF800
01FC0001FFF000
01FC001FFFE000
01FFFFFFFFC000
01FFFFFFFF0000
01FFFFFFFE0000
01FFFFFFF80000
01FFFFFFC00000
00FFFFFE000000
ENDCHAR
STARTCHAR 00D1
ENCODING 209
SWIDTH 720 0
DWIDTH 56 0
BBX 43 69 7 0
BITMAP
0001E0030000
0007F807C000
001FFF0FC000
001FFFFF8000
003FFFFF8000
007FFFFF0000
007C0FFE0000
007803FC0000
001800600000
000000000000
000000000000
000000000000
000000000000
000000000000
000000000000
FC0000000FE0
FE0000000FE0
FF0000000FE0
FF8000000FE0
FFC000000FE0
FFC000000FE0
FFE000000FE0
FFF000000FE0
FFF800000FE0
FFFC00000FE0
FFFE00000FE0
FFFE00000FE0
FEFF00000FE0
FEFF80000FE0
FE7FC0000FE0
FE3FC0000FE0
FE1FE0000FE0
FE0FF0000FE0
FE0FF8000FE0
FE07F8000FE0
FE03FC000FE0
FE01FE000FE0
FE01FF000FE0
FE00FF000FE0
FE007F800FE0
FE003FC00FE0
FE003FE00FE0
FE001FE00FE0
FE000FF00FE0
FE0007F80FE0
FE0007F80FE0
FE0003FC0FE0
FE0001FE0FE0
FE0001FE0FE0
FE0000FF0FE0
FE00007F8FE0
FE00007F8FE0
FE00003FCFE0
FE00001FEFE0
FE00001FEFE0
FE00000FFFE0
FE000007FFE0
FE000007FFE0
FE000003FFE0
FE000001FFE0
FE000001FFE0
FE000000FFE0
FE0000007FE0
FE0000007FE0
FE0000003FE0
FE0000003FE0
FE0000001FE0
FE0000000FE0
FE0000000FE0
ENDCHAR
STARTCHAR 00D2
ENCODING 210
SWIDTH 771 0
DWIDTH 60 0
BBX 51 73 5 0
BITMAP
00000800000000
00001C00000000
00003E00000000
00007F00000000
0000FF80000000
00007FC0000000
00003FC0000000
00001FE0000000
00000FF0000000
000007F8000000
000003FC000000
000000FE000000
00000078000000
00000030000000
00000000000000
00000000000000
00000000000000
00001FFE000000
0000FFFFE00000
0007FFFFF80000
000FFFFFFE0000
003FFFFFFF0000
007FFFFFFFC000
00FFFFBFFFE000
01FFE001FFF000
03FF80003FF800
07FE00001FFC00
0FFC00000FFC00
0FF8000007FE00
1FF0000003FE00
1FE0000001FF00
3FE0000000FF00
3FC0000000FF80
7FC00000007F80
7F800000007FC0
7F800000003FC0
FF800000003FC0
FF000000003FC0
FF000000003FC0
FF000000001FE0
FF000000001FE0
FF000000001FE0
FF000000001FE0
FE000000001FE0
FE000000001FE0
FE000000001FE0
FE000000001FE0
FF000000001FE0
FF000000001FE0
FF000000001FE0
FF000000001FE0
FF000000003FE0
FF000000003FC0
FF800000003FC0
7F800000003FC0
7F800000007FC0
7FC00000007F80
3FC0000000FF80
3FE0000000FF00
1FE0000001FF00
1FF0000003FE00
0FF8000003FE00
0FFC00000FFC00
07FE00001FFC00
03FF80003FF800
01FFE000FFF000
00FFFFBFFFE000
007FFFFFFFC000
003FFFFFFF8000
001FFFFFFE0000
0007FFFFF80000
0000FFFFE00000
00001FFF000000
ENDCHAR
STARTCHAR 00D3
ENCODING 211
SWIDTH 771 0
DWIDTH 60 0
BBX 51 73 5 0
BITMAP
00000006000000
0000000F000000
0000001F800000
0000001FC00000
0000003FC00000
0000007F800000
000000FF000000
000001FE000000
000001FC000000
000003F8000000
000007F0000000
00000FE0000000
000007C0000000
00000380000000
00000100000000
00000000000000
00000000000000
00001FFE000000
0000FFFFE00000
0007FFFFF80000
000FFFFFFE0000
003FFFFFFF0000
007FFFFFFFC000
00FFFFBFFFE000
01FFE001FFF000
03FF80003FF800
07FE00001FFC00
0FFC00000FFC00
0FF8000007FE00
1FF0000003FE00
1FE0000001FF00
3FE0000000FF00
3FC0000000FF80
7FC00000007F80
7F800000007FC0
7F800000003FC0
FF800000003FC0
FF000000003FC0
FF000000003FC0
FF000000001FE0
FF000000001FE0
FF000000001FE0
FF000000001FE0
FE000000001FE0
FE000000001FE0
FE000000001FE0
FE000000001FE0
FF000000001FE0
FF000000001FE0
FF000000001FE0
FF000000001FE0
FF000000003FE0
FF000000003FC0
FF800000003FC0
7F800000003FC0
7F800000007FC0
7FC00000007F80
3FC0000000FF80
3FE0000000FF00
1FE0000001FF00
1FF0000003FE00
0FF8000003FE00
0FFC00000FFC00
07FE00001FFC00
03FF80003FF800
01FFE000FFF000
00FFFFBFFFE000
007FFFFFFFC000
003FFFFFFF8000
001FFFFFFE0000
0007FFFFF80000
0000FFFFE00000
00001FFF000000
ENDCHAR
STARTCHAR 00D4
ENCODING 212
SWIDTH 771 0
DWIDTH 60 0
BBX 51 73 5 -1
BITMAP
00000040000000
000000E0000000
000001F0000000
000003F8000000
000007FC000000
00000FFC000000
00001FFE000000
00003FFF000000
00007F3F800000
0000FE1FC00000
0001FC0FE00000
0001F807F00000
0000F003E00000
00006000C00000
00000000000000
00000000000000
00000000000000
00001FFE000000
0000FFFFE00000
0007FFFFF80000
000FFFFFFE0000
003FFFFFFF0000
007FFFFFFFC000
00FFFFBFFFE000
01FFE001FFF000
03FF80003FF800
07FE00001FFC00
0FFC00000FFC00
0FF8000007FE00
1FF0000003FE00
1FE0000001FF00
3FE0000000FF00
3FC0000000FF80
7FC00000007F80
7F800000007FC0
7F800000003FC0
FF800000003FC0
FF000000003FC0
FF000000003FC0
FF000000001FE0
FF000000001FE0
FF000000001FE0
FF000000001FE0
FE000000001FE0
FE000000001FE0
FE000000001FE0
FE000000001FE0
FF000000001FE0
FF000000001FE0
FF000000001FE0
FF000000001FE0
FF000000003FE0
FF000000003FC0
FF800000003FC0
7F800000003FC0
7F800000007FC0
7FC00000007F80
3FC0000000FF80
3FE0000000FF00
1FE0000001FF00
1FF0000003FE00
0FF8000003FE00
0FFC00000FFC00
07FE00001FFC00
03FF80003FF800
01FFE000FFF000
00FFFFBFFFE000
007FFFFFFFC000
003FFFFFFF8000
001FFFFFFE0000
0007FFFFF80000
0000FFFFE00000
00001FFF000000
ENDCHAR
STARTCHAR 00D5
ENCODING 213
SWIDTH 771 0
DWIDTH 60 0
BBX 51 70 5 -1
BITMAP
00001E00300000
00007F807C0000
0001FFF0FC0000
0003FFFFF80000
0003FFFFF80000
0007FFFFF00000
0007C0FFE00000
0007803FC00000
00018006000000
00000000000000
00000000000000
00000000000000
00000000000000
00000000000000
00001FFE000000
0000FFFFE00000
0007FFFFF80000
000FFFFFFE0000
003FFFFFFF0000
007FFFFFFFC000
00FFFFBFFFE000
01FFE001FFF000
03FF80003FF800
07FE00001FFC00
0FFC00000FFC00
0FF8000007FE00
1FF0000003FE00
1FE0000001FF00
3FE0000000FF00
3FC0000000FF80
7FC00000007F80
7F800000007FC0
7F800000003FC0
FF800000003FC0
FF000000003FC0
FF000000003FC0
FF000000001FE0
FF000000001FE0
FF000000001FE0
FF000000001FE0
FE000000001FE0
FE000000001FE0
FE000000001FE0
FE000000001FE0
FF000000001FE0
FF000000001FE0
FF000000001FE0
FF000000001FE0
FF000000003FE0
FF000000003FC0
FF800000003FC0
7F800000003FC0
7F800000007FC0
7FC00000007F80
3FC0000000FF80
3FE0000000FF00
1FE0000001FF00
1FF0000003FE00
0FF8000003FE00
0FFC00000FFC00
07FE00001FFC00
03FF80003FF800
01FFE000FFF000
00FFFFBFFFE000
007FFFFFFFC000
003FFFFFFF8000
001FFFFFFE0000
0007FFFFF80000
0000FFFFE00000
00001FFF000000
ENDCHAR
STARTCHAR 00D6
ENCODING 214
SWIDTH 771 0
DWIDTH 60 0
BBX 51 70 5 -1
BITMAP
0001F003E00000
0003F807F00000
0003FC0FF80000
0007FC0FF80000
0007FC0FF80000
0007FC0FF80000
0003FC07F80000
0001F807F00000
0000F001E00000
00000000000000
00000000000000
00000000000000
00000000000000
00000000000000
00001FFE000000
0000FFFFE00000
0007FFFFF80000
000FFFFFFE0000
003FFFFFFF0000
007FFFFFFFC000
00FFFFBFFFE000
01FFE001FFF000
03FF80003FF800
07FE00001FFC00
0FFC00000FFC00
0FF8000007FE00
1FF0000003FE00
1FE0000001FF00
3FE0000000FF00
3FC0000000FF80
7FC00000007F80
7F800000007FC0
7F800000003FC0
FF800000003FC0
FF000000003FC0
FF000000003FC0
FF000000001FE0
FF000000001FE0
FF000000001FE0
FF000000001FE0
FE000000001FE0
FE000000001FE0
FE000000001FE0
FE000000001FE0
FF000000001FE0
FF000000001FE0
FF000000001FE0
FF000000001FE0
FF000000003FE0
FF000000003FC0
FF800000003FC0
7F800000003FC0
7F800000007FC0
7FC00000007F80
3FC0000000FF80
3FE0000000FF00
1FE0000001FF00
1FF0000003FE00
0FF8000003FE00
0FFC00000FFC00
07FE00001FFC00
03FF80003FF800
01FFE000FFF000
00FFFFBFFFE000
007FFFFFFFC000
003FFFFFFF8000
001FFFFFFE0000
0007FFFFF80000
0000FFFFE00000
00001FFF000000
ENDCHAR
STARTCHAR 00D7
ENCODING 215
SWIDTH 552 0
DWIDTH 43 0
BBX 32 31 6 8
BITMAP
08000010
1C000038
3E00007C
7F0000FE
FF8001FF
7FC003FE
3FE007FC
1FF00FF8
0FF81FF0
07FC3FE0
03FE7FC0
01FFFF80
00FFFF00
007FFE00
003FFC00
001FF800
001FF800
003FFC00
007FFE00
00FFFF00
01FFFF80
03FE7FC0
07FC3FE0
0FF81FF0
1FF00FF8
3FE007FC
7FC003FE
7F8001FE
3F0000FC
1E000078
0C000030
ENDCHAR
STARTCHAR 00D8
ENCODING 216
SWIDTH 771 0
DWIDTH 60 0
BBX 51 59 5 -3
BITMAP
00000000000800
00000000000C00
00001FFF001F00
0000FFFFE03F80
0007FFFFF87F80
000FFFFFFE7F00
003FFFFFFFFE00
007FFFFFFFFE00
00FFFFBFFFFC00
01FFE001FFF800
03FF80003FF800
07FE00001FF800
0FFC00001FFC00
0FF800003FFE00
1FF000003FFE00
1FE000007FFF00
3FE00000FFFF00
3FC00001FEFF80
7FC00001FC7F80
7F800003F87FC0
7F800007F83FC0
FF80000FF03FC0
FF00001FE03FC0
FF00001FC03FC0
FF00003F801FE0
FF00007F801FE0
FF0000FF001FE0
FF0000FE001FE0
FE0001FC001FE0
FE0003FC001FE0
FE0007F8001FE0
FE000FF0001FE0
FE000FE0001FE0
FF001FE0001FE0
FF003FC0001FE0
FF007F80001FE0
FF007F00003FE0
FF00FE00003FC0
FF01FE00003FC0
7F83FC00003FC0
7F83F800007FC0
7FC7F000007F80
3FCFF00000FF80
3FFFE00000FF00
1FFFC00001FF00
1FFF800003FE00
0FFF000003FE00
0FFF00000FFC00
07FE00001FFC00
03FF80003FF800
03FFE000FFF000
07FFFF3FFFE000
0FFFFFFFFFC000
1FFFFFFFFF8000
1FCFFFFFFE0000
3FC7FFFFF80000
3F80FFFFE00000
1F001FFF000000
0E000000000000
ENDCHAR
STARTCHAR 00D9
ENCODING 217
SWIDTH 681 0
DWIDTH 53 0
BBX 41 73 6 0
BITMAP
000180000000
0003C0000000
0007E0000000
000FE0000000
000FF0000000
0007F8000000
0003FC000000
0001FE000000
0000FF000000
00007F000000
00003F800000
00001FC00000
00000F800000
000007000000
000002000000
000000000000
000000000000
000000000000
FF0000003F80
FF0000003F80
FF0000003F80
FF0000003F80
FF0000003F80
FF0000003F80
FF0000003F80
FF0000003F80
FF0000003F80
FF0000003F80
FF0000003F80
FF0000003F80
FF0000003F80
FF0000003F80
FF0000003F80
FF0000003F80
FF0000003F80
FF0000003F80
FF0000003F80
FF0000003F80
FF0000003F80
FF0000003F80
FF0000003F80
FF0000003F80
FF0000003F80
FF0000003F80
FF0000003F80
FF0000003F80
FF0000003F80
FF0000003F80
FF0000003F80
FF0000003F80
FF0000003F80
FF0000003F80
FF0000003F80
FF0000003F80
FF0000007F80
FF0000007F80
7F0000007F80
7F8000007F80
7F8000007F80
7F800000FF00
3FC00000FF00
3FC00001FF00
3FE00003FE00
1FF00007FE00
1FF8000FFC00
0FFE003FF800
07FFFFFFF800
03FFFFFFF000
01FFFFFFE000
00FFFFFFC000
007FFFFF0000
001FFFFC0000
0003FFE00000
ENDCHAR
STARTCHAR 00DA
ENCODING 218
SWIDTH 681 0
DWIDTH 53 0
BBX 41 74 6 -1
BITMAP
000000400000
000000600000
000000F00000
000001F80000
000003FC0000
000007FC0000
00000FF80000
00000FF00000
00001FE00000
00003FC00000
00007F800000
0000FF000000
0000FE000000
00007C000000
000038000000
000000000000
000000000000
000000000000
000000000000
FF0000003F80
FF0000003F80
FF0000003F80
FF0000003F80
FF0000003F80
FF0000003F80
FF0000003F80
FF0000003F80
FF0000003F80
FF0000003F80
FF0000003F80
FF0000003F80
FF0000003F80
FF0000003F80
FF0000003F80
FF0000003F80
FF0000003F80
FF0000003F80
FF0000003F80
FF0000003F80
FF0000003F80
FF0000003F80
FF0000003F80
FF0000003F80
FF0000003F80
FF0000003F80
FF0000003F80
FF0000003F80
FF0000003F80
FF0000003F80
FF0000003F80
FF0000003F80
FF0000003F80
FF0000003F80
FF0000003F80
FF0000003F80
FF0000007F80
FF0000007F80
7F0000007F80
7F8000007F80
7F8000007F80
7F800000FF00
3FC00000FF00
3FC00001FF00
3FE00003FE00
1FF00007FE00
1FF8000FFC00
0FFE003FF800
07FFFFFFF800
03FFFFFFF000
01FFFFFFE000
00FFFFFFC000
007FFFFF0000
001FFFFC0000
0003FFE00000
ENDCHAR
STARTCHAR 00DB
ENCODING 219
SWIDTH 681 0
DWIDTH 53 0
BBX 41 73 6 -1
BITMAP
000008000000
00001C000000
00003E000000
00007F000000
00007F800000
0000FFC00000
0001FFE00000
0003FFF00000
0007F3F80000
000FE1FC0000
001FC0FE0000
003F807E0000
001F003C0000
000C00180000
000000000000
000000000000
000000000000
000000000000
FF0000003F80
FF0000003F80
FF0000003F80
FF0000003F80
FF0000003F80
FF0000003F80
FF0000003F80
FF0000003F80
FF0000003F80
FF0000003F80
FF0000003F80
FF0000003F80
FF0000003F80
FF0000003F80
FF0000003F80
FF0000003F80
FF0000003F80
FF0000003F80
FF0000003F80
FF0000003F80
FF0000003F80
FF0000003F80
FF0000003F80
FF0000003F80
FF0000003F80
FF0000003F80
FF0000003F80
FF0000003F80
FF0000003F80
FF0000003F80
FF0000003F80
FF0000003F80
FF0000003F80
FF0000003F80
FF0000003F80
FF0000003F80
FF0000007F80
FF0000007F80
7F0000007F80
7F8000007F80
7F8000007F80
7F800000FF00
3FC00000FF00
3FC00001FF00
3FE00003FE00
1FF00007FE00
1FF8000FFC00
0FFE003FF800
07FFFFFFF800
03FFFFFFF000
01FFFFFFE000
00FFFFFFC000
007FFFFF0000
001FFFFC0000
0003FFE00000
ENDCHAR
STARTCHAR 00DC
ENCODING 220
SWIDTH 681 0
DWIDTH 53 0
BBX 41 70 6 -1
BITMAP
001F003E0000
003F807F0000
007FC0FF0000
007FC0FF8000
007FC0FF8000
007FC0FF8000
007F80FF0000
003F807E0000
001E003C0000
000000000000
000000000000
000000000000
000000000000
000000000000
000000000000
FF0000003F80
FF0000003F80
FF0000003F80
FF0000003F80
FF0000003F80
FF0000003F80
FF0000003F80
FF0000003F80
FF0000003F80
FF0000003F80
FF0000003F80
FF0000003F80
FF0000003F80
FF0000003F80
FF0000003F80
FF0000003F80
FF0000003F80
FF0000003F80
FF0000003F80
FF0000003F80
FF0000003F80
FF0000003F80
FF0000003F80
FF0000003F80
FF0000003F80
FF0000003F80
FF0000003F80
FF0000003F80
FF0000003F80
FF0000003F80
FF0000003F80
FF0000003F80
FF0000003F80
FF0000003F80
FF0000003F80
FF0000003F80
FF0000007F80
FF0000007F80
7F0000007F80
7F8000007F80
7F8000007F80
7F800000FF00
3FC00000FF00
3FC00001FF00
3FE00003FE00
1FF00007FE00
1FF8000FFC00
0FFE003FF800
07FFFFFFF800
03FFFFFFF000
01FFFFFFE000
00FFFFFFC000
007FFFFF0000
001FFFFC0000
0003FFE00000
ENDCHAR
STARTCHAR 00DD
ENCODING 221
SWIDTH 591 0
DWIDTH 46 0
BBX 45 72 1 1
BITMAP
000000300000
000000780000
0000007C0000
000000FE0000
000001FE0000
000003FC0000
000007F80000
00000FF00000
00000FE00000
00001FC00000
00003F800000
00007F000000
00003E000000
00001C000000
000008000000
000000000000
000000000000
000000000000
FF8000000FF8
FF8000000FF0
7F8000001FF0
7FC000001FE0
3FC000003FE0
3FE000003FC0
1FE000007F80
0FF000007F80
0FF00000FF00
07F80000FF00
07FC0001FE00
03FC0001FE00
03FE0003FC00
01FE0003FC00
00FF0007F800
00FF0007F000
007F800FF000
007F801FE000
003FC01FE000
003FE03FC000
001FE03F8000
000FF07F8000
000FF0FF0000
0007F8FF0000
0003FDFE0000
0003FDFC0000
0001FFFC0000
0001FFF80000
0000FFF00000
00007FF00000
00007FE00000
00003FE00000
00001FC00000
00001FC00000
00001FC00000
00001FC00000
00001FC00000
00001FC00000
00001FC00000
00001FC00000
00001FC00000
00001FC00000
00001FC00000
00001FC00000
00001FC00000
00001FC00000
00001FC00000
00001FC00000
00001FC00000
00001FC00000
00001FC00000
00001FC00000
00001FC00000
00001FC00000
ENDCHAR
STARTCHAR 00DE
ENCODING 222
SWIDTH 604 0
DWIDTH 47 0
BBX 38 54 7 0
BITMAP
FE00000000
FE00000000
FE00000000
FE00000000
FE00000000
FE00000000
FE00000000
FE00000000
FE00000000
FFFFFE0000
FFFFFFE000
FFFFFFF800
FFFFFFFE00
FFFFFFFF00
FFFFFFFF80
FE003FFFC0
FE0001FFE0
FE00007FF0
FE00001FF0
FE00000FF8
FE00000FF8
FE000007F8
FE000007F8
FE000007F8
FE000003F8
FE000003FC
FE000003FC
FE000003FC
FE000007F8
FE000007F8
FE000007F8
FE00000FF8
FE00000FF0
FE00001FF0
FE00007FE0
FE0001FFE0
FE003FFFC0
FFFFFFFF80
FFFFFFFF00
FFFFFFFC00
FFFFFFF000
FFFFFFC000
FFFFF00000
FE00000000
FE00000000
FE00000000
FE00000000
FE00000000
FE00000000
FE00000000
FE00000000
FE00000000
FE00000000
FE00000000
ENDCHAR
STARTCHAR 00DF
ENCODING 223
SWIDTH 617 0
DWIDTH 48 0
BBX 39 61 6 -1
BITMAP
001FFF0000
00FFFFC000
01FFFFF000
07FFFFF800
0FFFFFFC00
0FFFFFFE00
1FF807FF00
3FE001FF00
3FC000FF00
7F80007F00
7F80007F80
7F00007F80
7F00007F80
FF00007F80
FF00007F00
FF00007F00
FE0000FF00
FE0000FE00
FE0001FE00
FE0003FC00
FE0007F800
FE000FF000
FE001FE000
FE003FE000
FE003FC000
FE007F8000
FE00FF0000
FE00FE0000
FE00FE0000
FE01FE0000
FE01FE0000
FE00FF0000
FE00FF8000
FE00FFC000
FE007FF000
FE007FFC00
FE001FFF00
FE000FFFC0
FE0003FFE0
FE0000FFF0
FE00003FF8
FE00000FFC
FE000007FC
FE000003FE
FE000001FE
FE000001FE
FE000000FE
FE000000FE
FE000000FE
FE000000FE
FE000000FE
FE000001FE
FE000001FE
FE018003FC
FE03F81FFC
FE03FFFFF8
FE03FFFFF8
FE03FFFFF0
FE03FFFFC0
FE01FFFF00
00001FF800
ENDCHAR
STARTCHAR 00E0
ENCODING 224
SWIDTH 514 0
DWIDTH 40 0
BBX 32 61 3 -1
BITMAP
000C0000
001C0000
003E0000
007F0000
00FF8000
007FC000
003FE000
001FE000
0007F000
0003F800
0001FC00
0000FE00
00007C00
00003800
00001000
00000000
00000000
00000000
00000000
01FFFE00
07FFFF80
07FFFFE0
07FFFFF0
07FFFFF8
07FFFFFC
07000FFC
000003FE
000001FE
000001FE
000000FE
000000FF
000000FF
0000007F
0000007F
0000007F
0000E07F
007FFFFF
01FFFFFF
07FFFFFF
0FFFFFFF
1FFFFFFF
3FFC03FF
3FE0007F
7FC0007F
7F80007F
7F00007F
FF00007F
FF00007F
FF00007F
FF00007F
7F00007F
7F00007F
7F80007F
7FE0007F
3FFC01FF
3FFFFFFF
1FFFFFFF
0FFFFFFF
03FFFFFF
00FFFFFE
001FFE00
ENDCHAR
STARTCHAR 00E1
ENCODING 225
SWIDTH 514 0
DWIDTH 40 0
BBX 32 61 3 -1
BITMAP
00000600
00000700
00000F80
00001FC0
00003FE0
00007FC0
0000FF80
0000FF00
0001FC00
0003F800
0007F000
000FE000
0007C000
00038000
00010000
00000000
00000000
00000000
00000000
01FFFE00
07FFFF80
07FFFFE0
07FFFFF0
07FFFFF8
07FFFFFC
07000FFC
000003FE
000001FE
000001FE
000000FE
000000FF
000000FF
0000007F
0000007F
0000007F
0000E07F
007FFFFF
01FFFFFF
07FFFFFF
0FFFFFFF
1FFFFFFF
3FFC03FF
3FE0007F
7FC0007F
7F80007F
7F00007F
FF00007F
FF00007F
FF00007F
FF00007F
7F00007F
7F00007F
7F80007F
7FE0007F
3FFC01FF
3FFFFFFF
1FFFFFFF
0FFFFFFF
03FFFFFF
00FFFFFE
001FFE00
ENDCHAR
STARTCHAR 00E2
ENCODING 226
SWIDTH 514 0
DWIDTH 40 0
BBX 32 61 3 -1
BITMAP
00004000
0000E000
0001F000
0003F800
0007FC00
000FFE00
001FFE00
003FFF00
003FBF80
007F1FC0
00FE0FE0
01F807F0
00F001E0
006000C0
00000000
00000000
00000000
00000000
00000000
01FFFE00
07FFFF80
07FFFFE0
07FFFFF0
07FFFFF8
07FFFFFC
07000FFC
000003FE
000001FE
000001FE
000000FE
000000FF
000000FF
0000007F
0000007F
0000007F
0000E07F
007FFFFF
01FFFFFF
07FFFFFF
0FFFFFFF
1FFFFFFF
3FFC03FF
3FE0007F
7FC0007F
7F80007F
7F00007F
FF00007F
FF00007F
FF00007F
FF00007F
7F00007F
7F00007F
7F80007F
7FE0007F
3FFC01FF
3FFFFFFF
1FFFFFFF
0FFFFFFF
03FFFFFF
00FFFFFE
001FFE00
ENDCHAR
STARTCHAR 00E3
ENCODING 227
SWIDTH 514 0
DWIDTH 40 0
BBX 32 58 3 -1
BITMAP
001E0030
007F807C
00FFE0FC
01FFFFF8
03FFFFF8
07FFFFF0
07E0FFE0
07C03FC0
01800F00
00000000
00000000
00000000
00000000
00000000
00000000
00000000
01FFFE00
07FFFF80
07FFFFE0
07FFFFF0
07FFFFF8
07FFFFFC
07000FFC
000003FE
000001FE
000001FE
000000FE
000000FF
000000FF
0000007F
0000007F
0000007F
0000E07F
007FFFFF
01FFFFFF
07FFFFFF
0FFFFFFF
1FFFFFFF
3FFC03FF
3FE0007F
7FC0007F
7F80007F
7F00007F
FF00007F
FF00007F
FF00007F
FF00007F
7F00007F
7F00007F
7F80007F
7FE0007F
3FFC01FF
3FFFFFFF
1FFFFFFF
0FFFFFFF
03FFFFFF
00FFFFFE
001FFE00
ENDCHAR
STARTCHAR 00E4
ENCODING 228
SWIDTH 514 0
DWIDTH 40 0
BBX 32 58 3 -1
BITMAP
00F001E0
01FC07F0
03FC07F8
03FC0FF8
03FE0FF8
03FC0FF8
03FC07F8
01FC07F0
00F001E0
00000000
00000000
00000000
00000000
00000000
00000000
00000000
01FFFE00
07FFFF80
07FFFFE0
07FFFFF0
07FFFFF8
07FFFFFC
07000FFC
000003FE
000001FE
000001FE
000000FE
000000FF
000000FF
0000007F
0000007F
0000007F
0000E07F
007FFFFF
01FFFFFF
07FFFFFF
0FFFFFFF
1FFFFFFF
3FFC03FF
3FE0007F
7FC0007F
7F80007F
7F00007F
FF00007F
FF00007F
FF00007F
FF00007F
7F00007F
7F00007F
7F80007F
7FE0007F
3FFC01FF
3FFFFFFF
1FFFFFFF
0FFFFFFF
03FFFFFF
00FFFFFE
001FFE00
ENDCHAR
STARTCHAR 00E5
ENCODING 229
SWIDTH 514 0
DWIDTH 40 0
BBX 32 62 3 -1
BITMAP
0000E000
0007FC00
000FFE00
001FFF00
003F1F80
003C0780
003C0780
00780380
00780380
00780780
003C0780
003E0F80
001FBF00
001FFF00
000FFE00
0003F800
00000000
00000000
00000000
00000000
01FFFE00
07FFFF80
07FFFFE0
07FFFFF0
07FFFFF8
07FFFFFC
07000FFC
000003FE
000001FE
000001FE
000000FE
000000FF
000000FF
0000007F
0000007F
0000007F
0000E07F
007FFFFF
01FFFFFF
07FFFFFF
0FFFFFFF
1FFFFFFF
3FFC03FF
3FE0007F
7FC0007F
7F80007F
7F00007F
FF00007F
FF00007F
FF00007F
FF00007F
7F00007F
7F00007F
7F80007F
7FE0007F
3FFC01FF
3FFFFFFF
1FFFFFFF
0FFFFFFF
03FFFFFF
00FFFFFE
001FFE00
ENDCHAR
STARTCHAR 00E6
ENCODING 230
SWIDTH 848 0
DWIDTH 66 0
BBX 60 42 3 -1
BITMAP
01FFFE0007FF8000
07FFFF801FFFE000
07FFFFC07FFFF800
07FFFFE0FFFFFC00
07FFFFF1FFFFFE00
07FFFFFBFFFFFF00
07000FFFFE01FF80
000003FFF800FF80
000001FFF0007FC0
000001FFE0003FC0
000000FFC0001FC0
000000FFC0001FE0
000000FF80001FE0
0000007F80000FE0
0000007F00000FE0
0000007F00000FE0
0001E07F00000FE0
003FFFFFFFFFFFF0
01FFFFFFFFFFFFF0
07FFFFFFFFFFFFF0
0FFFFFFFFFFFFFF0
1FFFFFFFFFFFFFF0
3FFE03FFFFFFFFF0
3FE0007F00000000
7FC0007F00000000
7F80007F00000000
7F00007F00000000
FF00007F80000000
FF00007F80000000
FF00003FC0000000
FF00003FC0000000
7F00003FE0000000
7F80001FF0000000
7F80001FF8000000
7FE0007FFE000700
3FFC07FFFFF9FF00
3FFFFFFFFFFFFF00
1FFFFFFFFFFFFF00
0FFFFFFCFFFFFF80
03FFFFF03FFFFF80
00FFFFC00FFFFE00
000FFC0001FFC000
ENDCHAR
STARTCHAR 00E7
ENCODING 231
SWIDTH 462 0
DWIDTH 36 0
BBX 31 56 4 -15
BITMAP
0007FFE0
001FFFFC
007FFFFC
01FFFFF8
03FFFFF8
07FFFFF8
0FFF0078
0FF80000
1FF00000
1FE00000
3FC00000
3FC00000
7F800000
7F800000
7F000000
FF000000
FF000000
FF000000
FF000000
FF000000
FF000000
FF000000
FF000000
FF000000
FF000000
FF000000
FF000000
7F000000
7F800000
7F800000
3FC00000
3FE00000
1FF00000
1FF80000
0FFE000C
0FFFF3FC
07FFFFFC
03FFFFFC
00FFFFFC
007FFFFE
001FFFF8
0001FF80
0000F000
0001F000
0001F800
0003FC00
0003FE00
0000FF00
00003F00
00003F00
00007F00
003FFF00
003FFE00
003FFE00
003FF800
0003E000
ENDCHAR
STARTCHAR 00E8
ENCODING 232
SWIDTH 552 0
DWIDTH 43 0
BBX 35 61 4 -1
BITMAP
0004000000
000E000000
001F000000
003F800000
007FC00000
003FC00000
001FE00000
000FF00000
0007F80000
0003FC0000
0001FE0000
0000FE0000
00007E0000
0000380000
0000100000
0000000000
0000000000
0000000000
0000000000
0007FF8000
003FFFE000
00FFFFF800
01FFFFFC00
03FFFFFE00
07FFFFFF00
0FFC03FF00
0FF800FF80
1FE0007F80
3FC0003FC0
3FC0003FC0
7F80001FC0
7F80001FE0
7F00001FE0
7F00000FE0
FF00000FE0
FF00000FE0
FFFFFFFFE0
FFFFFFFFE0
FFFFFFFFE0
FFFFFFFFE0
FFFFFFFFE0
FFFFFFFFE0
FF00000000
FF00000000
FF00000000
FF00000000
7F00000000
7F80000000
7F80000000
3FC0000000
3FC0000000
3FE0000000
1FF8000000
0FFE000700
0FFFF1FF00
07FFFFFF00
03FFFFFF00
00FFFFFF00
007FFFFF00
000FFFFC00
0001FFC000
ENDCHAR
STARTCHAR 00E9
ENCODING 233
SWIDTH 552 0
DWIDTH 43 0
BBX 35 61 4 -1
BITMAP
0000030000
0000078000
000007C000
00000FE000
00001FE000
00003FC000
00007F8000
0000FF0000
0000FE0000
0001FC0000
0003F80000
0007F00000
0003E00000
0001C00000
0000800000
0000000000
0000000000
0000000000
0000000000
0007FF8000
003FFFE000
00FFFFF800
01FFFFFC00
03FFFFFE00
07FFFFFF00
0FFC03FF00
0FF800FF80
1FE0007F80
3FC0003FC0
3FC0003FC0
7F80001FC0
7F80001FE0
7F00001FE0
7F00000FE0
FF00000FE0
FF00000FE0
FFFFFFFFE0
FFFFFFFFE0
FFFFFFFFE0
FFFFFFFFE0
FFFFFFFFE0
FFFFFFFFE0
FF00000000
FF00000000
FF00000000
FF00000000
7F00000000
7F80000000
7F80000000
3FC0000000
3FC0000000
3FE0000000
1FF8000000
0FFE000700
0FFFF1FF00
07FFFFFF00
03FFFFFF00
00FFFFFF00
007FFFFF00
000FFFFC00
0001FFC000
ENDCHAR
STARTCHAR 00EA
ENCODING 234
SWIDTH 552 0
DWIDTH 43 0
BBX 35 61 4 -1
BITMAP
0000200000
0000700000
0000F00000
0001F80000
0003FC0000
0007FE0000
000FFF0000
001FFF8000
003FDFC000
007F0FE000
00FE07F000
00FC03F800
007801F000
003000E000
0020000000
0000000000
0000000000
0000000000
0000000000
0007FF8000
003FFFE000
00FFFFF800
01FFFFFC00
03FFFFFE00
07FFFFFF00
0FFC03FF00
0FF800FF80
1FE0007F80
3FC0003FC0
3FC0003FC0
7F80001FC0
7F80001FE0
7F00001FE0
7F00000FE0
FF00000FE0
FF00000FE0
FFFFFFFFE0
FFFFFFFFE0
FFFFFFFFE0
FFFFFFFFE0
FFFFFFFFE0
FFFFFFFFE0
FF00000000
FF00000000
FF00000000
FF00000000
7F00000000
7F80000000
7F80000000
3FC0000000
3FC0000000
3FE0000000
1FF8000000
0FFE000700
0FFFF1FF00
07FFFFFF00
03FFFFFF00
00FFFFFF00
007FFFFF00
000FFFFC00
0001FFC000
ENDCHAR
STARTCHAR 00EB
ENCODING 235
SWIDTH 552 0
DWIDTH 43 0
BBX 35 58 4 -1
BITMAP
007801F000
01FC03F800
01FE03FC00
03FE07FC00
03FE07FC00
03FE07FC00
01FE03FC00
01FC03F800
007801F000
0000000000
0000000000
0000000000
0000000000
0000000000
0000000000
0000000000
0007FF8000
003FFFE000
00FFFFF800
01FFFFFC00
03FFFFFE00
07FFFFFF00
0FFC03FF00
0FF800FF80
1FE0007F80
3FC0003FC0
3FC0003FC0
7F80001FC0
7F80001FE0
7F00001FE0
7F00000FE0
FF00000FE0
FF00000FE0
FFFFFFFFE0
FFFFFFFFE0
FFFFFFFFE0
FFFFFFFFE0
FFFFFFFFE0
FFFFFFFFE0
FF00000000
FF00000000
FF00000000
FF00000000
7F00000000
7F80000000
7F80000000
3FC0000000
3FC0000000
3FE0000000
1FF8000000
0FFE000700
0FFFF1FF00
07FFFFFF00
03FFFFFF00
00FFFFFF00
007FFFFF00
000FFFFC00
0001FFC000
ENDCHAR
STARTCHAR 00EC
ENCODING 236
SWIDTH 244 0
DWIDTH 19 0
BBX 14 60 1 0
BITMAP
1800
3C00
7E00
FE00
FF00
7F80
3FC0
1FE0
0FF0
07F0
03F8
01FC
00F8
0070
0020
0000
0000
0000
0000
0000
07F0
07F0
07F0
07F0
07F0
07F0
07F0
07F0
07F0
07F0
07F0
07F0
07F0
07F0
07F0
07F0
07F0
07F0
07F0
07F0
07F0
07F0
07F0
07F0
07F0
07F0
07F0
07F0
07F0
07F0
07F0
07F0
07F0
07F0
07F0
07F0
07F0
07F0
07F0
07F0
ENDCHAR
STARTCHAR 00ED
ENCODING 237
SWIDTH 244 0
DWIDTH 19 0
BBX 14 60 5 0
BITMAP
0040
00F0
01F8
03FC
03FC
07F8
0FF0
1FE0
3FC0
7F80
7F00
FE00
7C00
3800
1000
0000
0000
0000
0000
0000
7F00
7F00
7F00
7F00
7F00
7F00
7F00
7F00
7F00
7F00
7F00
7F00
7F00
7F00
7F00
7F00
7F00
7F00
7F00
7F00
7F00
7F00
7F00
7F00
7F00
7F00
7F00
7F00
7F00
7F00
7F00
7F00
7F00
7F00
7F00
7F00
7F00
7F00
7F00
7F00
ENDCHAR
STARTCHAR 00EE
ENCODING 238
SWIDTH 244 0
DWIDTH 19 0
BBX 21 59 -1 1
BITMAP
003000
007800
00FC00
01FE00
03FF00
07FF80
0FFFC0
1FCFE0
3F87F0
7F03F8
FE01F8
7C00F0
380070
100020
000000
000000
000000
000000
000000
01FC00
01FC00
01FC00
01FC00
01FC00
01FC00
01FC00
01FC00
01FC00
01FC00
01FC00
01FC00
01FC00
01FC00
01FC00
01FC00
01FC00
01FC00
01FC00
01FC00
01FC00
01FC00
01FC00
01FC00
01FC00
01FC00
01FC00
01FC00
01FC00
01FC00
01FC00
01FC00
01FC00
01FC00
01FC00
01FC00
01FC00
01FC00
01FC00
01FC00
ENDCHAR
STARTCHAR 00EF
ENCODING 239
SWIDTH 244 0
DWIDTH 19 0
BBX 24 57 -2 0
BITMAP
3E0078
7F00FE
FF81FE
FF81FF
FF81FF
FF81FF
FF81FE
7F00FE
3E007C
000000
000000
000000
000000
000000
000000
000000
000000
00FE00
00FE00
00FE00
00FE00
00FE00
00FE00
00FE00
00FE00
00FE00
00FE00
00FE00
00FE00
00FE00
00FE00
00FE00
00FE00
00FE00
00FE00
00FE00
00FE00
00FE00
00FE00
00FE00
00FE00
00FE00
00FE00
00FE00
00FE00
00FE00
00FE00
00FE00
00FE00
00FE00
00FE00
00FE00
00FE00
00FE00
00FE00
00FE00
00FE00
ENDCHAR
STARTCHAR 00F0
ENCODING 240
SWIDTH 578 0
DWIDTH 45 0
BBX 40 61 4 -1
BITMAP
0000180000
00003E0000
00007F0000
0000FF8000
00007FC004
00003FE03E
00001FF1FE
00000FFFFE
000007FFFF
000003FFFC
00001FFFE0
0000FFFF00
0003FFFF00
0003FFFF00
0001FF7F80
0001F83F80
0000C01FC0
0000001FC0
0000000FE0
0000000FE0
0000000FE0
00000007F0
0007FE07F0
003FFFC7F0
00FFFFF7F0
03FFFFFFF8
07FFFFFFF8
0FFFFFFFF8
0FFF03FFF8
1FF8003FF8
3FE0000FF8
3FC00007F8
7FC00003F8
7F800003F8
7F000003F8
FF000003F8
FF000003F8
FF000003F8
FE000003F8
FE000003F8
FE000003F8
FE000003F8
FE000007F8
FF000007F8
FF000007F8
FF000007F0
7F000007F0
7F80000FF0
7F80000FE0
7F80001FE0
3FC0001FE0
3FE0003FC0
1FF0007FC0
0FFC01FF80
0FFF9FFF00
07FFFFFF00
03FFFFFE00
01FFFFFC00
007FFFF000
001FFFC000
0007FE0000
ENDCHAR
STARTCHAR 00F1
ENCODING 241
SWIDTH 565 0
DWIDTH 44 0
BBX 33 57 6 0
BITMAP
003C006000
00FF007800
01FFE1F800
03FFFFF800
07FFFFF000
07FFFFE000
0FC1FFC000
0F807F8000
03000E0000
0000000000
0000000000
0000000000
0000000000
0000000000
0000000000
0000000000
03FFFE0000
7FFFFF8000
FFFFFFE000
FFFFFFF000
FFFFFFF800
FFFFFFFC00
FFC01FFC00
FE0003FE00
FE0001FE00
FE0000FF00
FE0000FF00
FE00007F00
FE00007F00
FE00007F80
FE00007F80
FE00007F80
FE00003F80
FE00003F80
FE00003F80
FE00003F80
FE00003F80
FE00003F80
FE00003F80
FE00003F80
FE00003F80
FE00003F80
FE00003F80
FE00003F80
FE00003F80
FE00003F80
FE00003F80
FE00003F80
FE00003F80
FE00003F80
FE00003F80
FE00003F80
FE00003F80
FE00003F80
FE00003F80
FE00003F80
FE00003F80
ENDCHAR
STARTCHAR 00F2
ENCODING 242
SWIDTH 578 0
DWIDTH 45 0
BBX 38 61 4 -1
BITMAP
0006000000
000F000000
001F800000
003F800000
003FC00000
001FE00000
000FF00000
0007F80000
0003FC0000
0001FC0000
0000FE0000
00007F0000
00003E0000
00001C0000
0000080000
0000000000
0000000000
0000000000
0000000000
0007FF8000
003FFFF000
007FFFF800
01FFFFFE00
03FFFFFF00
07FFFFFF80
0FFE01FFC0
0FF8007FC0
1FF0003FE0
3FE0001FE0
3FC0000FF0
3FC0000FF0
7F800007F8
7F800007F8
7F000003F8
FF000003F8
FF000003FC
FF000003FC
FF000003FC
FF000003FC
FF000003FC
FF000003FC
FF000003FC
FF000003FC
FF000003FC
FF000003FC
7F000003F8
7F000007F8
7F800007F8
7F800007F8
3FC0000FF0
3FC0001FF0
1FE0001FE0
1FF0007FE0
0FFC00FFC0
07FFCFFF80
03FFFFFF00
01FFFFFE00
00FFFFFC00
007FFFF800
001FFFE000
0003FE0000
ENDCHAR
STARTCHAR 00F3
ENCODING 243
SWIDTH 578 0
DWIDTH 45 0
BBX 38 61 4 -1
BITMAP
0000018000
000003C000
000007E000
00000FF000
00000FF000
00001FE000
00003FC000
00007F8000
0000FF0000
0001FE0000
0001FC0000
0003F80000
0001F00000
0000E00000
0000400000
0000000000
0000000000
0000000000
0000000000
0007FF8000
003FFFF000
007FFFF800
01FFFFFE00
03FFFFFF00
07FFFFFF80
0FFE01FFC0
0FF8007FC0
1FF0003FE0
3FE0001FE0
3FC0000FF0
3FC0000FF0
7F800007F8
7F800007F8
7F000003F8
FF000003F8
FF000003FC
FF000003FC
FF000003FC
FF000003FC
FF000003FC
FF000003FC
FF000003FC
FF000003FC
FF000003FC
FF000003FC
7F000003F8
7F000007F8
7F800007F8
7F800007F8
3FC0000FF0
3FC0001FF0
1FE0001FE0
1FF0007FE0
0FFC00FFC0
07FFCFFF80
03FFFFFF00
01FFFFFE00
00FFFFFC00
007FFFF800
001FFFE000
0003FE0000
ENDCHAR
STARTCHAR 00F4
ENCODING 244
SWIDTH 578 0
DWIDTH 45 0
BBX 38 60 4 0
BITMAP
0000300000
0000780000
0000FC0000
0001FE0000
0003FF0000
0007FF8000
000FFFC000
001FCFE000
003F87F000
007F03F800
007E01F800
007C00F000
0038007000
0010002000
0000000000
0000000000
0000000000
0000000000
0007FF8000
003FFFF000
007FFFF800
01FFFFFE00
03FFFFFF00
07FFFFFF80
0FFE01FFC0
0FF8007FC0
1FF0003FE0
3FE0001FE0
3FC0000FF0
3FC0000FF0
7F800007F8
7F800007F8
7F000003F8
FF000003F8
FF000003FC
FF000003FC
FF000003FC
FF000003FC
FF000003FC
FF000003FC
FF000003FC
FF000003FC
FF000003FC
FF000003FC
7F000003F8
7F000007F8
7F800007F8
7F800007F8
3FC0000FF0
3FC0001FF0
1FE0001FE0
1FF0007FE0
0FFC00FFC0
07FFCFFF80
03FFFFFF00
01FFFFFE00
00FFFFFC00
007FFFF800
001FFFE000
0003FE0000
ENDCHAR
STARTCHAR 00F5
ENCODING 245
SWIDTH 578 0
DWIDTH 45 0
BBX 38 58 4 -1
BITMAP
0007000800
001FE01E00
007FF83E00
00FFFFFE00
00FFFFFC00
01FFFFFC00
03F07FF800
01E01FE000
0040038000
0000000000
0000000000
0000000000
0000000000
0000000000
0000000000
0000000000
0007FF8000
003FFFF000
007FFFF800
01FFFFFE00
03FFFFFF00
07FFFFFF80
0FFE01FFC0
0FF8007FC0
1FF0003FE0
3FE0001FE0
3FC0000FF0
3FC0000FF0
7F800007F8
7F800007F8
7F000003F8
FF000003F8
FF000003FC
FF000003FC
FF000003FC
FF000003FC
FF000003FC
FF000003FC
FF000003FC
FF000003FC
FF000003FC
FF000003FC
7F000003F8
7F000007F8
7F800007F8
7F800007F8
3FC0000FF0
3FC0001FF0
1FE0001FE0
1FF0007FE0
0FFC00FFC0
07FFCFFF80
03FFFFFF00
01FFFFFE00
00FFFFFC00
007FFFF800
001FFFE000
0003FE0000
ENDCHAR
STARTCHAR 00F6
ENCODING 246
SWIDTH 578 0
DWIDTH 45 0
BBX 38 58 4 -1
BITMAP
007C00F800
00FE01FC00
01FF03FC00
01FF03FE00
01FF03FE00
01FF03FE00
01FF03FC00
00FE01FC00
007C00F800
0000000000
0000000000
0000000000
0000000000
0000000000
0000000000
0000000000
0007FF8000
003FFFF000
007FFFF800
01FFFFFE00
03FFFFFF00
07FFFFFF80
0FFE01FFC0
0FF8007FC0
1FF0003FE0
3FE0001FE0
3FC0000FF0
3FC0000FF0
7F800007F8
7F800007F8
7F000003F8
FF000003F8
FF000003FC
FF000003FC
FF000003FC
FF000003FC
FF000003FC
FF000003FC
FF000003FC
FF000003FC
FF000003FC
FF000003FC
7F000003F8
7F000007F8
7F800007F8
7F800007F8
3FC0000FF0
3FC0001FF0
1FE0001FE0
1FF0007FE0
0FFC00FFC0
07FFCFFF80
03FFFFFF00
01FFFFFE00
00FFFFFC00
007FFFF800
001FFFE000
0003FE0000
ENDCHAR
STARTCHAR 00F7
ENCODING 247
SWIDTH 552 0
DWIDTH 43 0
BBX 36 40 4 3
BITMAP
0000F00000
0003F80000
0003FC0000
0007FC0000
0007FE0000
0007FE0000
0003FC0000
0003FC0000
0001F80000
0000000000
0000000000
0000000000
0000000000
0000000000
0000000000
0000000000
0000000000
FFFFFFFFF0
FFFFFFFFF0
FFFFFFFFF0
FFFFFFFFF0
FFFFFFFFF0
FFFFFFFFF0
0000000000
0000000000
0000000000
0000000000
0000000000
0000000000
0000000000
0000F00000
0003F80000
0003FC0000
0007FC0000
0007FE0000
0007FE0000
0003FC0000
0003FC0000
0001F80000
0000400000
ENDCHAR
STARTCHAR 00F8
ENCODING 248
SWIDTH 578 0
DWIDTH 45 0
BBX 38 46 4 -3
BITMAP
0000000040
00000000F0
0007FF81F8
003FFFE1F8
007FFFFBF0
01FFFFFFF0
03FFFFFFE0
07FFFFFFC0
0FFE01FF80
0FF8007FC0
1FF0007FE0
3FE000FFE0
3FC000FFF0
3F8001FFF0
7F8003FFF8
7F8007F7F8
7F0007E3F8
FF000FC3F8
FF001FC3FC
FF003F83FC
FF007F03FC
FE007E03FC
FE00FC03FC
FF01FC03FC
FE03F803FC
FF03F003FC
FF07E003FC
FF0FE003FC
7F1FC003F8
7F3F8007F8
7FBF0007F8
7FFF0007F8
3FFE000FF0
3FFC001FF0
1FF8001FE0
1FF0003FE0
0FFC00FFC0
0FFF87FF80
0FFFFFFF00
1FFFFFFE00
3FFFFFFC00
7F7FFFF800
FE1FFFE000
7C03FE0000
1800000000
0800000000
ENDCHAR
STARTCHAR 00F9
ENCODING 249
SWIDTH 565 0
DWIDTH 44 0
BBX 32 61 6 -1
BITMAP
00100000
00380000
007C0000
00FE0000
01FE0000
00FF0000
007F8000
003FC000
001FE000
000FF000
0007F000
0003F800
0001F000
0000E000
00004000
00000000
00000000
00000000
00000000
00000000
FE00007F
FE00007F
FE00007F
FE00007F
FE00007F
FE00007F
FE00007F
FE00007F
FE00007F
FE00007F
FE00007F
FE00007F
FE00007F
FE00007F
FE00007F
FE00007F
FE00007F
FE00007F
FE00007F
FE00007F
FE00007F
FE00007F
FE00007F
FE00007F
FE00007F
FE00007F
FE00007F
FF00007F
FF00007F
7F00007F
7F80007F
7F80007F
3FC0007F
3FF0007F
1FFFFFFF
1FFFFFFF
0FFFFFFF
07FFFFFF
01FFFFFF
007FFFF8
000FFF00
ENDCHAR
STARTCHAR 00FA
ENCODING 250
SWIDTH 565 0
DWIDTH 44 0
BBX 32 61 6 -1
BITMAP
00000C00
00001E00
00003F00
00003F80
00007F80
0000FF00
0001FE00
0003FC00
0007F800
0007F000
000FE000
001FC000
000F8000
00070000
00020000
00000000
00000000
00000000
00000000
00000000
FE00007F
FE00007F
FE00007F
FE00007F
FE00007F
FE00007F
FE00007F
FE00007F
FE00007F
FE00007F
FE00007F
FE00007F
FE00007F
FE00007F
FE00007F
FE00007F
FE00007F
FE00007F
FE00007F
FE00007F
FE00007F
FE00007F
FE00007F
FE00007F
FE00007F
FE00007F
FE00007F
FF00007F
FF00007F
7F00007F
7F80007F
7F80007F
3FC0007F
3FF0007F
1FFFFFFF
1FFFFFFF
0FFFFFFF
07FFFFFF
01FFFFFF
007FFFF8
000FFF00
ENDCHAR
STARTCHAR 00FB
ENCODING 251
SWIDTH 565 0
DWIDTH 44 0
BBX 32 60 6 0
BITMAP
00018000
0003C000
0007E000
000FF000
001FF800
003FFC00
007FFE00
00FE7F00
01FC3F80
03F81FC0
03F00FE0
01E007C0
01C00380
00800100
00000000
00000000
00000000
00000000
00000000
FE00007F
FE00007F
FE00007F
FE00007F
FE00007F
FE00007F
FE00007F
FE00007F
FE00007F
FE00007F
FE00007F
FE00007F
FE00007F
FE00007F
FE00007F
FE00007F
FE00007F
FE00007F
FE00007F
FE00007F
FE00007F
FE00007F
FE00007F
FE00007F
FE00007F
FE00007F
FE00007F
FF00007F
FF00007F
7F00007F
7F80007F
7F80007F
3FC0007F
3FF0007F
1FFFFFFF
1FFFFFFF
0FFFFFFF
07FFFFFF
01FFFFFF
007FFFF8
000FFF00
ENDCHAR
STARTCHAR 00FC
ENCODING 252
SWIDTH 565 0
DWIDTH 44 0
BBX 32 58 6 -1
BITMAP
03E007C0
07F00FE0
07F81FF0
0FF81FF0
0FF81FF0
0FF81FF0
07F81FF0
07F00FE0
03E007C0
00000000
00000000
00000000
00000000
00000000
00000000
00000000
00000000
FE00007F
FE00007F
FE00007F
FE00007F
FE00007F
FE00007F
FE00007F
FE00007F
FE00007F
FE00007F
FE00007F
FE00007F
FE00007F
FE00007F
FE00007F
FE00007F
FE00007F
FE00007F
FE00007F
FE00007F
FE00007F
FE00007F
FE00007F
FE00007F
FE00007F
FE00007F
FE00007F
FF00007F
FF00007F
7F00007F
7F80007F
7F80007F
3FC0007F
3FF0007F
1FFFFFFF
1FFFFFFF
0FFFFFFF
07FFFFFF
01FFFFFF
007FFFF8
000FFF00
ENDCHAR
STARTCHAR 00FD
ENCODING 253
SWIDTH 488 0
DWIDTH 38 0
BBX 37 75 0 -15
BITMAP
000000C000
000001E000
000001F000
000003F800
000007F800
00000FF000
00001FE000
00001FC000
00003F8000
00007F0000
0000FE0000
0001FC0000
0000F80000
0000700000
0000200000
0000000000
0000000000
0000000000
0000000000
0000000000
7F800003F8
3F800007F8
3FC00007F8
3FC00007F0
1FC00007F0
1FE0000FF0
1FE0000FE0
0FE0000FE0
0FF0000FE0
0FF0001FE0
0FF0001FC0
07F0001FC0
07F8001FC0
03F8003FC0
03F8003F80
03FC003F80
01FC003F80
01FC007F00
01FE007F00
00FE007F00
00FF00FE00
007F00FE00
007F00FE00
007F81FC00
003F81FC00
003FC1FC00
001FC3F800
001FC3F800
000FE3F800
000FE7F000
000FF7F000
0007F7F000
0007FFE000
0003FFE000
0003FFC000
0001FFC000
0001FFC000
0000FF8000
0000FF8000
00007F0000
00007F0000
00007F0000
0000FE0000
0000FE0000
0001FC0000
0003FC0000
0007F80000
000FF00000
78FFF00000
7FFFE00000
7FFFC00000
7FFF800000
FFFE000000
FFF8000000
0700000000
ENDCHAR
STARTCHAR 00FE
ENCODING 254
SWIDTH 578 0
DWIDTH 45 0
BBX 36 74 6 -14
BITMAP
3E00000000
FE00000000
FE00000000
FE00000000
FE00000000
FE00000000
FE00000000
FE00000000
FE00000000
FE00000000
FE00000000
FE00000000
FE00000000
FE00000000
FE00000000
FE00000000
FE00000000
FE00000000
FE00000000
FE3FFC0000
FFFFFF8000
FFFFFFE000
FFFFFFF000
FFFFFFF800
FFFFFFFC00
FFE01FFE00
FE0003FF00
FE0001FF80
FE0000FF80
FE00007FC0
FE00003FC0
FE00001FE0
FE00001FE0
FE00001FE0
FE00000FE0
FE00000FF0
FE00000FF0
FE00000FF0
FE00000FF0
FE00000FF0
FE00000FF0
FE00000FF0
FE00000FF0
FE00000FF0
FE00000FF0
FE00000FE0
FE00001FE0
FE00001FE0
FE00001FE0
FE00003FC0
FE00003FC0
FF00007F80
FF8000FF80
FFE003FF00
FFFF7FFF00
FFFFFFFE00
FFFFFFFC00
FFFFFFF800
FEFFFFE000
FE3FFF8000
FE07FC0000
FE00000000
FE00000000
FE00000000
FE00000000
FE00000000
FE00000000
FE00000000
FE00000000
FE00000000
FE00000000
FE00000000
FE00000000
FE00000000
ENDCHAR
STARTCHAR 00FF
ENCODING 255
SWIDTH 488 0
DWIDTH 38 0
BBX 37 72 0 -15
BITMAP
001E007C00
007F00FE00
007F80FF00
00FF81FF00
00FF81FF00
00FF81FF00
007F80FF00
007F00FE00
001E007C00
0000000000
0000000000
0000000000
0000000000
0000000000
0000000000
0000000000
0000000000
7F800003F8
3F800007F8
3FC00007F8
3FC00007F0
1FC00007F0
1FE0000FF0
1FE0000FE0
0FE0000FE0
0FF0000FE0
0FF0001FE0
0FF0001FC0
07F0001FC0
07F8001FC0
03F8003FC0
03F8003F80
03FC003F80
01FC003F80
01FC007F00
01FE007F00
00FE007F00
00FF00FE00
007F00FE00
007F00FE00
007F81FC00
003F81FC00
003FC1FC00
001FC3F800
001FC3F800
000FE3F800
000FE7F000
000FF7F000
0007F7F000
0007FFE000
0003FFE000
0003FFC000
0001FFC000
0001FFC000
0000FF8000
0000FF8000
00007F0000
00007F0000
00007F0000
0000FE0000
0000FE0000
0001FC0000
0003FC0000
0007F80000
000FF00000
78FFF00000
7FFFE00000
7FFFC00000
7FFF800000
FFFE000000
FFF8000000
0700000000
ENDCHAR
STARTCHAR 0100
ENCODING 256
SWIDTH 655 0
DWIDTH 51 0
BBX 50 67 1 0
BITMAP
0003FFFFF00000
0003FFFFF00000
0003FFFFF00000
0003FFFFF00000
0003FFFFF00000
00000000000000
00000000000000
00000000000000
00000000000000
00000000000000
00000000000000
00000000000000
00000000000000
000007F0000000
000007F8000000
00000FF8000000
00000FFC000000
00001FFC000000
00001FFE000000
00003FFE000000
00003FFF000000
00007FFF000000
00007F7F800000
00007F7F800000
0000FE3F800000
0000FE3FC00000
0001FC1FC00000
0001FC1FE00000
0003FC0FE00000
0003F80FF00000
0003F80FF00000
0007F007F00000
0007F007F80000
000FF003F80000
000FE003FC0000
000FE003FC0000
001FC001FC0000
001FC001FE0000
003FC001FE0000
003F8000FF0000
003F8000FF0000
007F80007F0000
007F00007F8000
00FF00007F8000
00FE00003FC000
00FE00003FC000
01FE00003FC000
01FFFFFFFFE000
03FFFFFFFFE000
03FFFFFFFFE000
03FFFFFFFFF000
07FFFFFFFFF000
07FFFFFFFFF800
07F0000007F800
0FF0000007F800
0FF0000003FC00
1FE0000003FC00
1FE0000003FC00
1FE0000001FE00
3FC0000001FE00
3FC0000001FF00
3F80000000FF00
7F80000000FF00
7F80000000FF80
7F000000007F80
FF000000007F80
FF000000003FC0
ENDCHAR
STARTCHAR 0101
ENCODING 257
SWIDTH 514 0
DWIDTH 40 0
BBX 32 56 3 -1
BITMAP
03FFFFF8
03FFFFF8
03FFFFF8
03FFFFF8
03FFFFF8
00000000
00000000
00000000
00000000
00000000
00000000
00000000
00000000
00000000
01FFFE00
07FFFF80
07FFFFE0
07FFFFF0
07FFFFF8
07FFFFFC
07000FFC
000003FE
000001FE
000001FE
000000FE
000000FF
000000FF
0000007F
0000007F
0000007F
0000E07F
007FFFFF
01FFFFFF
07FFFFFF
0FFFFFFF
1FFFFFFF
3FFC03FF
3FE0007F
7FC0007F
7F80007F
7F00007F
FF00007F
FF00007F
FF00007F
FF00007F
7F00007F
7F00007F
7F80007F
7FE0007F
3FFC01FF
3FFFFFFF
1FFFFFFF
0FFFFFFF
03FFFFFF
00FFFFFE
001FFE00
ENDCHAR
STARTCHAR 0102
ENCODING 258
SWIDTH 655 0
DWIDTH 51 0
BBX 50 70 1 0
BITMAP
0003E003E00000
0001F003E00000
0001F003E00000
0001F807E00000
0001FC0FC00000
0000FFFFC00000
0000FFFF800000
00007FFF000000
00003FFE000000
00000FF8000000
00000000000000
00000000000000
00000000000000
00000000000000
00000000000000
00000000000000
000007F0000000
000007F8000000
00000FF8000000
00000FFC000000
00001FFC000000
00001FFE000000
00003FFE000000
00003FFF000000
00007FFF000000
00007F7F800000
00007F7F800000
0000FE3F800000
0000FE3FC00000
0001FC1FC00000
0001FC1FE00000
0003FC0FE00000
0003F80FF00000
0003F80FF00000
0007F007F00000
0007F007F80000
000FF003F80000
000FE003FC0000
000FE003FC0000
001FC001FC0000
001FC001FE0000
003FC001FE0000
003F8000FF0000
003F8000FF0000
007F80007F0000
007F00007F8000
00FF00007F8000
00FE00003FC000
00FE00003FC000
01FE00003FC000
01FFFFFFFFE000
03FFFFFFFFE000
03FFFFFFFFE000
03FFFFFFFFF000
07FFFFFFFFF000
07FFFFFFFFF800
07F0000007F800
0FF0000007F800
0FF0000003FC00
1FE0000003FC00
1FE0000003FC00
1FE0000001FE00
3FC0000001FE00
3FC0000001FF00
3F80000000FF00
7F80000000FF00
7F80000000FF80
7F000000007F80
FF000000007F80
FF000000003FC0
ENDCHAR
STARTCHAR 0103
ENCODING 259
SWIDTH 514 0
DWIDTH 40 0
BBX 32 59 3 -1
BITMAP
01F001F0
01F001F0
01F003F0
01F803E0
00FC07E0
00FFFFE0
007FFFC0
003FFF80
001FFF00
0007FC00
00004000
00000000
00000000
00000000
00000000
00000000
00000000
01FFFE00
07FFFF80
07FFFFE0
07FFFFF0
07FFFFF8
07FFFFFC
07000FFC
000003FE
000001FE
000001FE
000000FE
000000FF
000000FF
0000007F
0000007F
0000007F
0000E07F
007FFFFF
01FFFFFF
07FFFFFF
0FFFFFFF
1FFFFFFF
3FFC03FF
3FE0007F
7FC0007F
7F80007F
7F00007F
FF00007F
FF00007F
FF00007F
FF00007F
7F00007F
7F00007F
7F80007F
7FE0007F
3FFC01FF
3FFFFFFF
1FFFFFFF
0FFFFFFF
03FFFFFF
00FFFFFE
001FFE00
ENDCHAR
STARTCHAR 0104
ENCODING 260
SWIDTH 655 0
DWIDTH 51 0
BBX 50 69 1 -15
BITMAP
000007F0000000
000007F8000000
00000FF8000000
00000FFC000000
00001FFC000000
00001FFE000000
00003FFE000000
00003FFF000000
00007FFF000000
00007F7F800000
00007F7F800000
0000FE3F800000
0000FE3FC00000
0001FC1FC00000
0001FC1FE00000
0003FC0FE00000
0003F80FF00000
0003F80FF00000
0007F007F00000
0007F007F80000
000FF003F80000
000FE003FC0000
000FE003FC0000
001FC001FC0000
001FC001FE0000
003FC001FE0000
003F8000FF0000
003F8000FF0000
007F80007F0000
007F00007F8000
00FF00007F8000
00FE00003FC000
00FE00003FC000
01FE00003FC000
01FFFFFFFFE000
03FFFFFFFFE000
03FFFFFFFFE000
03FFFFFFFFF000
07FFFFFFFFF000
07FFFFFFFFF800
07F0000007F800
0FF0000007F800
0FF0000003FC00
1FE0000003FC00
1FE0000003FC00
1FE0000001FE00
3FC0000001FE00
3FC0000001FF00
3F80000000FF00
7F80000000FF00
7F80000000FF80
7F000000007F80
FF000000007F80
FF000000003FC0
00000000007F80
0000000000FE00
0000000001FC00
0000000001F800
0000000003F000
0000000007F000
0000000007E000
0000000007E000
000000000FF000
0000000007FFC0
0000000007FFC0
0000000007FFC0
0000000003FFC0
0000000001FFC0
00000000001600
ENDCHAR
STARTCHAR 0105
ENCODING 261
SWIDTH 514 0
DWIDTH 40 0
BBX 32 56 3 -15
BITMAP
01FFFE00
07FFFF80
07FFFFE0
07FFFFF0
07FFFFF8
07FFFFFC
07000FFC
000003FE
000001FE
000001FE
000000FE
000000FF
000000FF
0000007F
0000007F
0000007F
0000E07F
007FFFFF
01FFFFFF
07FFFFFF
0FFFFFFF
1FFFFFFF
3FFC03FF
3FE0007F
7FC0007F
7F80007F
7F00007F
FF00007F
FF00007F
FF00007F
FF00007F
7F00007F
7F00007F
7F80007F
7FE0007F
3FFC01FF
3FFFFFFF
1FFFFFFF
0FFFFFFF
03FFFFFF
00FFFFFF
001FFDFC
000003F8
000007F0
00000FE0
00000FC0
00001FC0
00001F80
00003F80
00003F80
00003FFE
00003FFE
00001FFF
00000FFF
000007FF
00000020
ENDCHAR
STARTCHAR 0106
ENCODING 262
SWIDTH 617 0
DWIDTH 48 0
BBX 41 73 5 0
BITMAP
000000180000
0000001C0000
0000003E0000
0000007F0000
000000FF8000
000001FF0000
000003FC0000
000003F80000
000007F00000
00000FE00000
00001FC00000
00003F800000
00001F000000
000006000000
000000000000
000000000000
000000000000
00001FFF0000
0000FFFFF000
0003FFFFFE00
000FFFFFFF80
003FFFFFFF80
007FFFFFFF00
00FFFFFFFF00
01FFE0007F00
03FF80000E00
07FF00000200
0FFC00000000
0FF800000000
1FF000000000
1FF000000000
3FE000000000
3FC000000000
7FC000000000
7F8000000000
7F8000000000
FF8000000000
FF0000000000
FF0000000000
FF0000000000
FF0000000000
FF0000000000
FF0000000000
FF0000000000
FF0000000000
FF0000000000
FF0000000000
FF0000000000
FF0000000000
FF0000000000
FF0000000000
FF0000000000
FF0000000000
FF8000000000
7F8000000000
7F8000000000
7FC000000000
7FC000000000
3FE000000000
3FE000000000
1FF000000000
1FF800000000
0FFC00000000
07FE00000000
07FF80000700
03FFE0003F00
01FFFF9FFF00
00FFFFFFFF80
007FFFFFFF80
001FFFFFFF80
0007FFFFFF00
0001FFFFF800
00003FFF8000
ENDCHAR
STARTCHAR 0107
ENCODING 263
SWIDTH 462 0
DWIDTH 36 0
BBX 31 61 4 -1
BITMAP
00000300
00000380
000007C0
00000FE0
00001FE0
00003FC0
00007F80
00007F00
0000FE00
0001FC00
0003F800
0007F000
0003E000
0001C000
00008000
00000000
00000000
00000000
00000000
0007FFE0
001FFFFC
007FFFFC
01FFFFF8
03FFFFF8
07FFFFF8
0FFF0078
0FF80000
1FF00000
1FE00000
3FC00000
3FC00000
7F800000
7F800000
7F000000
FF000000
FF000000
FF000000
FF000000
FF000000
FF000000
FF000000
FF000000
FF000000
FF000000
FF000000
FF000000
7F000000
7F800000
7F800000
3FC00000
3FE00000
3FF00000
1FF80000
0FFE000C
07FFF3FC
07FFFFFC
03FFFFFC
00FFFFFC
007FFFFE
001FFFF8
0001FF80
ENDCHAR
STARTCHAR 0108
ENCODING 264
SWIDTH 617 0
DWIDTH 48 0
BBX 41 73 5 -1
BITMAP
000001000000
000003800000
000007C00000
00000FE00000
00001FF00000
00003FF80000
00007FFC0000
0000FFFE0000
0001FEFF0000
0001FC7F8000
0003F81FC000
0007E00FC000
0003C0078000
000180030000
000000000000
000000000000
000000000000
00001FFF0000
0000FFFFF000
0003FFFFFE00
000FFFFFFF80
003FFFFFFF80
007FFFFFFF00
00FFFFFFFF00
01FFE0007F00
03FF80000E00
07FF00000200
0FFC00000000
0FF800000000
1FF000000000
1FF000000000
3FE000000000
3FC000000000
7FC000000000
7F8000000000
7F8000000000
FF8000000000
FF0000000000
FF0000000000
FF0000000000
FF0000000000
FF0000000000
FF0000000000
FF0000000000
FF0000000000
FF0000000000
FF0000000000
FF0000000000
FF0000000000
FF0000000000
FF0000000000
FF0000000000
FF0000000000
FF8000000000
7F8000000000
7F8000000000
7FC000000000
7FC000000000
3FE000000000
3FE000000000
1FF000000000
1FF800000000
0FFC00000000
07FE00000000
07FF80000700
03FFE0003F00
01FFFF9FFF00
00FFFFFFFF80
007FFFFFFF80
001FFFFFFF80
0007FFFFFF00
0001FFFFF800
00003FFF8000
ENDCHAR
STARTCHAR 0109
ENCODING 265
SWIDTH 462 0
DWIDTH 36 0
BBX 31 61 4 -1
BITMAP
00002000
00007000
0000F800
0001F800
0003FC00
0007FE00
000FFF00
001FFF80
003FDFC0
007F8FE0
007E07F0
00FC03F8
007801F0
00300060
00000000
00000000
00000000
00000000
00000000
0007FFE0
001FFFFC
007FFFFC
01FFFFF8
03FFFFF8
07FFFFF8
0FFF0078
0FF80000
1FF00000
1FE00000
3FC00000
3FC00000
7F800000
7F800000
7F000000
FF000000
FF000000
FF000000
FF000000
FF000000
FF000000
FF000000
FF000000
FF000000
FF000000
FF000000
FF000000
7F000000
7F800000
7F800000
3FC00000
3FE00000
3FF00000
1FF80000
0FFE000C
07FFF3FC
07FFFFFC
03FFFFFC
00FFFFFC
007FFFFE
001FFFF8
0001FF80
ENDCHAR
STARTCHAR 010A
ENCODING 266
SWIDTH 617 0
DWIDTH 48 0
BBX 41 70 5 -1
BITMAP
000007C00000
00000FE00000
00001FF00000
00001FF00000
00001FF00000
00001FF00000
00001FF00000
00000FE00000
000007C00000
000000000000
000000000000
000000000000
000000000000
000000000000
00001FFF0000
0000FFFFF000
0003FFFFFE00
000FFFFFFF80
003FFFFFFF80
007FFFFFFF00
00FFFFFFFF00
01FFE0007F00
03FF80000E00
07FF00000200
0FFC00000000
0FF800000000
1FF000000000
1FF000000000
3FE000000000
3FC000000000
7FC000000000
7F8000000000
7F8000000000
FF8000000000
FF0000000000
FF0000000000
FF0000000000
FF0000000000
FF0000000000
FF0000000000
FF0000000000
FF0000000000
FF0000000000
FF0000000000
FF0000000000
FF0000000000
FF0000000000
FF0000000000
FF0000000000
FF0000000000
FF8000000000
7F8000000000
7F8000000000
7FC000000000
7FC000000000
3FE000000000
3FE000000000
1FF000000000
1FF800000000
0FFC00000000
07FE00000000
07FF80000700
03FFE0003F00
01FFFF9FFF00
00FFFFFFFF80
007FFFFFFF80
001FFFFFFF80
0007FFFFFF00
0001FFFFF800
00003FFF8000
ENDCHAR
STARTCHAR 010B
ENCODING 267
SWIDTH 462 0
DWIDTH 36 0
BBX 31 58 4 -1
BITMAP
0000F800
0001FC00
0003FE00
0003FE00
0003FE00
0003FE00
0003FE00
0001FC00
0000F800
00000000
00000000
00000000
00000000
00000000
00000000
00000000
0007FFE0
001FFFFC
007FFFFC
01FFFFF8
03FFFFF8
07FFFFF8
0FFF0078
0FF80000
1FF00000
1FE00000
3FC00000
3FC00000
7F800000
7F800000
7F000000
FF000000
FF000000
FF000000
FF000000
FF000000
FF000000
FF000000
FF000000
FF000000
FF000000
FF000000
FF000000
7F000000
7F800000
7F800000
3FC00000
3FE00000
3FF00000
1FF80000
0FFE000C
07FFF3FC
07FFFFFC
03FFFFFC
00FFFFFC
007FFFFE
001FFFF8
0001FF80
ENDCHAR
STARTCHAR 010C
ENCODING 268
SWIDTH 617 0
DWIDTH 48 0
BBX 41 73 5 -1
BITMAP
000180030000
0003C0078000
0003E00FC000
0007F01FC000
0003F83F8000
0001FC7F0000
0000FEFE0000
00007FFC0000
00003FF80000
00001FF00000
00000FE00000
000007C00000
000003800000
000001000000
000000000000
000000000000
000000000000
00001FFF0000
0000FFFFF000
0003FFFFFE00
000FFFFFFF80
003FFFFFFF80
007FFFFFFF00
00FFFFFFFF00
01FFE0007F00
03FF80000E00
07FF00000200
0FFC00000000
0FF800000000
1FF000000000
1FF000000000
3FE000000000
3FC000000000
7FC000000000
7F8000000000
7F8000000000
FF8000000000
FF0000000000
FF0000000000
FF0000000000
FF0000000000
FF0000000000
FF0000000000
FF0000000000
FF0000000000
FF0000000000
FF0000000000
FF0000000000
FF0000000000
FF0000000000
FF0000000000
FF0000000000
FF0000000000
FF8000000000
7F8000000000
7F8000000000
7FC000000000
7FC000000000
3FE000000000
3FE000000000
1FF000000000
1FF800000000
0FFC00000000
07FE00000000
07FF80000700
03FFE0003F00
01FFFF9FFF00
00FFFFFFFF80
007FFFFFFF80
001FFFFFFF80
0007FFFFFF00
0001FFFFF800
00003FFF8000
ENDCHAR
STARTCHAR 010D
ENCODING 269
SWIDTH 462 0
DWIDTH 36 0
BBX 31 61 4 -1
BITMAP
00200040
007800E0
00FC01F0
00FE03F8
007F07F0
003F8FE0
001FDFC0
000FFF80
0007FF00
0003FE00
0001FC00
0000F800
0000F000
00006000
00000000
00000000
00000000
00000000
00000000
0007FFE0
001FFFFC
007FFFFC
01FFFFF8
03FFFFF8
07FFFFF8
0FFF0078
0FF80000
1FF00000
1FE00000
3FC00000
3FC00000
7F800000
7F800000
7F000000
FF000000
FF000000
FF000000
FF000000
FF000000
FF000000
FF000000
FF000000
FF000000
FF000000
FF000000
FF000000
7F000000
7F800000
7F800000
3FC00000
3FE00000
3FF00000
1FF80000
0FFE000C
07FFF3FC
07FFFFFC
03FFFFFC
00FFFFFC
007FFFFE
001FFFF8
0001FF80
ENDCHAR
STARTCHAR 010E
ENCODING 270
SWIDTH 707 0
DWIDTH 55 0
BBX 44 72 7 0
BITMAP
001000600000
003800F00000
007C01F80000
00FE03F80000
007F07F00000
003FCFE00000
001FFFC00000
000FFF800000
0007FF000000
0003FE000000
0001FC000000
0000F8000000
000070000000
000030000000
000000000000
000000000000
000000000000
000000000000
7FFFFE000000
FFFFFFE00000
FFFFFFFC0000
FFFFFFFF0000
FFFFFFFF8000
FFFFFFFFE000
FE001FFFF000
FE0000FFF800
FE00003FFC00
FE00000FFE00
FE000007FE00
FE000003FF00
FE000001FF80
FE000000FF80
FE0000007FC0
FE0000007FC0
FE0000003FC0
FE0000003FE0
FE0000001FE0
FE0000001FE0
FE0000001FE0
FE0000001FF0
FE0000000FF0
FE0000000FF0
FE0000000FF0
FE0000000FF0
FE0000000FF0
FE0000000FF0
FE0000000FF0
FE0000000FF0
FE0000000FF0
FE0000000FF0
FE0000001FF0
FE0000001FE0
FE0000001FE0
FE0000001FE0
FE0000003FE0
FE0000003FC0
FE0000007FC0
FE0000007FC0
FE000000FF80
FE000001FF80
FE000003FF00
FE000007FE00
FE00000FFE00
FE00003FFC00
FE0000FFF800
FE000FFFF000
FFFFFFFFE000
FFFFFFFF8000
FFFFFFFF0000
FFFFFFFC0000
FFFFFFE00000
7FFFFF000000
ENDCHAR
STARTCHAR 010F
ENCODING 271
SWIDTH 617 0
DWIDTH 48 0
BBX 48 61 4 -1
BITMAP
00000001F07F
0000000FF07F
0000000FF07F
0000000FF07F
0000000FF07E
0000000FF07E
0000000FF07E
0000000FF07E
0000000FF07E
0000000FF07E
0000000FF07E
0000000FF07E
0000000FF07C
0000000FF07C
0000000FF07C
0000000FF07C
0000000FF07C
0000000FF000
0000000FF000
000FFF0FF000
003FFFEFF000
00FFFFFFF000
01FFFFFFF000
03FFFFFFF000
07FFFFFFF000
0FFE01FFF000
1FF8003FF000
1FF0001FF000
3FE0000FF000
3FC0000FF000
7F80000FF000
7F80000FF000
7F80000FF000
7F00000FF000
FF00000FF000
FF00000FF000
FF00000FF000
FF00000FF000
FF00000FF000
FF00000FF000
FF00000FF000
FF00000FF000
FF00000FF000
FF00000FF000
FF00000FF000
7F00000FF000
7F80000FF000
7F80000FF000
7F80000FF000
3FC0000FF000
3FE0000FF000
1FF0000FF000
1FF8000FF000
0FFE000FF000
07FFF7FFF000
03FFFFFFF000
01FFFFFFF000
00FFFFFFF000
003FFFFFF000
000FFFFF8000
0001FFF00000
ENDCHAR
STARTCHAR 0110
ENCODING 272
SWIDTH 720 0
DWIDTH 56 0
BBX 51 54 1 0
BITMAP
00FFFFFC000000
01FFFFFFC00000
01FFFFFFF80000
01FFFFFFFE0000
01FFFFFFFF0000
01FFFFFFFFC000
01FC003FFFE000
01FC0001FFF000
01FC00007FF800
01FC00001FFC00
01FC00000FFC00
01FC000007FE00
01FC000003FF00
01FC000001FF00
01FC000000FF80
01FC000000FF80
01FC0000007F80
01FC0000007FC0
01FC0000003FC0
01FC0000003FC0
01FC0000003FC0
01FC0000003FE0
01FC0000001FE0
FFFFFF00001FE0
FFFFFF00001FE0
FFFFFF00001FE0
FFFFFF00001FE0
FFFFFF00001FE0
FFFFFF00001FE0
01FC0000001FE0
01FC0000001FE0
01FC0000001FE0
01FC0000003FE0
01FC0000003FC0
01FC0000003FC0
01FC0000003FC0
01FC0000007FC0
01FC0000007F80
01FC000000FF80
01FC000000FF80
01FC000001FF00
01FC000003FF00
01FC000003FE00
01FC00000FFC00
01FC00001FFC00
01FC00007FF800
01FC0001FFF000
01FC001FFFE000
01FFFFFFFFC000
01FFFFFFFF0000
01FFFFFFFE0000
01FFFFFFF80000
01FFFFFFC00000
00FFFFFE000000
ENDCHAR
STARTCHAR 0111
ENCODING 273
SWIDTH 578 0
DWIDTH 45 0
BBX 41 61 4 -1
BITMAP
00000001F000
0000000FF000
0000000FF000
0000000FF000
0000000FF000
0000000FF000
0000000FF000
0001FFFFFF80
0001FFFFFF80
0001FFFFFF80
0001FFFFFF80
0001FFFFFF80
0000000FF000
0000000FF000
0000000FF000
0000000FF000
0000000FF000
0000000FF000
0000000FF000
0007FE0FF000
003FFFCFF000
00FFFFFFF000
01FFFFFFF000
03FFFFFFF000
07FFFFFFF000
0FFF87FFF000
1FFC007FF000
1FF0001FF000
3FE0000FF000
3FC0000FF000
7F80000FF000
7F80000FF000
7F80000FF000
7F00000FF000
FF00000FF000
FF00000FF000
FF00000FF000
FF00000FF000
FF00000FF000
FF00000FF000
FF00000FF000
FF00000FF000
FF00000FF000
FF00000FF000
FF00000FF000
FF00000FF000
7F80000FF000
7F80000FF000
7F80000FF000
3FC0000FF000
3FE0000FF000
1FF0000FF000
1FF8000FF000
0FFE000FF000
07FFF7FFF000
03FFFFFFF000
01FFFFFFF000
00FFFFFFF000
003FFFFFF000
000FFFFF8000
0001FFF00000
ENDCHAR
STARTCHAR 0112
ENCODING 274
SWIDTH 565 0
DWIDTH 44 0
BBX 35 67 7 0
BITMAP
07FFFFE000
07FFFFE000
07FFFFE000
07FFFFE000
07FFFFE000
0000000000
0000000000
0000000000
0000000000
0000000000
0000000000
0000000000
0000000000
FFFFFFFF80
FFFFFFFF80
FFFFFFFF80
FFFFFFFF80
FFFFFFFF80
FFFFFFFF80
FFFFFFFF80
FE00000000
FE00000000
FE00000000
FE00000000
FE00000000
FE00000000
FE00000000
FE00000000
FE00000000
FE00000000
FE00000000
FE00000000
FE00000000
FE00000000
FE00000000
FE00000000
FFFFFFFC00
FFFFFFFC00
FFFFFFFC00
FFFFFFFC00
FFFFFFFC00
FFFFFFFC00
FE00000000
FE00000000
FE00000000
FE00000000
FE00000000
FE00000000
FE00000000
FE00000000
FE00000000
FE00000000
FE00000000
FE00000000
FE00000000
FE00000000
FE00000000
FE00000000
FE00000000
FE00000000
FE00000000
FFFFFFFFE0
FFFFFFFFE0
FFFFFFFFE0
FFFFFFFFE0
FFFFFFFFE0
FFFFFFFFE0
ENDCHAR
STARTCHAR 0113
ENCODING 275
SWIDTH 552 0
DWIDTH 43 0
BBX 35 56 4 -1
BITMAP
01FFFFF800
01FFFFF800
01FFFFF800
01FFFFF800
01FFFFF800
0000000000
0000000000
0000000000
0000000000
0000000000
0000000000
0000000000
0000000000
0000000000
0007FF8000
003FFFE000
00FFFFF800
01FFFFFC00
03FFFFFE00
07FFFFFF00
0FFC03FF00
0FF800FF80
1FE0007F80
3FC0003FC0
3FC0003FC0
7F80001FC0
7F80001FE0
7F00001FE0
7F00000FE0
FF00000FE0
FF00000FE0
FFFFFFFFE0
FFFFFFFFE0
FFFFFFFFE0
FFFFFFFFE0
FFFFFFFFE0
FFFFFFFFE0
FF00000000
FF00000000
FF00000000
FF00000000
7F00000000
7F80000000
7F80000000
3FC0000000
3FC0000000
3FE0000000
1FF8000000
0FFE000700
0FFFF1FF00
07FFFFFF00
03FFFFFF00
00FFFFFF00
007FFFFF00
000FFFFC00
0001FFC000
ENDCHAR
STARTCHAR 0114
ENCODING 276
SWIDTH 565 0
DWIDTH 44 0
BBX 35 70 7 0
BITMAP
07C007C000
07C007C000
07C00FC000
07E00F8000
03F03F8000
03FFFF0000
01FFFF0000
00FFFE0000
007FFC0000
001FF00000
0000000000
0000000000
0000000000
0000000000
0000000000
0000000000
FFFFFFFF80
FFFFFFFF80
FFFFFFFF80
FFFFFFFF80
FFFFFFFF80
FFFFFFFF80
FFFFFFFF80
FE00000000
FE00000000
FE00000000
FE00000000
FE00000000
FE00000000
FE00000000
FE00000000
FE00000000
FE00000000
FE00000000
FE00000000
FE00000000
FE00000000
FE00000000
FE00000000
FFFFFFFC00
FFFFFFFC00
FFFFFFFC00
FFFFFFFC00
FFFFFFFC00
FFFFFFFC00
FE00000000
FE00000000
FE00000000
FE00000000
FE00000000
FE00000000
FE00000000
FE00000000
FE00000000
FE00000000
FE00000000
FE00000000
FE00000000
FE00000000
FE00000000
FE00000000
FE00000000
FE00000000
FE00000000
FFFFFFFFE0
FFFFFFFFE0
FFFFFFFFE0
FFFFFFFFE0
FFFFFFFFE0
FFFFFFFFE0
ENDCHAR
STARTCHAR 0115
ENCODING 277
SWIDTH 552 0
DWIDTH 43 0
BBX 35 59 4 -1
BITMAP
00F001F000
00F801F000
00F801F000
00FC03F000
00FE07F000
007FFFE000
007FFFC000
003FFFC000
001FFF0000
0007FE0000
0000C00000
0000000000
0000000000
0000000000
0000000000
0000000000
0000000000
0007FF8000
003FFFE000
00FFFFF800
01FFFFFC00
03FFFFFE00
07FFFFFF00
0FFC03FF00
0FF800FF80
1FE0007F80
3FC0003FC0
3FC0003FC0
7F80001FC0
7F80001FE0
7F00001FE0
7F00000FE0
FF00000FE0
FF00000FE0
FFFFFFFFE0
FFFFFFFFE0
FFFFFFFFE0
FFFFFFFFE0
FFFFFFFFE0
FFFFFFFFE0
FF00000000
FF00000000
FF00000000
FF00000000
7F00000000
7F80000000
7F80000000
3FC0000000
3FC0000000
3FE0000000
1FF8000000
0FFE000700
0FFFF1FF00
07FFFFFF00
03FFFFFF00
00FFFFFF00
007FFFFF00
000FFFFC00
0001FFC000
ENDCHAR
STARTCHAR 0116
ENCODING 278
SWIDTH 565 0
DWIDTH 44 0
BBX 35 69 7 0
BITMAP
0007E00000
000FF00000
000FF00000
001FF80000
001FF80000
000FF80000
000FF00000
000FF00000
0003C00000
0000000000
0000000000
0000000000
0000000000
0000000000
0000000000
FFFFFFFF80
FFFFFFFF80
FFFFFFFF80
FFFFFFFF80
FFFFFFFF80
FFFFFFFF80
FFFFFFFF80
FE00000000
FE00000000
FE00000000
FE00000000
FE00000000
FE00000000
FE00000000
FE00000000
FE00000000
FE00000000
FE00000000
FE00000000
FE00000000
FE00000000
FE00000000
FE00000000
FFFFFFFC00
FFFFFFFC00
FFFFFFFC00
FFFFFFFC00
FFFFFFFC00
FFFFFFFC00
FE00000000
FE00000000
FE00000000
FE00000000
FE00000000
FE00000000
FE00000000
FE00000000
FE00000000
FE00000000
FE00000000
FE00000000
FE00000000
FE00000000
FE00000000
FE00000000
FE00000000
FE00000000
FE00000000
FFFFFFFFE0
FFFFFFFFE0
FFFFFFFFE0
FFFFFFFFE0
FFFFFFFFE0
FFFFFFFFE0
ENDCHAR
STARTCHAR 0117
ENCODING 279
SWIDTH 552 0
DWIDTH 43 0
BBX 35 58 4 -1
BITMAP
0000F80000
0003FC0000
0003FE0000
0003FE0000
0003FE0000
0003FE0000
0003FE0000
0003FC0000
0000F80000
0000000000
0000000000
0000000000
0000000000
0000000000
0000000000
0000000000
0007FF8000
003FFFE000
00FFFFF800
01FFFFFC00
03FFFFFE00
07FFFFFF00
0FFC03FF00
0FF800FF80
1FE0007F80
3FC0003FC0
3FC0003FC0
7F80001FC0
7F80001FE0
7F00001FE0
7F00000FE0
FF00000FE0
FF00000FE0
FFFFFFFFE0
FFFFFFFFE0
FFFFFFFFE0
FFFFFFFFE0
FFFFFFFFE0
FFFFFFFFE0
FF00000000
FF00000000
FF00000000
FF00000000
7F00000000
7F80000000
7F80000000
3FC0000000
3FC0000000
3FE0000000
1FF8000000
0FFE000700
0FFFF1FF00
07FFFFFF00
03FFFFFF00
00FFFFFF00
007FFFFF00
000FFFFC00
0001FFC000
ENDCHAR
STARTCHAR 0118
ENCODING 280
SWIDTH 565 0
DWIDTH 44 0
BBX 35 69 7 -15
BITMAP
FFFFFFFF80
FFFFFFFF80
FFFFFFFF80
FFFFFFFF80
FFFFFFFF80
FFFFFFFF80
FFFFFFFF80
FE00000000
FE00000000
FE00000000
FE00000000
FE00000000
FE00000000
FE00000000
FE00000000
FE00000000
FE00000000
FE00000000
FE00000000
FE00000000
FE00000000
FE00000000
FE00000000
FFFFFFFC00
FFFFFFFC00
FFFFFFFC00
FFFFFFFC00
FFFFFFFC00
FFFFFFFC00
FE00000000
FE00000000
FE00000000
FE00000000
FE00000000
FE00000000
FE00000000
FE00000000
FE00000000
FE00000000
FE00000000
FE00000000
FE00000000
FE00000000
FE00000000
FE00000000
FE00000000
FE00000000
FE00000000
FFFFFFFFE0
FFFFFFFFE0
FFFFFFFFE0
FFFFFFFFE0
FFFFFFFFE0
FFFFFFFFE0
0000003F80
0000007F00
000000FE00
000001FC00
000001F800
000003F000
000007F000
000007F000
000007F000
000007FFC0
000007FFC0
000003FFE0
000001FFE0
000000FFE0
0000000400
ENDCHAR
STARTCHAR 0119
ENCODING 281
SWIDTH 552 0
DWIDTH 43 0
BBX 35 56 4 -15
BITMAP
0007FF8000
003FFFE000
00FFFFF800
01FFFFFC00
03FFFFFE00
07FFFFFF00
0FFC03FF00
0FF800FF80
1FE0007F80
3FC0003FC0
3FC0003FC0
7F80001FC0
7F80001FE0
7F00001FE0
7F00000FE0
FF00000FE0
FF00000FE0
FFFFFFFFE0
FFFFFFFFE0
FFFFFFFFE0
FFFFFFFFE0
FFFFFFFFE0
FFFFFFFFE0
FF00000000
FF00000000
FF00000000
FF00000000
7F00000000
7F80000000
7F80000000
3FC0000000
3FC0000000
3FE0000000
1FF8000000
0FFE000700
0FFFF1FF00
07FFFFFF00
03FFFFFF00
00FFFFFF00
007FFFFF00
000FFFFE00
0001FFFC00
000003F800
000007F000
00000FE000
00001FC000
00001F8000
00003F8000
00003F8000
00003F8000
00003FFE00
00003FFE00
00001FFE00
00001FFE00
000007FF00
0000002000
ENDCHAR
STARTCHAR 011A
ENCODING 282
SWIDTH 565 0
DWIDTH 44 0
BBX 35 72 7 0
BITMAP
0180030000
03C0078000
07E00F8000
07F01FC000
03F83F8000
01FC7F0000
00FFFE0000
007FFC0000
003FF80000
001FF00000
000FE00000
0007C00000
0003800000
0001000000
0000000000
0000000000
0000000000
0000000000
FFFFFFFF80
FFFFFFFF80
FFFFFFFF80
FFFFFFFF80
FFFFFFFF80
FFFFFFFF80
FFFFFFFF80
FE00000000
FE00000000
FE00000000
FE00000000
FE00000000
FE00000000
FE00000000
FE00000000
FE00000000
FE00000000
FE00000000
FE00000000
FE00000000
FE00000000
FE00000000
FE00000000
FFFFFFFC00
FFFFFFFC00
FFFFFFFC00
FFFFFFFC00
FFFFFFFC00
FFFFFFFC00
FE00000000
FE00000000
FE00000000
FE00000000
FE00000000
FE00000000
FE00000000
FE00000000
FE00000000
FE00000000
FE00000000
FE00000000
FE00000000
FE00000000
FE00000000
FE00000000
FE00000000
FE00000000
FE00000000
FFFFFFFFE0
FFFFFFFFE0
FFFFFFFFE0
FFFFFFFFE0
FFFFFFFFE0
FFFFFFFFE0
ENDCHAR
STARTCHAR 011B
ENCODING 283
SWIDTH 552 0
DWIDTH 43 0
BBX 35 61 4 -1
BITMAP
0020004000
007800E000
00FC01F000
00FE03F800
007F07F000
003F8FE000
001FFFC000
000FFF8000
0007FF0000
0003FE0000
0003FC0000
0001F80000
0000F00000
0000600000
0000000000
0000000000
0000000000
0000000000
0000000000
0007FF8000
003FFFE000
00FFFFF800
01FFFFFC00
03FFFFFE00
07FFFFFF00
0FFC03FF00
0FF800FF80
1FE0007F80
3FC0003FC0
3FC0003FC0
7F80001FC0
7F80001FE0
7F00001FE0
7F00000FE0
FF00000FE0
FF00000FE0
FFFFFFFFE0
FFFFFFFFE0
FFFFFFFFE0
FFFFFFFFE0
FFFFFFFFE0
FFFFFFFFE0
FF00000000
FF00000000
FF00000000
FF00000000
7F00000000
7F80000000
7F80000000
3FC0000000
3FC0000000
3FE0000000
1FF8000000
0FFE000700
0FFFF1FF00
07FFFFFF00
03FFFFFF00
00FFFFFF00
007FFFFF00
000FFFFC00
0001FFC000
ENDCHAR
STARTCHAR 011C
ENCODING 284
SWIDTH 668 0
DWIDTH 52 0
BBX 42 73 5 -1
BITMAP
000000800000
000001C00000
000003E00000
000007E00000
00000FF00000
00001FF80000
00003FFC0000
00007FFE0000
0000FE7F0000
0001FC3F8000
0003F81FC000
0003F00FC000
0001E007C000
0000C0018000
000000000000
000000000000
000000000000
00001FFF8000
0000FFFFF800
0003FFFFFF00
000FFFFFFFC0
003FFFFFFF80
007FFFFFFF80
00FFFFBFFF80
01FFF0003F00
03FF80000700
07FF00000100
0FFC00000000
0FF800000000
1FF000000000
1FF000000000
3FE000000000
3FC000000000
7FC000000000
7F8000000000
7F8000000000
FF8000000000
FF0000000000
FF0000000000
FF0000000000
FF0000000000
FF0000000000
FF0000000000
FF0000000000
FF0000000000
FF0000001FC0
FF0000001FC0
FF0000001FC0
FF0000001FC0
FF0000001FC0
FF0000001FC0
FF0000001FC0
FF0000001FC0
FF8000001FC0
7F8000001FC0
7F8000001FC0
7FC000001FC0
3FC000001FC0
3FE000001FC0
3FE000001FC0
1FF000001FC0
1FF800001FC0
0FFC00001FC0
07FE00001FC0
07FF80001FC0
03FFE0001FC0
01FFFF9FFFC0
00FFFFFFFFC0
003FFFFFFFC0
001FFFFFFFC0
0007FFFFFFC0
0001FFFFFE00
00001FFF8000
ENDCHAR
STARTCHAR 011D
ENCODING 285
SWIDTH 565 0
DWIDTH 44 0
BBX 35 75 4 -15
BITMAP
0000100000
0000380000
00007C0000
0000FE0000
0001FF0000
0003FF8000
0003FFC000
0007FFE000
000FEFE000
001FC7F000
003F83F800
007F00FC00
003C007800
0018003000
0000000000
0000000000
0000000000
0000000000
0000000000
0007FFF800
001FFFFFC0
007FFFFFE0
01FFFFFFE0
03FFFFFFE0
07FFFFFFE0
0FFF007FE0
1FFC001FE0
1FF0001FE0
3FE0001FE0
3FC0001FE0
7FC0001FE0
7F80001FE0
7F80001FE0
FF00001FE0
FF00001FE0
FF00001FE0
FF00001FE0
FF00001FE0
FF00001FE0
FF00001FE0
FF00001FE0
FF00001FE0
FF00001FE0
FF00001FE0
FF00001FE0
7F80001FE0
7F80001FE0
7FC0001FE0
3FC0001FE0
3FE0001FE0
1FF0003FE0
1FFC00FFE0
0FFFFFFFE0
07FFFFFFE0
03FFFFFFE0
01FFFFFFE0
007FFFEFE0
001FFF0FE0
0000800FE0
0000001FE0
0000001FE0
0000001FC0
0000001FC0
0000003FC0
0000003FC0
0000007F80
100000FF80
1F0003FF00
1FFFFFFF00
1FFFFFFE00
1FFFFFFC00
3FFFFFF000
3FFFFFE000
03FFFF0000
000F800000
ENDCHAR
STARTCHAR 011E
ENCODING 286
SWIDTH 668 0
DWIDTH 52 0
BBX 42 71 5 -1
BITMAP
0003E003E000
0003E007C000
0003E007C000
0003F00FC000
0001F81FC000
0001FFFF8000
0000FFFF8000
00007FFF0000
00003FFE0000
00000FF80000
000000000000
000000000000
000000000000
000000000000
000000000000
00001FFF8000
0000FFFFF800
0003FFFFFF00
000FFFFFFFC0
003FFFFFFF80
007FFFFFFF80
00FFFFBFFF80
01FFF0003F00
03FF80000700
07FF00000100
0FFC00000000
0FF800000000
1FF000000000
1FF000000000
3FE000000000
3FC000000000
7FC000000000
7F8000000000
7F8000000000
FF8000000000
FF0000000000
FF0000000000
FF0000000000
FF0000000000
FF0000000000
FF0000000000
FF0000000000
FF0000000000
FF0000001FC0
FF0000001FC0
FF0000001FC0
FF0000001FC0
FF0000001FC0
FF0000001FC0
FF0000001FC0
FF0000001FC0
FF8000001FC0
7F8000001FC0
7F8000001FC0
7FC000001FC0
3FC000001FC0
3FE000001FC0
3FE000001FC0
1FF000001FC0
1FF800001FC0
0FFC00001FC0
07FE00001FC0
07FF80001FC0
03FFE0001FC0
01FFFF9FFFC0
00FFFFFFFFC0
003FFFFFFFC0
001FFFFFFFC0
0007FFFFFFC0
0001FFFFFE00
00001FFF8000
ENDCHAR
STARTCHAR 011F
ENCODING 287
SWIDTH 565 0
DWIDTH 44 0
BBX 35 73 4 -15
BITMAP
007C007C00
007C007C00
007E007C00
003E00F800
003F01F800
003FFFF800
001FFFF000
000FFFE000
0007FFC000
0001FF0000
0000100000
0000000000
0000000000
0000000000
0000000000
0000000000
0000000000
0007FFF800
001FFFFFC0
007FFFFFE0
01FFFFFFE0
03FFFFFFE0
07FFFFFFE0
0FFF007FE0
1FFC001FE0
1FF0001FE0
3FE0001FE0
3FC0001FE0
7FC0001FE0
7F80001FE0
7F80001FE0
FF00001FE0
FF00001FE0
FF00001FE0
FF00001FE0
FF00001FE0
FF00001FE0
FF00001FE0
FF00001FE0
FF00001FE0
FF00001FE0
FF00001FE0
FF00001FE0
7F80001FE0
7F80001FE0
7FC0001FE0
3FC0001FE0
3FE0001FE0
1FF0003FE0
1FFC00FFE0
0FFFFFFFE0
07FFFFFFE0
03FFFFFFE0
01FFFFFFE0
007FFFEFE0
001FFF0FE0
0000800FE0
0000001FE0
0000001FE0
0000001FC0
0000001FC0
0000003FC0
0000003FC0
0000007F80
100000FF80
1F0003FF00
1FFFFFFF00
1FFFFFFE00
1FFFFFFC00
3FFFFFF000
3FFFFFE000
03FFFF0000
000F800000
ENDCHAR
STARTCHAR 0120
ENCODING 288
SWIDTH 668 0
DWIDTH 52 0
BBX 42 70 5 -1
BITMAP
000007E00000
00000FF00000
00000FF80000
00000FF80000
00001FF80000
00000FF80000
00000FF00000
000007F00000
000003E00000
000000000000
000000000000
000000000000
000000000000
000000000000
00001FFF8000
0000FFFFF800
0003FFFFFF00
000FFFFFFFC0
003FFFFFFF80
007FFFFFFF80
00FFFFBFFF80
01FFF0003F00
03FF80000700
07FF00000100
0FFC00000000
0FF800000000
1FF000000000
1FF000000000
3FE000000000
3FC000000000
7FC000000000
7F8000000000
7F8000000000
FF8000000000
FF0000000000
FF0000000000
FF0000000000
FF0000000000
FF0000000000
FF0000000000
FF0000000000
FF0000000000
FF0000001FC0
FF0000001FC0
FF0000001FC0
FF0000001FC0
FF0000001FC0
FF0000001FC0
FF0000001FC0
FF0000001FC0
FF8000001FC0
7F8000001FC0
7F8000001FC0
7FC000001FC0
3FC000001FC0
3FE000001FC0
3FE000001FC0
1FF000001FC0
1FF800001FC0
0FFC00001FC0
07FE00001FC0
07FF80001FC0
03FFE0001FC0
01FFFF9FFFC0
00FFFFFFFFC0
003FFFFFFFC0
001FFFFFFFC0
0007FFFFFFC0
0001FFFFFE00
00001FFF8000
ENDCHAR
STARTCHAR 0121
ENCODING 289
SWIDTH 565 0
DWIDTH 44 0
BBX 35 72 4 -15
BITMAP
00007C0000
0000FE0000
0001FF0000
0001FF0000
0001FF0000
0001FF0000
0001FF0000
0000FE0000
00007C0000
0000000000
0000000000
0000000000
0000000000
0000000000
0000000000
0000000000
0007FFF800
001FFFFFC0
007FFFFFE0
01FFFFFFE0
03FFFFFFE0
07FFFFFFE0
0FFF007FE0
1FFC001FE0
1FF0001FE0
3FE0001FE0
3FC0001FE0
7FC0001FE0
7F80001FE0
7F80001FE0
FF00001FE0
FF00001FE0
FF00001FE0
FF00001FE0
FF00001FE0
FF00001FE0
FF00001FE0
FF00001FE0
FF00001FE0
FF00001FE0
FF00001FE0
FF00001FE0
7F80001FE0
7F80001FE0
7FC0001FE0
3FC0001FE0
3FE0001FE0
1FF0003FE0
1FFC00FFE0
0FFFFFFFE0
07FFFFFFE0
03FFFFFFE0
01FFFFFFE0
007FFFEFE0
001FFF0FE0
0000800FE0
0000001FE0
0000001FE0
0000001FC0
0000001FC0
0000003FC0
0000003FC0
0000007F80
100000FF80
1F0003FF00
1FFFFFFF00
1FFFFFFE00
1FFFFFFC00
3FFFFFF000
3FFFFFE000
03FFFF0000
000F800000
ENDCHAR
STARTCHAR 0122
ENCODING 290
SWIDTH 668 0
DWIDTH 52 0
BBX 42 70 5 -15
BITMAP
00001FFF8000
0000FFFFF800
0003FFFFFF00
000FFFFFFFC0
003FFFFFFF80
007FFFFFFF80
00FFFFBFFF80
01FFF0003F00
03FF80000700
07FF00000100
0FFC00000000
0FF800000000
1FF000000000
1FF000000000
3FE000000000
3FC000000000
7FC000000000
7F8000000000
7F8000000000
FF8000000000
FF0000000000
FF0000000000
FF0000000000
FF0000000000
FF0000000000
FF0000000000
FF0000000000
FF0000000000
FF0000001FC0
FF0000001FC0
FF0000001FC0
FF0000001FC0
FF0000001FC0
FF0000001FC0
FF0000001FC0
FF0000001FC0
FF8000001FC0
7F8000001FC0
7F8000001FC0
7FC000001FC0
3FC000001FC0
3FE000001FC0
3FE000001FC0
1FF000001FC0
1FF800001FC0
0FFC00001FC0
07FE00001FC0
07FF80001FC0
03FFE0001FC0
01FFFF9FFFC0
00FFFFFFFFC0
003FFFFFFFC0
001FFFFFFFC0
0007FFFFFFC0
0001FFFFFE00
00001FFF8000
000000000000
000000000000
000000000000
000007F00000
000007F00000
000007F00000
000007F00000
00000FF00000
00001FE00000
0000FFE00000
0000FFC00000
0000FF800000
0000FF000000
0000F8000000
ENDCHAR
STARTCHAR 0123
ENCODING 291
SWIDTH 565 0
DWIDTH 44 0
BBX 35 76 4 -15
BITMAP
0000008000
000003C000
00000FC000
00001FE000
00003FC000
00003F8000
00007F0000
00007F0000
0000FF0000
0000FE0000
0000FE0000
0000FE0000
0000FE0000
0000FE0000
0000000000
0000000000
0000000000
0000000000
0000000000
0000000000
0007FFF800
001FFFFFC0
007FFFFFE0
01FFFFFFE0
03FFFFFFE0
07FFFFFFE0
0FFF007FE0
1FFC001FE0
1FF0001FE0
3FE0001FE0
3FC0001FE0
7FC0001FE0
7F80001FE0
7F80001FE0
FF00001FE0
FF00001FE0
FF00001FE0
FF00001FE0
FF00001FE0
FF00001FE0
FF00001FE0
FF00001FE0
FF00001FE0
FF00001FE0
FF00001FE0
FF00001FE0
7F80001FE0
7F80001FE0
7FC0001FE0
3FC0001FE0
3FE0001FE0
1FF0003FE0
1FFC00FFE0
0FFFFFFFE0
07FFFFFFE0
03FFFFFFE0
01FFFFFFE0
007FFFEFE0
001FFF0FE0
0000800FE0
0000001FE0
0000001FE0
0000001FC0
0000001FC0
0000003FC0
0000003FC0
0000007F80
100000FF80
1F0003FF00
1FFFFFFF00
1FFFFFFE00
1FFFFFFC00
3FFFFFF000
3FFFFFE000
03FFFF0000
000F800000
ENDCHAR
STARTCHAR 0124
ENCODING 292
SWIDTH 694 0
DWIDTH 54 0
BBX 41 72 7 0
BITMAP
000008000000
00001C000000
00003E000000
00007F000000
0000FF800000
0001FFC00000
0003FFE00000
0007FFE00000
000FF7F00000
001FC3F80000
003F81FC0000
003F00FE0000
001E003C0000
000C00180000
000000000000
000000000000
000000000000
000000000000
FE0000003F80
FE0000003F80
FE0000003F80
FE0000003F80
FE0000003F80
FE0000003F80
FE0000003F80
FE0000003F80
FE0000003F80
FE0000003F80
FE0000003F80
FE0000003F80
FE0000003F80
FE0000003F80
FE0000003F80
FE0000003F80
FE0000003F80
FE0000003F80
FE0000003F80
FE0000003F80
FE0000003F80
FE0000003F80
FE0000003F80
FFFFFFFFFF80
FFFFFFFFFF80
FFFFFFFFFF80
FFFFFFFFFF80
FFFFFFFFFF80
FFFFFFFFFF80
FE0000003F80
FE0000003F80
FE0000003F80
FE0000003F80
FE0000003F80
FE0000003F80
FE0000003F80
FE0000003F80
FE0000003F80
FE0000003F80
FE0000003F80
FE0000003F80
FE0000003F80
FE0000003F80
FE0000003F80
FE0000003F80
FE0000003F80
FE0000003F80
FE0000003F80
FE0000003F80
FE0000003F80
FE0000003F80
FE0000003F80
FE0000003F80
FE0000003F80
ENDCHAR
STARTCHAR 0125
ENCODING 293
SWIDTH 565 0
DWIDTH 44 0
BBX 35 75 4 0
BITMAP
0040000000
00E0000000
01F8000000
07FC000000
0FFE000000
1FFF800000
7FBFC00000
FF1FE00000
7C07E00000
7801C00000
2000800000
0000000000
0000000000
0000000000
0000000000
0F80000000
3F80000000
3F80000000
3F80000000
3F80000000
3F80000000
3F80000000
3F80000000
3F80000000
3F80000000
3F80000000
3F80000000
3F80000000
3F80000000
3F80000000
3F80000000
3F80000000
3F80000000
3F80000000
3F8FFF8000
3FFFFFE000
3FFFFFF800
3FFFFFFC00
3FFFFFFE00
3FFFFFFF00
3FF807FF00
3F8000FF80
3F80007F80
3F80003FC0
3F80003FC0
3F80001FC0
3F80001FC0
3F80001FE0
3F80001FE0
3F80001FE0
3F80000FE0
3F80000FE0
3F80000FE0
3F80000FE0
3F80000FE0
3F80000FE0
3F80000FE0
3F80000FE0
3F80000FE0
3F80000FE0
3F80000FE0
3F80000FE0
3F80000FE0
3F80000FE0
3F80000FE0
3F80000FE0
3F80000FE0
3F80000FE0
3F80000FE0
3F80000FE0
3F80000FE0
3F80000FE0
3F80000FE0
3F80000FE0
3F80000FE0
ENDCHAR
STARTCHAR 0126
ENCODING 294
SWIDTH 720 0
DWIDTH 56 0
BBX 54 54 1 0
BITMAP
01FC0000007F00
01FC0000007F00
01FC0000007F00
01FC0000007F00
01FC0000007F00
01FC0000007F00
01FC0000007F00
01FC0000007F00
FFFFFFFFFFFFFC
FFFFFFFFFFFFFC
FFFFFFFFFFFFFC
FFFFFFFFFFFFFC
FFFFFFFFFFFFFC
01FC0000007F00
01FC0000007F00
01FC0000007F00
01FC0000007F00
01FC0000007F00
01FC0000007F00
01FC0000007F00
01FC0000007F00
01FC0000007F00
01FC0000007F00
01FFFFFFFFFF00
01FFFFFFFFFF00
01FFFFFFFFFF00
01FFFFFFFFFF00
01FFFFFFFFFF00
01FFFFFFFFFF00
01FC0000007F00
01FC0000007F00
01FC0000007F00
01FC0000007F00
01FC0000007F00
01FC0000007F00
01FC0000007F00
01FC0000007F00
01FC0000007F00
01FC0000007F00
01FC0000007F00
01FC0000007F00
01FC0000007F00
01FC0000007F00
01FC0000007F00
01FC0000007F00
01FC0000007F00
01FC0000007F00
01FC0000007F00
01FC0000007F00
01FC0000007F00
01FC0000007F00
01FC0000007F00
01FC0000007F00
01FC0000007F00
ENDCHAR
STARTCHAR 0127
ENCODING 295
SWIDTH 565 0
DWIDTH 44 0
BBX 39 60 0 0
BITMAP
00F8000000
03F8000000
03F8000000
03F8000000
03F8000000
03F8000000
03F8000000
FFFFFFE000
FFFFFFE000
FFFFFFE000
FFFFFFE000
FFFFFFE000
03F8000000
03F8000000
03F8000000
03F8000000
03F8000000
03F8000000
03F8000000
03F87FE000
03FBFFFE00
03FFFFFF00
03FFFFFFC0
03FFFFFFE0
03FFFFFFF0
03FFF1FFF0
03FC001FF8
03F80007F8
03F80007FC
03F80003FC
03F80001FC
03F80001FC
03F80001FE
03F80001FE
03F80001FE
03F80001FE
03F80000FE
03F80000FE
03F80000FE
03F80000FE
03F80000FE
03F80000FE
03F80000FE
03F80000FE
03F80000FE
03F80000FE
03F80000FE
03F80000FE
03F80000FE
03F80000FE
03F80000FE
03F80000FE
03F80000FE
03F80000FE
03F80000FE
03F80000FE
03F80000FE
03F80000FE
03F80000FE
03F80000FE
ENDCHAR
STARTCHAR 0128
ENCODING 296
SWIDTH 257 0
DWIDTH 20 0
BBX 25 69 -2 0
BITMAP
03C00600
0FF80F80
1FFE1F80
3FFFFF00
7FFFFF00
FFFFFE00
F81FFC00
F007F800
3000C000
00000000
00000000
00000000
00000000
00000000
00000000
007F0000
007F0000
007F0000
007F0000
007F0000
007F0000
007F0000
007F0000
007F0000
007F0000
007F0000
007F0000
007F0000
007F0000
007F0000
007F0000
007F0000
007F0000
007F0000
007F0000
007F0000
007F0000
007F0000
007F0000
007F0000
007F0000
007F0000
007F0000
007F0000
007F0000
007F0000
007F0000
007F0000
007F0000
007F0000
007F0000
007F0000
007F0000
007F0000
007F0000
007F0000
007F0000
007F0000
007F0000
007F0000
007F0000
007F0000
007F0000
007F0000
007F0000
007F0000
007F0000
007F0000
007F0000
ENDCHAR
STARTCHAR 0129
ENCODING 297
SWIDTH 244 0
DWIDTH 19 0
BBX 25 57 -3 0
BITMAP
01C00200
0FF80780
1FFE0F80
3FFFFF80
7FFFFF00
7FFFFF00
FC1FFE00
F807F800
3000E000
00000000
00000000
00000000
00000000
00000000
00000000
00000000
00000000
007F0000
007F0000
007F0000
007F0000
007F0000
007F0000
007F0000
007F0000
007F0000
007F0000
007F0000
007F0000
007F0000
007F0000
007F0000
007F0000
007F0000
007F0000
007F0000
007F0000
007F0000
007F0000
007F0000
007F0000
007F0000
007F0000
007F0000
007F0000
007F0000
007F0000
007F0000
007F0000
007F0000
007F0000
007F0000
007F0000
007F0000
007F0000
007F0000
007F0000
ENDCHAR
STARTCHAR 012A
ENCODING 298
SWIDTH 257 0
DWIDTH 20 0
BBX 23 67 -1 0
BITMAP
FFFFFE
FFFFFE
FFFFFE
FFFFFE
FFFFFE
000000
000000
000000
000000
000000
000000
000000
000000
00FE00
00FE00
00FE00
00FE00
00FE00
00FE00
00FE00
00FE00
00FE00
00FE00
00FE00
00FE00
00FE00
00FE00
00FE00
00FE00
00FE00
00FE00
00FE00
00FE00
00FE00
00FE00
00FE00
00FE00
00FE00
00FE00
00FE00
00FE00
00FE00
00FE00
00FE00
00FE00
00FE00
00FE00
00FE00
00FE00
00FE00
00FE00
00FE00
00FE00
00FE00
00FE00
00FE00
00FE00
00FE00
00FE00
00FE00
00FE00
00FE00
00FE00
00FE00
00FE00
00FE00
00FE00
ENDCHAR
STARTCHAR 012B
ENCODING 299
SWIDTH 244 0
DWIDTH 19 0
BBX 22 55 -1 0
BITMAP
FFFFFC
FFFFFC
FFFFFC
FFFFFC
FFFFFC
000000
000000
000000
000000
000000
000000
000000
000000
000000
000000
01FC00
01FC00
01FC00
01FC00
01FC00
01FC00
01FC00
01FC00
01FC00
01FC00
01FC00
01FC00
01FC00
01FC00
01FC00
01FC00
01FC00
01FC00
01FC00
01FC00
01FC00
01FC00
01FC00
01FC00
01FC00
01FC00
01FC00
01FC00
01FC00
01FC00
01FC00
01FC00
01FC00
01FC00
01FC00
01FC00
01FC00
01FC00
01FC00
01FC00
ENDCHAR
STARTCHAR 012C
ENCODING 300
SWIDTH 257 0
DWIDTH 20 0
BBX 21 70 0 0
BITMAP
F800F8
F800F8
FC01F8
7C01F0
7E07F0
7FFFF0
3FFFE0
1FFFC0
0FFF80
03FE00
000000
000000
000000
000000
000000
000000
01FC00
01FC00
01FC00
01FC00
01FC00
01FC00
01FC00
01FC00
01FC00
01FC00
01FC00
01FC00
01FC00
01FC00
01FC00
01FC00
01FC00
01FC00
01FC00
01FC00
01FC00
01FC00
01FC00
01FC00
01FC00
01FC00
01FC00
01FC00
01FC00
01FC00
01FC00
01FC00
01FC00
01FC00
01FC00
01FC00
01FC00
01FC00
01FC00
01FC00
01FC00
01FC00
01FC00
01FC00
01FC00
01FC00
01FC00
01FC00
01FC00
01FC00
01FC00
01FC00
01FC00
01FC00
ENDCHAR
STARTCHAR 012D
ENCODING 301
SWIDTH 244 0
DWIDTH 19 0
BBX 20 58 0 0
BITMAP
F001F0
F001F0
F801F0
FC03F0
FE07E0
7FFFE0
7FFFC0
3FFFC0
1FFF00
07FE00
00C000
000000
000000
000000
000000
000000
000000
000000
03F800
03F800
03F800
03F800
03F800
03F800
03F800
03F800
03F800
03F800
03F800
03F800
03F800
03F800
03F800
03F800
03F800
03F800
03F800
03F800
03F800
03F800
03F800
03F800
03F800
03F800
03F800
03F800
03F800
03F800
03F800
03F800
03F800
03F800
03F800
03F800
03F800
03F800
03F800
03F800
ENDCHAR
STARTCHAR 012E
ENCODING 302
SWIDTH 257 0
DWIDTH 20 0
BBX 14 69 1 -15
BITMAP
03F8
03F8
03F8
03F8
03F8
03F8
03F8
03F8
03F8
03F8
03F8
03F8
03F8
03F8
03F8
03F8
03F8
03F8
03F8
03F8
03F8
03F8
03F8
03F8
03F8
03F8
03F8
03F8
03F8
03F8
03F8
03F8
03F8
03F8
03F8
03F8
03F8
03F8
03F8
03F8
03F8
03F8
03F8
03F8
03F8
03F8
03F8
03F8
03F8
03F8
03F8
03F8
03F8
03F8
07F8
0FE0
1FC0
3F80
3F00
7F00
7E00
FE00
FF00
FFFC
7FFC
7FFC
3FFC
1FFC
00C0
ENDCHAR
STARTCHAR 012F
ENCODING 303
SWIDTH 244 0
DWIDTH 19 0
BBX 13 72 1 -15
BITMAP
03E0
07F8
0FF8
0FF8
0FF8
0FF8
0FF8
07F8
03E0
0000
0000
0000
0000
0000
0000
0000
0000
07F0
07F0
07F0
07F0
07F0
07F0
07F0
07F0
07F0
07F0
07F0
07F0
07F0
07F0
07F0
07F0
07F0
07F0
07F0
07F0
07F0
07F0
07F0
07F0
07F0
07F0
07F0
07F0
07F0
07F0
07F0
07F0
07F0
07F0
07F0
07F0
07F0
07F0
07F0
07F0
07F0
0FE0
1FC0
3F80
7F00
7E00
FE00
FE00
FE00
FFF8
FFF8
FFF8
7FF8
1FF8
0280
ENDCHAR
STARTCHAR 0130
ENCODING 304
SWIDTH 257 0
DWIDTH 20 0
BBX 9 69 6 0
BITMAP
3E00
7F00
FF80
FF80
FF80
FF80
FF80
7F00
3E00
0000
0000
0000
0000
0000
0000
7F00
7F00
7F00
7F00
7F00
7F00
7F00
7F00
7F00
7F00
7F00
7F00
7F00
7F00
7F00
7F00
7F00
7F00
7F00
7F00
7F00
7F00
7F00
7F00
7F00
7F00
7F00
7F00
7F00
7F00
7F00
7F00
7F00
7F00
7F00
7F00
7F00
7F00
7F00
7F00
7F00
7F00
7F00
7F00
7F00
7F00
7F00
7F00
7F00
7F00
7F00
7F00
7F00
7F00
ENDCHAR
STARTCHAR 0131
ENCODING 305
SWIDTH 244 0
DWIDTH 19 0
BBX 7 40 6 0
BITMAP
FE
FE
FE
FE
FE
FE
FE
FE
FE
FE
FE
FE
FE
FE
FE
FE
FE
FE
FE
FE
FE
FE
FE
FE
FE
FE
FE
FE
FE
FE
FE
FE
FE
FE
FE
FE
FE
FE
FE
FE
ENDCHAR
STARTCHAR 0132
ENCODING 306
SWIDTH 758 0
DWIDTH 59 0
BBX 47 55 7 -1
BITMAP
FE00000001FE
FE00000001FE
FE00000001FE
FE00000001FE
FE00000001FE
FE00000001FE
FE00000001FE
FE00000001FE
FE00000001FE
FE00000001FE
FE00000001FE
FE00000001FE
FE00000001FE
FE00000001FE
FE00000001FE
FE00000001FE
FE00000001FE
FE00000001FE
FE00000001FE
FE00000001FE
FE00000001FE
FE00000001FE
FE00000001FE
FE00000001FE
FE00000001FE
FE00000001FE
FE00000001FE
FE00000001FE
FE00000001FE
FE00000001FE
FE00000001FE
FE00000001FE
FE00000001FE
FE00000001FE
FE00000001FE
FE00000001FE
FE00000001FE
FE00000001FE
FE00000001FE
FE00000001FE
FE00000001FE
FE00000001FC
FE00000003FC
FE00000003FC
FE00000003FC
FE00600007FC
FE0078000FF8
FE00FE003FF8
FE00FFF7FFF0
FE01FFFFFFE0
FE01FFFFFFC0
FE00FFFFFF80
FE007FFFFF00
FE000FFFFC00
000001FFE000
ENDCHAR
STARTCHAR 0133
ENCODING 307
SWIDTH 501 0
DWIDTH 39 0
BBX 29 72 5 -15
BITMAP
3E0003E0
7F8007F8
FF800FF8
FF800FF8
FF800FF8
FF800FF8
FF800FF8
7F8007F0
3E0003E0
00000000
00000000
00000000
00000000
00000000
00000000
00000000
00000000
7F0007F0
7F0007F0
7F0007F0
7F0007F0
7F0007F0
7F0007F0
7F0007F0
7F0007F0
7F0007F0
7F0007F0
7F0007F0
7F0007F0
7F0007F0
7F0007F0
7F0007F0
7F0007F0
7F0007F0
7F0007F0
7F0007F0
7F0007F0
7F0007F0
7F0007F0
7F0007F0
7F0007F0
7F0007F0
7F0007F0
7F0007F0
7F0007F0
7F0007F0
7F0007F0
7F0007F0
7F0007F0
7F0007F0
7F0007F0
7F0007F0
7F0007F0
7F0007F0
7F0007F0
7F0007F0
7F0007F0
000007F0
000007F0
000007F0
000007F0
00000FF0
00000FF0
00001FE0
00003FE0
003FFFE0
003FFFC0
003FFF80
003FFF00
003FFE00
003FF800
00060000
ENDCHAR
STARTCHAR 0134
ENCODING 308
SWIDTH 488 0
DWIDTH 38 0
BBX 38 73 1 -1
BITMAP
0000001000
0000003800
0000007C00
000000FE00
000000FF00
000001FF80
000003FFC0
000007FFE0
00000FE7F0
00001FC3F8
00003F81FC
00007F00FC
00003E0078
0000180030
0000000000
0000000000
0000000000
0000000000
000000FF00
000000FF00
000000FF00
000000FF00
000000FF00
000000FF00
000000FF00
000000FF00
000000FF00
000000FF00
000000FF00
000000FF00
000000FF00
000000FF00
000000FF00
000000FF00
000000FF00
000000FF00
000000FF00
000000FF00
000000FF00
000000FF00
000000FF00
000000FF00
000000FF00
000000FF00
000000FF00
000000FF00
000000FF00
000000FF00
000000FF00
000000FF00
000000FF00
000000FF00
000000FF00
000000FF00
000000FF00
000000FF00
000000FF00
000000FE00
000000FE00
000001FE00
000001FE00
000001FE00
000003FE00
300003FC00
380007FC00
7E001FF800
7FFBFFF800
FFFFFFF000
FFFFFFE000
FFFFFFC000
3FFFFF8000
0FFFFE0000
00FFF00000
ENDCHAR
STARTCHAR 0135
ENCODING 309
SWIDTH 244 0
DWIDTH 19 0
BBX 25 73 -5 -13
BITMAP
00030000
00078000
000FC000
001FE000
003FF000
007FF800
00FFFC00
01FCFE00
03F87F00
07F03F80
0FE01F80
07C00F00
03800700
01000200
00000000
00000000
00000000
00000000
00000000
001FC000
001FC000
001FC000
001FC000
001FC000
001FC000
001FC000
001FC000
001FC000
001FC000
001FC000
001FC000
001FC000
001FC000
001FC000
001FC000
001FC000
001FC000
001FC000
001FC000
001FC000
001FC000
001FC000
001FC000
001FC000
001FC000
001FC000
001FC000
001FC000
001FC000
001FC000
001FC000
001FC000
001FC000
001FC000
001FC000
001FC000
001FC000
001FC000
001FC000
001FC000
001FC000
001FC000
001FC000
003FC000
003FC000
007F8000
00FF8000
FFFF0000
FFFF0000
FFFE0000
FFFC0000
FFF80000
FFC00000
ENDCHAR
STARTCHAR 0136
ENCODING 310
SWIDTH 617 0
DWIDTH 48 0
BBX 41 69 7 -15
BITMAP
FE000003FE00
FE000007FC00
FE00000FF800
FE00001FF800
FE00003FF000
FE00003FE000
FE00007FC000
FE0000FF8000
FE0001FF0000
FE0003FE0000
FE0007FC0000
FE000FF80000
FE001FF00000
FE003FE00000
FE007FC00000
FE00FF800000
FE01FF000000
FE03FE000000
FE07FC000000
FE0FF8000000
FE1FF0000000
FE3FE0000000
FE7FC0000000
FEFF80000000
FFFF00000000
FFFE00000000
FFFF80000000
FFFFC0000000
FFFFE0000000
FE7FF0000000
FE3FFC000000
FE0FFE000000
FE07FF000000
FE03FF800000
FE01FFC00000
FE00FFE00000
FE003FF00000
FE001FF80000
FE000FFC0000
FE0007FE0000
FE0003FE0000
FE0001FF0000
FE0000FF8000
FE0000FFC000
FE00007FE000
FE00003FF000
FE00001FF000
FE00000FF800
FE000007FC00
FE000007FE00
FE000003FE00
FE000001FF00
FE000000FF80
FE000000FF80
000000000000
000000000000
000000000000
000000000000
0001FC000000
0001FC000000
0001FC000000
0001FC000000
0001FC000000
0003FC000000
003FF8000000
003FF8000000
003FF0000000
003FC0000000
001E00000000
ENDCHAR
STARTCHAR 0137
ENCODING 311
SWIDTH 514 0
DWIDTH 40 0
BBX 33 75 6 -15
BITMAP
3E00000000
FE00000000
FE00000000
FE00000000
FE00000000
FE00000000
FE00000000
FE00000000
FE00000000
FE00000000
FE00000000
FE00000000
FE00000000
FE00000000
FE00000000
FE00000000
FE00000000
FE00000000
FE00000000
FE00000000
FE0001FE00
FE0003FC00
FE0007F800
FE000FF000
FE001FE000
FE003FE000
FE007FC000
FE00FF8000
FE01FF0000
FE03FE0000
FE07FC0000
FE0FF80000
FE1FF00000
FE3FE00000
FE7FC00000
FEFF800000
FFFF000000
FFFE000000
FFFF000000
FFFF800000
FFFFC00000
FE7FE00000
FE3FF00000
FE1FF80000
FE0FFC0000
FE07FE0000
FE03FF0000
FE01FF8000
FE00FF8000
FE007FC000
FE003FE000
FE001FF000
FE000FF000
FE0007F800
FE0007FC00
FE0003FE00
FE0001FE00
FE0001FF00
FE0000FF80
FE00007F80
0000000000
0000000000
0000000000
0000000000
000FE00000
000FE00000
000FE00000
000FE00000
001FE00000
003FC00000
01FFC00000
01FF800000
01FF000000
01FE000000
00F0000000
ENDCHAR
STARTCHAR 0138
ENCODING 312
SWIDTH 527 0
DWIDTH 41 0
BBX 34 40 6 0
BITMAP
FE0000FF00
FE0001FE00
FE0003FC00
FE0007F800
FE000FF000
FE001FE000
FE003FC000
FE007F8000
FE00FF0000
FE01FE0000
FE03FC0000
FE07F80000
FE0FF00000
FE1FE00000
FE3FE00000
FE7F800000
FEFF000000
FFFE000000
FFFF000000
FFFF800000
FFFFC00000
FEFFE00000
FE3FF00000
FE1FF80000
FE0FFC0000
FE07FE0000
FE03FF0000
FE00FF8000
FE007FC000
FE003FE000
FE003FF000
FE001FF800
FE000FF800
FE0007FC00
FE0003FE00
FE0001FF00
FE0000FF00
FE0000FF80
FE00007FC0
FE00003FC0
ENDCHAR
STARTCHAR 0139
ENCODING 313
SWIDTH 514 0
DWIDTH 40 0
BBX 32 72 7 1
BITMAP
00600000
00F00000
00F80000
01FC0000
03FC0000
07F80000
0FF00000
1FE00000
1FC00000
3F800000
7F000000
FE000000
7C000000
38000000
00000000
00000000
00000000
00000000
FE000000
FE000000
FE000000
FE000000
FE000000
FE000000
FE000000
FE000000
FE000000
FE000000
FE000000
FE000000
FE000000
FE000000
FE000000
FE000000
FE000000
FE000000
FE000000
FE000000
FE000000
FE000000
FE000000
FE000000
FE000000
FE000000
FE000000
FE000000
FE000000
FE000000
FE000000
FE000000
FE000000
FE000000
FE000000
FE000000
FE000000
FE000000
FE000000
FE000000
FE000000
FE000000
FE000000
FE000000
FE000000
FE000000
FE000000
FFFFFFFF
FFFFFFFF
FFFFFFFF
FFFFFFFF
FFFFFFFF
FFFFFFFF
FFFFFFFF
ENDCHAR
STARTCHAR 013A
ENCODING 314
SWIDTH 270 0
DWIDTH 21 0
BBX 14 75 5 -1
BITMAP
0010
0078
01F8
07F8
1FFC
7FFC
FFF0
FF80
7C00
6000
0000
0000
0000
0000
1F00
7F00
7F00
7F00
7F00
7F00
7F00
7F00
7F00
7F00
7F00
7F00
7F00
7F00
7F00
7F00
7F00
7F00
7F00
7F00
7F00
7F00
7F00
7F00
7F00
7F00
7F00
7F00
7F00
7F00
7F00
7F00
7F00
7F00
7F00
7F00
7F00
7F00
7F00
7F00
7F00
7F00
7F00
7F00
7F00
7F00
7F00
7F00
7F00
7F00
7F00
7F80
7F80
7FC0
3FF8
3FFC
1FFC
1FFC
07FC
03FC
0038
ENDCHAR
STARTCHAR 013B
ENCODING 315
SWIDTH 514 0
DWIDTH 40 0
BBX 32 69 7 -15
BITMAP
FE000000
FE000000
FE000000
FE000000
FE000000
FE000000
FE000000
FE000000
FE000000
FE000000
FE000000
FE000000
FE000000
FE000000
FE000000
FE000000
FE000000
FE000000
FE000000
FE000000
FE000000
FE000000
FE000000
FE000000
FE000000
FE000000
FE000000
FE000000
FE000000
FE000000
FE000000
FE000000
FE000000
FE000000
FE000000
FE000000
FE000000
FE000000
FE000000
FE000000
FE000000
FE000000
FE000000
FE000000
FE000000
FE000000
FE000000
FFFFFFFF
FFFFFFFF
FFFFFFFF
FFFFFFFF
FFFFFFFF
FFFFFFFF
FFFFFFFF
00000000
00000000
00000000
00000000
0007F000
0007F000
0007F000
000FF000
000FE000
001FE000
00FFE000
00FFC000
00FF8000
00FF0000
00F00000
ENDCHAR
STARTCHAR 013C
ENCODING 316
SWIDTH 270 0
DWIDTH 21 0
BBX 16 75 3 -15
BITMAP
07C0
1FC0
1FC0
1FC0
1FC0
1FC0
1FC0
1FC0
1FC0
1FC0
1FC0
1FC0
1FC0
1FC0
1FC0
1FC0
1FC0
1FC0
1FC0
1FC0
1FC0
1FC0
1FC0
1FC0
1FC0
1FC0
1FC0
1FC0
1FC0
1FC0
1FC0
1FC0
1FC0
1FC0
1FC0
1FC0
1FC0
1FC0
1FC0
1FC0
1FC0
1FC0
1FC0
1FC0
1FC0
1FC0
1FC0
1FC0
1FC0
1FC0
1FC0
1FE0
1FE0
1FF0
0FFE
0FFF
07FF
07FF
01FF
00FF
000E
0000
0000
0000
07F0
07F0
07F0
07F0
0FF0
1FE0
FFE0
FFC0
FF80
FF00
7800
ENDCHAR
STARTCHAR 013D
ENCODING 317
SWIDTH 514 0
DWIDTH 40 0
BBX 32 54 7 0
BITMAP
FE03F800
FE03F800
FE03F800
FE03F800
FE03F800
FE03F800
FE03F000
FE03F000
FE03F000
FE03F000
FE03F000
FE03F000
FE03F000
FE03F000
FE03E000
FE03E000
FE03E000
FE000000
FE000000
FE000000
FE000000
FE000000
FE000000
FE000000
FE000000
FE000000
FE000000
FE000000
FE000000
FE000000
FE000000
FE000000
FE000000
FE000000
FE000000
FE000000
FE000000
FE000000
FE000000
FE000000
FE000000
FE000000
FE000000
FE000000
FE000000
FE000000
FE000000
FFFFFFFF
FFFFFFFF
FFFFFFFF
FFFFFFFF
FFFFFFFF
FFFFFFFF
FFFFFFFF
ENDCHAR
STARTCHAR 013E
ENCODING 318
SWIDTH 282 0
DWIDTH 22 0
BBX 20 61 6 -1
BITMAP
3E07F0
FE07E0
FE07E0
FE07E0
FE07E0
FE07E0
FE07E0
FE07E0
FE07E0
FE07C0
FE07C0
FE07C0
FE07C0
FE07C0
FE07C0
FE07C0
FE07C0
FE0000
FE0000
FE0000
FE0000
FE0000
FE0000
FE0000
FE0000
FE0000
FE0000
FE0000
FE0000
FE0000
FE0000
FE0000
FE0000
FE0000
FE0000
FE0000
FE0000
FE0000
FE0000
FE0000
FE0000
FE0000
FE0000
FE0000
FE0000
FE0000
FE0000
FE0000
FE0000
FE0000
FE0000
FF0000
FF0000
FF8000
7FF000
7FF800
3FF800
3FF800
0FF800
07F800
007000
ENDCHAR
STARTCHAR 013F
ENCODING 319
SWIDTH 514 0
DWIDTH 40 0
BBX 32 54 7 0
BITMAP
FE000000
FE000000
FE000000
FE000000
FE000000
FE000000
FE000000
FE000000
FE000000
FE000000
FE000000
FE000000
FE000000
FE000000
FE000000
FE000000
FE000000
FE000000
FE000000
FE000000
FE000000
FE0003C0
FE000FE0
FE001FF0
FE001FF0
FE001FF0
FE001FF0
FE001FF0
FE000FF0
FE0007E0
FE000000
FE000000
FE000000
FE000000
FE000000
FE000000
FE000000
FE000000
FE000000
FE000000
FE000000
FE000000
FE000000
FE000000
FE000000
FE000000
FE000000
FFFFFFFF
FFFFFFFF
FFFFFFFF
FFFFFFFF
FFFFFFFF
FFFFFFFF
FFFFFFFF
ENDCHAR
STARTCHAR 0140
ENCODING 320
SWIDTH 360 0
DWIDTH 28 0
BBX 23 61 6 -1
BITMAP
3E0000
FE0000
FE0000
FE0000
FE0000
FE0000
FE0000
FE0000
FE0000
FE0000
FE0000
FE0000
FE0000
FE0000
FE0000
FE0000
FE0000
FE0000
FE0000
FE0000
FE0000
FE0000
FE0000
FE0000
FE0000
FE0000
FE0000
FE00F0
FE01FC
FE03FC
FE03FE
FE03FE
FE03FE
FE03FE
FE03FC
FE01F8
FE0020
FE0000
FE0000
FE0000
FE0000
FE0000
FE0000
FE0000
FE0000
FE0000
FE0000
FE0000
FE0000
FE0000
FE0000
FF0000
FF0000
FF8000
7FF000
7FF800
3FF800
3FF800
0FF800
07F800
007000
ENDCHAR
STARTCHAR 0141
ENCODING 321
SWIDTH 527 0
DWIDTH 41 0
BBX 41 54 0 0
BITMAP
00FF00000000
00FF00000000
00FF00000000
00FF00000000
00FF00000000
00FF00000000
00FF00000000
00FF00000000
00FF00000000
00FF00000000
00FF00000000
00FF00000000
00FF00000000
00FF00000000
00FF00000000
00FF00000000
00FF00000000
00FF01800000
00FF07C00000
00FF1FC00000
00FF7FC00000
00FFFFE00000
00FFFFC00000
00FFFF000000
00FFFC000000
00FFF0000000
03FFC0000000
0FFF00000000
3FFF00000000
FFFF00000000
FFFF00000000
7FFF00000000
7EFF00000000
38FF00000000
20FF00000000
00FF00000000
00FF00000000
00FF00000000
00FF00000000
00FF00000000
00FF00000000
00FF00000000
00FF00000000
00FF00000000
00FF00000000
00FF00000000
00FF00000000
00FFFFFFFF80
00FFFFFFFF80
00FFFFFFFF80
00FFFFFFFF80
00FFFFFFFF80
00FFFFFFFF80
00FFFFFFFF80
ENDCHAR
STARTCHAR 0142
ENCODING 322
SWIDTH 282 0
DWIDTH 22 0
BBX 21 61 1 -1
BITMAP
00F800
03F800
03F800
03F800
03F800
03F800
03F800
03F800
03F800
03F800
03F800
03F800
03F800
03F800
03F800
03F800
03F800
03F800
03F800
03F800
03F800
03F820
03F8F0
03FBF0
03FFF8
03FFF8
03FFF0
03FFC0
0FFF00
3FFC00
FFF800
FFF800
FFF800
7FF800
73F800
03F800
03F800
03F800
03F800
03F800
03F800
03F800
03F800
03F800
03F800
03F800
03F800
03F800
03F800
03F800
03FC00
03FC00
03FC00
01FE00
01FFC0
01FFE0
00FFE0
007FE0
003FE0
001FE0
0001C0
ENDCHAR
STARTCHAR 0143
ENCODING 323
SWIDTH 720 0
DWIDTH 56 0
BBX 43 72 7 1
BITMAP
000000600000
000000F00000
000000F80000
000001FC0000
000003FC0000
000007F80000
00000FF00000
00001FE00000
00001FC00000
00003F800000
00007F000000
0000FE000000
00007C000000
000038000000
000010000000
000000000000
000000000000
000000000000
FC0000000FE0
FE0000000FE0
FF0000000FE0
FF8000000FE0
FFC000000FE0
FFC000000FE0
FFE000000FE0
FFF000000FE0
FFF800000FE0
FFFC00000FE0
FFFE00000FE0
FFFE00000FE0
FEFF00000FE0
FEFF80000FE0
FE7FC0000FE0
FE3FC0000FE0
FE1FE0000FE0
FE0FF0000FE0
FE0FF8000FE0
FE07F8000FE0
FE03FC000FE0
FE01FE000FE0
FE01FF000FE0
FE00FF000FE0
FE007F800FE0
FE003FC00FE0
FE003FE00FE0
FE001FE00FE0
FE000FF00FE0
FE0007F80FE0
FE0007F80FE0
FE0003FC0FE0
FE0001FE0FE0
FE0001FE0FE0
FE0000FF0FE0
FE00007F8FE0
FE00007F8FE0
FE00003FCFE0
FE00001FEFE0
FE00001FEFE0
FE00000FFFE0
FE000007FFE0
FE000007FFE0
FE000003FFE0
FE000001FFE0
FE000001FFE0
FE000000FFE0
FE0000007FE0
FE0000007FE0
FE0000003FE0
FE0000003FE0
FE0000001FE0
FE0000000FE0
FE0000000FE0
ENDCHAR
STARTCHAR 0144
ENCODING 324
SWIDTH 565 0
DWIDTH 44 0
BBX 33 60 6 0
BITMAP
0000040000
00000E0000
00001F0000
00003F8000
00007FC000
0000FF8000
0000FF0000
0001FE0000
0003FC0000
0007F80000
000FF00000
001FE00000
000F800000
0007000000
0000000000
0000000000
0000000000
0000000000
0000000000
03FFFE0000
7FFFFF8000
FFFFFFE000
FFFFFFF000
FFFFFFF800
FFFFFFFC00
FFC01FFC00
FE0003FE00
FE0001FE00
FE0000FF00
FE0000FF00
FE00007F00
FE00007F00
FE00007F80
FE00007F80
FE00007F80
FE00003F80
FE00003F80
FE00003F80
FE00003F80
FE00003F80
FE00003F80
FE00003F80
FE00003F80
FE00003F80
FE00003F80
FE00003F80
FE00003F80
FE00003F80
FE00003F80
FE00003F80
FE00003F80
FE00003F80
FE00003F80
FE00003F80
FE00003F80
FE00003F80
FE00003F80
FE00003F80
FE00003F80
FE00003F80
ENDCHAR
STARTCHAR 0145
ENCODING 325
SWIDTH 720 0
DWIDTH 56 0
BBX 43 69 7 -15
BITMAP
FC0000000FE0
FE0000000FE0
FF0000000FE0
FF8000000FE0
FFC000000FE0
FFC000000FE0
FFE000000FE0
FFF000000FE0
FFF800000FE0
FFFC00000FE0
FFFE00000FE0
FFFE00000FE0
FEFF00000FE0
FEFF80000FE0
FE7FC0000FE0
FE3FC0000FE0
FE1FE0000FE0
FE0FF0000FE0
FE0FF8000FE0
FE07F8000FE0
FE03FC000FE0
FE01FE000FE0
FE01FF000FE0
FE00FF000FE0
FE007F800FE0
FE003FC00FE0
FE003FE00FE0
FE001FE00FE0
FE000FF00FE0
FE0007F80FE0
FE0007F80FE0
FE0003FC0FE0
FE0001FE0FE0
FE0001FE0FE0
FE0000FF0FE0
FE00007F8FE0
FE00007F8FE0
FE00003FCFE0
FE00001FEFE0
FE00001FEFE0
FE00000FFFE0
FE000007FFE0
FE000007FFE0
FE000003FFE0
FE000001FFE0
FE000001FFE0
FE000000FFE0
FE0000007FE0
FE0000007FE0
FE0000003FE0
FE0000003FE0
FE0000001FE0
FE0000000FE0
FE0000000FE0
000000000000
000000000000
000000000000
000000000000
00003F800000
00003F800000
00003F800000
00003F800000
00007F800000
0000FF000000
0007FF000000
0007FE000000
0007FC000000
0007F8000000
0003C0000000
ENDCHAR
STARTCHAR 0146
ENCODING 326
SWIDTH 565 0
DWIDTH 44 0
BBX 33 56 6 -15
BITMAP
03FFFE0000
7FFFFF8000
FFFFFFE000
FFFFFFF000
FFFFFFF800
FFFFFFFC00
FFC01FFC00
FE0003FE00
FE0001FE00
FE0000FF00
FE0000FF00
FE00007F00
FE00007F00
FE00007F80
FE00007F80
FE00007F80
FE00003F80
FE00003F80
FE00003F80
FE00003F80
FE00003F80
FE00003F80
FE00003F80
FE00003F80
FE00003F80
FE00003F80
FE00003F80
FE00003F80
FE00003F80
FE00003F80
FE00003F80
FE00003F80
FE00003F80
FE00003F80
FE00003F80
FE00003F80
FE00003F80
FE00003F80
FE00003F80
FE00003F80
FE00003F80
0000000000
0000000000
0000000000
0000000000
0007F00000
0007F00000
0007F00000
0007F00000
0007F00000
001FF00000
00FFE00000
00FFE00000
00FFC00000
00FF000000
0078000000
ENDCHAR
STARTCHAR 0147
ENCODING 327
SWIDTH 720 0
DWIDTH 56 0
BBX 43 72 7 0
BITMAP
0006000C0000
000F001C0000
001F803E0000
001FC07F0000
000FE0FE0000
0007F3FC0000
0003FFF80000
0001FFF00000
0000FFE00000
00007FC00000
00003F800000
00001F000000
00000E000000
000004000000
000000000000
000000000000
000000000000
000000000000
FC0000000FE0
FE0000000FE0
FF0000000FE0
FF8000000FE0
FFC000000FE0
FFC000000FE0
FFE000000FE0
FFF000000FE0
FFF800000FE0
FFFC00000FE0
FFFE00000FE0
FFFE00000FE0
FEFF00000FE0
FEFF80000FE0
FE7FC0000FE0
FE3FC0000FE0
FE1FE0000FE0
FE0FF0000FE0
FE0FF8000FE0
FE07F8000FE0
FE03FC000FE0
FE01FE000FE0
FE01FF000FE0
FE00FF000FE0
FE007F800FE0
FE003FC00FE0
FE003FE00FE0
FE001FE00FE0
FE000FF00FE0
FE0007F80FE0
FE0007F80FE0
FE0003FC0FE0
FE0001FE0FE0
FE0001FE0FE0
FE0000FF0FE0
FE00007F8FE0
FE00007F8FE0
FE00003FCFE0
FE00001FEFE0
FE00001FEFE0
FE00000FFFE0
FE000007FFE0
FE000007FFE0
FE000003FFE0
FE000001FFE0
FE000001FFE0
FE000000FFE0
FE0000007FE0
FE0000007FE0
FE0000003FE0
FE0000003FE0
FE0000001FE0
FE0000000FE0
FE0000000FE0
ENDCHAR
STARTCHAR 0148
ENCODING 328
SWIDTH 565 0
DWIDTH 44 0
BBX 33 60 6 0
BITMAP
00C0018000
00E003C000
01F007C000
03F80FE000
01FC1FC000
00FE3F8000
007F7F0000
003FFE0000
001FFC0000
000FF80000
0007F00000
0003E00000
0001C00000
0000800000
0000000000
0000000000
0000000000
0000000000
0000000000
03FFFE0000
7FFFFF8000
FFFFFFE000
FFFFFFF000
FFFFFFF800
FFFFFFFC00
FFC01FFC00
FE0003FE00
FE0001FE00
FE0000FF00
FE0000FF00
FE00007F00
FE00007F00
FE00007F80
FE00007F80
FE00007F80
FE00003F80
FE00003F80
FE00003F80
FE00003F80
FE00003F80
FE00003F80
FE00003F80
FE00003F80
FE00003F80
FE00003F80
FE00003F80
FE00003F80
FE00003F80
FE00003F80
FE00003F80
FE00003F80
FE00003F80
FE00003F80
FE00003F80
FE00003F80
FE00003F80
FE00003F80
FE00003F80
FE00003F80
FE00003F80
ENDCHAR
STARTCHAR 0149
ENCODING 329
SWIDTH 565 0
DWIDTH 44 0
BBX 38 60 1 0
BITMAP
3FC0000000
3FC0000000
3FC0000000
3F80000000
3F80000000
3F80000000
3F80000000
3F80000000
3F00000000
7F00000000
7F00000000
7E00000000
FE00000000
FC00000000
FC00000000
1800000000
0000000000
0000000000
0000000000
001FFFF000
03FFFFFC00
07FFFFFF00
07FFFFFF80
07FFFFFFC0
07FFFFFFE0
07FE00FFE0
07F0001FF0
07F0000FF0
07F00007F8
07F00007F8
07F00003F8
07F00003F8
07F00003FC
07F00003FC
07F00003FC
07F00001FC
07F00001FC
07F00001FC
07F00001FC
07F00001FC
07F00001FC
07F00001FC
07F00001FC
07F00001FC
07F00001FC
07F00001FC
07F00001FC
07F00001FC
07F00001FC
07F00001FC
07F00001FC
07F00001FC
07F00001FC
07F00001FC
07F00001FC
07F00001FC
07F00001FC
07F00001FC
07F00001FC
07F00001FC
ENDCHAR
STARTCHAR 014A
ENCODING 330
SWIDTH 720 0
DWIDTH 56 0
BBX 43 69 7 -15
BITMAP
FC0000000FE0
FE0000000FE0
FF0000000FE0
FF8000000FE0
FFC000000FE0
FFC000000FE0
FFE000000FE0
FFF000000FE0
FFF800000FE0
FFFC00000FE0
FFFE00000FE0
FFFE00000FE0
FEFF00000FE0
FEFF80000FE0
FE7FC0000FE0
FE3FC0000FE0
FE1FE0000FE0
FE0FF0000FE0
FE0FF8000FE0
FE07F8000FE0
FE03FC000FE0
FE01FE000FE0
FE01FF000FE0
FE00FF000FE0
FE007F800FE0
FE003FC00FE0
FE003FE00FE0
FE001FE00FE0
FE000FF00FE0
FE0007F80FE0
FE0007F80FE0
FE0003FC0FE0
FE0001FE0FE0
FE0001FE0FE0
FE0000FF0FE0
FE00007F8FE0
FE00007F8FE0
FE00003FCFE0
FE00001FEFE0
FE00001FEFE0
FE00000FFFE0
FE000007FFE0
FE000007FFE0
FE000003FFE0
FE000001FFE0
FE000001FFE0
FE000000FFE0
FE0000007FE0
FE0000007FE0
FE0000003FE0
FE0000001FE0
FE0000001FE0
FE0000000FE0
FE0000000FE0
000000000FE0
000000000FE0
000000001FE0
000000001FE0
000000001FE0
000000001FE0
000000001FC0
000000003FC0
00000019FFC0
0000001FFFC0
0000001FFF80
0000001FFF00
0000001FFE00
0000001FFC00
000000010000
ENDCHAR
STARTCHAR 014B
ENCODING 331
SWIDTH 565 0
DWIDTH 44 0
BBX 33 56 6 -15
BITMAP
03FFFE0000
7FFFFF8000
FFFFFFE000
FFFFFFF000
FFFFFFF800
FFFFFFFC00
FFC01FFC00
FE0003FE00
FE0001FE00
FE0000FF00
FE0000FF00
FE00007F00
FE00007F00
FE00007F80
FE00007F80
FE00007F80
FE00003F80
FE00003F80
FE00003F80
FE00003F80
FE00003F80
FE00003F80
FE00003F80
FE00003F80
FE00003F80
FE00003F80
FE00003F80
FE00003F80
FE00003F80
FE00003F80
FE00003F80
FE00003F80
FE00003F80
FE00003F80
FE00003F80
FE00003F80
FE00003F80
FE00003F80
FE00003F80
FE00003F80
FE00003F80
0000003F80
0000003F80
0000003F80
0000003F80
0000007F80
0000007F80
0000007F00
000000FF00
000067FF00
00007FFE00
00007FFE00
00007FFC00
00007FF800
00007FE000
0000040000
ENDCHAR
STARTCHAR 014C
ENCODING 332
SWIDTH 771 0
DWIDTH 60 0
BBX 51 68 5 -1
BITMAP
0003FFFFF00000
0003FFFFF00000
0003FFFFF00000
0003FFFFF00000
0003FFFFF00000
00000000000000
00000000000000
00000000000000
00000000000000
00000000000000
00000000000000
00000000000000
00001FFE000000
0000FFFFE00000
0007FFFFF80000
000FFFFFFE0000
003FFFFFFF0000
007FFFFFFFC000
00FFFFBFFFE000
01FFE001FFF000
03FF80003FF800
07FE00001FFC00
0FFC00000FFC00
0FF8000007FE00
1FF0000003FE00
1FE0000001FF00
3FE0000000FF00
3FC0000000FF80
7FC00000007F80
7F800000007FC0
7F800000003FC0
FF800000003FC0
FF000000003FC0
FF000000003FC0
FF000000001FE0
FF000000001FE0
FF000000001FE0
FF000000001FE0
FE000000001FE0
FE000000001FE0
FE000000001FE0
FE000000001FE0
FF000000001FE0
FF000000001FE0
FF000000001FE0
FF000000001FE0
FF000000003FE0
FF000000003FC0
FF800000003FC0
7F800000003FC0
7F800000007FC0
7FC00000007F80
3FC0000000FF80
3FE0000000FF00
1FE0000001FF00
1FF0000003FE00
0FF8000003FE00
0FFC00000FFC00
07FE00001FFC00
03FF80003FF800
01FFE000FFF000
00FFFFBFFFE000
007FFFFFFFC000
003FFFFFFF8000
001FFFFFFE0000
0007FFFFF80000
0000FFFFE00000
00001FFF000000
ENDCHAR
STARTCHAR 014D
ENCODING 333
SWIDTH 578 0
DWIDTH 45 0
BBX 38 56 4 -1
BITMAP
00FFFFFC00
00FFFFFC00
00FFFFFC00
00FFFFFC00
00FFFFFC00
0000000000
0000000000
0000000000
0000000000
0000000000
0000000000
0000000000
0000000000
0000000000
0007FF8000
003FFFF000
007FFFF800
01FFFFFE00
03FFFFFF00
07FFFFFF80
0FFE01FFC0
0FF8007FC0
1FF0003FE0
3FE0001FE0
3FC0000FF0
3FC0000FF0
7F800007F8
7F800007F8
7F000003F8
FF000003F8
FF000003FC
FF000003FC
FF000003FC
FF000003FC
FF000003FC
FF000003FC
FF000003FC
FF000003FC
FF000003FC
FF000003FC
7F000003F8
7F000007F8
7F800007F8
7F800007F8
3FC0000FF0
3FC0001FF0
1FE0001FE0
1FF0007FE0
0FFC00FFC0
07FFCFFF80
03FFFFFF00
01FFFFFE00
00FFFFFC00
007FFFF800
001FFFE000
0003FE0000
ENDCHAR
STARTCHAR 014E
ENCODING 334
SWIDTH 771 0
DWIDTH 60 0
BBX 51 71 5 -1
BITMAP
0001F001F00000
0001F001F00000
0001F003E00000
0001F807E00000
0000FC0FE00000
0000FFFFC00000
00007FFFC00000
00003FFF800000
00001FFF000000
000007FC000000
00000000000000
00000000000000
00000000000000
00000000000000
00000000000000
00001FFE000000
0000FFFFE00000
0007FFFFF80000
000FFFFFFE0000
003FFFFFFF0000
007FFFFFFFC000
00FFFFBFFFE000
01FFE001FFF000
03FF80003FF800
07FE00001FFC00
0FFC00000FFC00
0FF8000007FE00
1FF0000003FE00
1FE0000001FF00
3FE0000000FF00
3FC0000000FF80
7FC00000007F80
7F800000007FC0
7F800000003FC0
FF800000003FC0
FF000000003FC0
FF000000003FC0
FF000000001FE0
FF000000001FE0
FF000000001FE0
FF000000001FE0
FE000000001FE0
FE000000001FE0
FE000000001FE0
FE000000001FE0
FF000000001FE0
FF000000001FE0
FF000000001FE0
FF000000001FE0
FF000000003FE0
FF000000003FC0
FF800000003FC0
7F800000003FC0
7F800000007FC0
7FC00000007F80
3FC0000000FF80
3FE0000000FF00
1FE0000001FF00
1FF0000003FE00
0FF8000003FE00
0FFC00000FFC00
07FE00001FFC00
03FF80003FF800
01FFE000FFF000
00FFFFBFFFE000
007FFFFFFFC000
003FFFFFFF8000
001FFFFFFE0000
0007FFFFF80000
0000FFFFE00000
00001FFF000000
ENDCHAR
STARTCHAR 014F
ENCODING 335
SWIDTH 578 0
DWIDTH 45 0
BBX 38 59 4 -1
BITMAP
007800F800
007C00F800
007C00F800
007E01F800
007F03F800
003FFFF000
003FFFE000
001FFFE000
000FFF8000
0003FF0000
0000200000
0000000000
0000000000
0000000000
0000000000
0000000000
0000000000
0007FF8000
003FFFF000
007FFFF800
01FFFFFE00
03FFFFFF00
07FFFFFF80
0FFE01FFC0
0FF8007FC0
1FF0003FE0
3FE0001FE0
3FC0000FF0
3FC0000FF0
7F800007F8
7F800007F8
7F000003F8
FF000003F8
FF000003FC
FF000003FC
FF000003FC
FF000003FC
FF000003FC
FF000003FC
FF000003FC
FF000003FC
FF000003FC
FF000003FC
7F000003F8
7F000007F8
7F800007F8
7F800007F8
3FC0000FF0
3FC0001FF0
1FE0001FE0
1FF0007FE0
0FFC00FFC0
07FFCFFF80
03FFFFFF00
01FFFFFE00
00FFFFFC00
007FFFF800
001FFFE000
0003FE0000
ENDCHAR
STARTCHAR 0150
ENCODING 336
SWIDTH 771 0
DWIDTH 60 0
BBX 51 73 5 0
BITMAP
00000080040000
000001C00E0000
000003E01F0000
000003F03F8000
000007F03F8000
00000FE07F0000
00001FC0FE0000
00001FC1FC0000
00003F81FC0000
00007F03F80000
0000FE07F00000
0000FC07E00000
0000F807C00000
00007003800000
00000000000000
00000000000000
00000000000000
00001FFE000000
0000FFFFE00000
0007FFFFF80000
000FFFFFFE0000
003FFFFFFF0000
007FFFFFFFC000
00FFFFBFFFE000
01FFE001FFF000
03FF80003FF800
07FE00001FFC00
0FFC00000FFC00
0FF8000007FE00
1FF0000003FE00
1FE0000001FF00
3FE0000000FF00
3FC0000000FF80
7FC00000007F80
7F800000007FC0
7F800000003FC0
FF800000003FC0
FF000000003FC0
FF000000003FC0
FF000000001FE0
FF000000001FE0
FF000000001FE0
FF000000001FE0
FE000000001FE0
FE000000001FE0
FE000000001FE0
FE000000001FE0
FF000000001FE0
FF000000001FE0
FF000000001FE0
FF000000001FE0
FF000000003FE0
FF000000003FC0
FF800000003FC0
7F800000003FC0
7F800000007FC0
7FC00000007F80
3FC0000000FF80
3FE0000000FF00
1FE0000001FF00
1FF0000003FE00
0FF8000003FE00
0FFC00000FFC00
07FE00001FFC00
03FF80003FF800
01FFE000FFF000
00FFFFBFFFE000
007FFFFFFFC000
003FFFFFFF8000
001FFFFFFE0000
0007FFFFF80000
0000FFFFE00000
00001FFF000000
ENDCHAR
STARTCHAR 0151
ENCODING 337
SWIDTH 578 0
DWIDTH 45 0
BBX 38 61 4 -1
BITMAP
0000600300
0000700380
0000F807C0
0001FC0FE0
0001FC1FE0
0003F81FC0
0007F03F80
000FE07F00
000FE07E00
001FC0FC00
003F81FC00
003F03F800
003E03F000
001C00E000
0008004000
0000000000
0000000000
0000000000
0000000000
0007FF8000
003FFFF000
007FFFF800
01FFFFFE00
03FFFFFF00
07FFFFFF80
0FFE01FFC0
0FF8007FC0
1FF0003FE0
3FE0001FE0
3FC0000FF0
3FC0000FF0
7F800007F8
7F800007F8
7F000003F8
FF000003F8
FF000003FC
FF000003FC
FF000003FC
FF000003FC
FF000003FC
FF000003FC
FF000003FC
FF000003FC
FF000003FC
FF000003FC
7F000003F8
7F000007F8
7F800007F8
7F800007F8
3FC0000FF0
3FC0001FF0
1FE0001FE0
1FF0007FE0
0FFC00FFC0
07FFCFFF80
03FFFFFF00
01FFFFFE00
00FFFFFC00
007FFFF800
001FFFE000
0003FE0000
ENDCHAR
STARTCHAR 0152
ENCODING 338
SWIDTH 990 0
DWIDTH 77 0
BBX 69 55 5 -1
BITMAP
00000FFFFFFFFFFFE0
00007FFFFFFFFFFFE0
0003FFFFFFFFFFFFE0
000FFFFFFFFFFFFFE0
003FFFFFFFFFFFFFE0
007FFFFFFFFFFFFFE0
00FFFF000FE0000000
01FFF0000FE0000000
03FFC0000FE0000000
07FF00000FE0000000
0FFE00000FE0000000
0FF800000FE0000000
1FF000000FE0000000
3FF000000FE0000000
3FE000000FE0000000
3FC000000FE0000000
7FC000000FE0000000
7F8000000FE0000000
7F8000000FE0000000
FF8000000FE0000000
FF0000000FE0000000
FF0000000FE0000000
FF0000000FE0000000
FF0000000FFFFFFF80
FF0000000FFFFFFF80
FF0000000FFFFFFF80
FF0000000FFFFFFF80
FF0000000FFFFFFF80
FF0000000FFFFFFF80
FF0000000FE0000000
FF0000000FE0000000
FF0000000FE0000000
FF0000000FE0000000
FF0000000FE0000000
FF8000000FE0000000
FF8000000FE0000000
7F8000000FE0000000
7FC000000FE0000000
7FC000000FE0000000
3FE000000FE0000000
3FF000000FE0000000
1FF000000FE0000000
1FF800000FE0000000
0FFC00000FE0000000
07FF00000FE0000000
03FFC0000FE0000000
01FFF0000FE0000000
00FFFE000FE0000000
007FFFFFFFFFFFFFF8
003FFFFFFFFFFFFFF8
000FFFFFFFFFFFFFF8
0003FFFFFFFFFFFFF8
0000FFFFFFFFFFFFF8
00000FFFFFFFFFFFF8
0000002C0000000000
ENDCHAR
STARTCHAR 0153
ENCODING 339
SWIDTH 938 0
DWIDTH 73 0
BBX 65 42 4 -1
BITMAP
0007FF80001FFE0000
003FFFE0007FFF8000
007FFFF801FFFFE000
01FFFFFC03FFFFF000
03FFFFFE07FFFFF800
07FFFFFF0FFFFFFC00
0FFE01FF9FF00FFC00
0FF8007FFFE003FE00
1FF0003FFFC001FE00
3FE0001FFF8000FF00
3FC0000FFF00007F00
3FC0000FFE00007F00
7F800007FE00007F80
7F800007FE00003F80
7F000003FC00003F80
FF000003FC00003F80
FF000003FC00003F80
FF000003FFFFFFFF80
FF000003FFFFFFFF80
FF000003FFFFFFFF80
FF000003FFFFFFFF80
FF000003FFFFFFFF80
FF000003FFFFFFFF80
FF000003FC00000000
FF000003FC00000000
FF000003FC00000000
7F000003FC00000000
7F000007FE00000000
7F800007FE00000000
7F800007FE00000000
3FC0000FFF00000000
3FC0001FFF80000000
1FE0001FFFC0000000
1FF0007FFFE0000000
0FFC00FF9FF8001C00
07FFCFFF9FFFC7FC00
03FFFFFF0FFFFFFC00
01FFFFFE07FFFFFC00
00FFFFFC03FFFFFC00
007FFFF000FFFFFE00
001FFFC0003FFFF000
0003FF000003FF0000
ENDCHAR
STARTCHAR 0154
ENCODING 340
SWIDTH 617 0
DWIDTH 48 0
BBX 40 72 7 1
BITMAP
00000C0000
00001E0000
00003F0000
00007F8000
0000FF8000
0000FF0000
0001FE0000
0003FC0000
0007F80000
000FF00000
001FE00000
001FC00000
000F800000
0007000000
0002000000
0000000000
0000000000
0000000000
7FFFFE0000
FFFFFFE000
FFFFFFF800
FFFFFFFE00
FFFFFFFF00
FFFFFFFF80
FE001FFFC0
FE0001FFE0
FE00007FE0
FE00001FF0
FE00000FF0
FE00000FF8
FE000007F8
FE000007F8
FE000007F8
FE000007F8
FE000007F8
FE000007F8
FE000007F8
FE000007F8
FE000007F8
FE00000FF8
FE00000FF0
FE00001FF0
FE00007FE0
FE0001FFE0
FE00FFFFC0
FFFFFFFF80
FFFFFFFF00
FFFFFFFC00
FFFFFFF000
FFFFFFC000
FFFFFFE000
FE001FF000
FE000FF000
FE000FF800
FE0007FC00
FE0003FE00
FE0001FE00
FE0001FF00
FE0000FF80
FE00007F80
FE00007FC0
FE00003FE0
FE00001FE0
FE00001FF0
FE00000FF8
FE000007F8
FE000007FC
FE000003FC
FE000003FE
FE000001FE
FE000001FF
FE000000FF
ENDCHAR
STARTCHAR 0155
ENCODING 341
SWIDTH 385 0
DWIDTH 30 0
BBX 23 60 6 0
BITMAP
0000C0
0001E0
0003F0
0007F8
0007F8
000FF0
001FE0
003FC0
007F80
00FF00
00FE00
01FC00
00F800
007000
002000
000000
000000
000000
000000
01FFFC
1FFFFE
FFFFFE
FFFFFE
FFFFFE
FFFFFC
FFC01C
FE0000
FE0000
FE0000
FE0000
FE0000
FE0000
FE0000
FE0000
FE0000
FE0000
FE0000
FE0000
FE0000
FE0000
FE0000
FE0000
FE0000
FE0000
FE0000
FE0000
FE0000
FE0000
FE0000
FE0000
FE0000
FE0000
FE0000
FE0000
FE0000
FE0000
FE0000
FE0000
FE0000
FE0000
ENDCHAR
STARTCHAR 0156
ENCODING 342
SWIDTH 617 0
DWIDTH 48 0
BBX 40 69 7 -15
BITMAP
7FFFFE0000
FFFFFFE000
FFFFFFF800
FFFFFFFE00
FFFFFFFF00
FFFFFFFF80
FE001FFFC0
FE0001FFE0
FE00007FE0
FE00001FF0
FE00000FF0
FE00000FF8
FE000007F8
FE000007F8
FE000007F8
FE000007F8
FE000007F8
FE000007F8
FE000007F8
FE000007F8
FE000007F8
FE00000FF8
FE00000FF0
FE00001FF0
FE00007FE0
FE0001FFE0
FE00FFFFC0
FFFFFFFF80
FFFFFFFF00
FFFFFFFC00
FFFFFFF000
FFFFFFC000
FFFFFFE000
FE001FF000
FE000FF000
FE000FF800
FE0007FC00
FE0003FE00
FE0001FE00
FE0001FF00
FE0000FF80
FE00007F80
FE00007FC0
FE00003FE0
FE00001FE0
FE00001FF0
FE00000FF8
FE000007F8
FE000007FC
FE000003FC
FE000003FE
FE000001FE
FE000001FF
FE000000FF
0000000000
0000000000
0000000000
0000000000
0001FC0000
0001FC0000
0001FC0000
0001FC0000
0003FC0000
0007FC0000
003FF80000
003FF80000
003FF00000
003FC00000
001E000000
ENDCHAR
STARTCHAR 0157
ENCODING 343
SWIDTH 385 0
DWIDTH 30 0
BBX 28 56 1 -15
BITMAP
000FFFE0
00FFFFF0
07FFFFF0
07FFFFF0
07FFFFF0
07FFFFE0
07FE00E0
07F00000
07F00000
07F00000
07F00000
07F00000
07F00000
07F00000
07F00000
07F00000
07F00000
07F00000
07F00000
07F00000
07F00000
07F00000
07F00000
07F00000
07F00000
07F00000
07F00000
07F00000
07F00000
07F00000
07F00000
07F00000
07F00000
07F00000
07F00000
07F00000
07F00000
07F00000
07F00000
07F00000
07F00000
00000000
00000000
00000000
00000000
07F00000
07F00000
07F00000
07F00000
07F00000
0FF00000
FFE00000
FFE00000
FFC00000
FF000000
78000000
ENDCHAR
STARTCHAR 0158
ENCODING 344
SWIDTH 617 0
DWIDTH 48 0
BBX 40 72 7 0
BITMAP
0080010000
01C0078000
03E00FC000
03F01FC000
01FC3F8000
00FE7F0000
00FFFE0000
007FFC0000
003FF80000
001FF00000
000FE00000
0007E00000
0003C00000
0001800000
0000000000
0000000000
0000000000
0000000000
7FFFFE0000
FFFFFFE000
FFFFFFF800
FFFFFFFE00
FFFFFFFF00
FFFFFFFF80
FE001FFFC0
FE0001FFE0
FE00007FE0
FE00001FF0
FE00000FF0
FE00000FF8
FE000007F8
FE000007F8
FE000007F8
FE000007F8
FE000007F8
FE000007F8
FE000007F8
FE000007F8
FE000007F8
FE00000FF8
FE00000FF0
FE00001FF0
FE00007FE0
FE0001FFE0
FE00FFFFC0
FFFFFFFF80
FFFFFFFF00
FFFFFFFC00
FFFFFFF000
FFFFFFC000
FFFFFFE000
FE001FF000
FE000FF000
FE000FF800
FE0007FC00
FE0003FE00
FE0001FE00
FE0001FF00
FE0000FF80
FE00007F80
FE00007FC0
FE00003FE0
FE00001FE0
FE00001FF0
FE00000FF8
FE000007F8
FE000007FC
FE000003FC
FE000003FE
FE000001FE
FE000001FF
FE000000FF
ENDCHAR
STARTCHAR 0159
ENCODING 345
SWIDTH 385 0
DWIDTH 30 0
BBX 23 60 6 0
BITMAP
080010
1C0038
3E00FC
7F01FC
3F83F8
1FC7F0
0FFFE0
07FFC0
03FF80
01FF80
00FF00
007E00
003C00
001800
000000
000000
000000
000000
000000
01FFFC
1FFFFE
FFFFFE
FFFFFE
FFFFFE
FFFFFC
FFC01C
FE0000
FE0000
FE0000
FE0000
FE0000
FE0000
FE0000
FE0000
FE0000
FE0000
FE0000
FE0000
FE0000
FE0000
FE0000
FE0000
FE0000
FE0000
FE0000
FE0000
FE0000
FE0000
FE0000
FE0000
FE0000
FE0000
FE0000
FE0000
FE0000
FE0000
FE0000
FE0000
FE0000
FE0000
ENDCHAR
STARTCHAR 015A
ENCODING 346
SWIDTH 527 0
DWIDTH 41 0
BBX 36 73 3 0
BITMAP
0000030000
0000038000
000007C000
00000FE000
00001FE000
00003FC000
00007F8000
00007F0000
0000FE0000
0001FC0000
0003F80000
0007F00000
0003E00000
0001C00000
0000000000
0000000000
0000000000
0007FFC000
003FFFFC00
00FFFFFF00
03FFFFFFC0
07FFFFFF80
0FFFFFFF80
1FFFC7FF00
1FF8001F00
3FE0000300
3FC0000000
7F80000000
7F80000000
7F80000000
7F80000000
7F80000000
7F80000000
7F80000000
7F80000000
7FC0000000
7FE0000000
3FF0000000
3FFC000000
1FFF000000
0FFFC00000
07FFF80000
03FFFE0000
01FFFF8000
007FFFE000
001FFFF800
0007FFFC00
0000FFFF00
00001FFF80
000007FF80
000001FFC0
000000FFE0
0000003FE0
0000003FE0
0000001FF0
0000000FF0
0000000FF0
0000000FF0
0000000FF0
0000000FF0
0000000FF0
0000000FF0
0000001FE0
2000003FE0
7800007FE0
7F0001FFC0
7FFC1FFFC0
FFFFFFFF80
FFFFFFFF00
FFFFFFFE00
3FFFFFF800
07FFFFE000
007FFE0000
ENDCHAR
STARTCHAR 015B
ENCODING 347
SWIDTH 437 0
DWIDTH 34 0
BBX 29 61 3 -1
BITMAP
00001000
00003800
00007C00
0000FE00
0001FF00
0001FE00
0003FC00
0007F800
000FF000
001FE000
003FC000
003F8000
003F0000
000E0000
00040000
00000000
00000000
00000000
00000000
007FFF00
01FFFFC0
07FFFFC0
0FFFFFC0
1FFFFFC0
3FFFFFC0
3FE00380
7F800000
7F000000
7F000000
7F000000
7F000000
7F000000
7F800000
7FC00000
7FE00000
3FF80000
1FFF0000
0FFFC000
07FFF800
03FFFE00
00FFFF00
001FFFC0
0007FFC0
0001FFE0
00007FF0
00001FF0
00000FF0
000007F8
000007F8
000007F8
000007F8
000007F8
400007F0
70001FF0
7F00FFF0
7FFFFFE0
7FFFFFC0
FFFFFF80
FFFFFF00
3FFFFC00
03FFC000
ENDCHAR
STARTCHAR 015C
ENCODING 348
SWIDTH 527 0
DWIDTH 41 0
BBX 36 73 3 -1
BITMAP
0000200000
0000700000
0000F80000
0001FC0000
0003FE0000
0007FF0000
000FFF8000
001FFFC000
003FDFE000
007F8FE000
007E07F000
00FC01F800
007800F000
0030006000
0000000000
0000000000
0000000000
0007FFC000
003FFFFC00
00FFFFFF00
03FFFFFFC0
07FFFFFF80
0FFFFFFF80
1FFFC7FF00
1FF8001F00
3FE0000300
3FC0000000
7F80000000
7F80000000
7F80000000
7F80000000
7F80000000
7F80000000
7F80000000
7F80000000
7FC0000000
7FE0000000
3FF0000000
3FFC000000
1FFF000000
0FFFC00000
07FFF80000
03FFFE0000
01FFFF8000
007FFFE000
001FFFF800
0007FFFC00
0000FFFF00
00001FFF80
000007FF80
000001FFC0
000000FFE0
0000003FE0
0000003FE0
0000001FF0
0000000FF0
0000000FF0
0000000FF0
0000000FF0
0000000FF0
0000000FF0
0000000FF0
0000001FE0
2000003FE0
7800007FE0
7F0001FFC0
7FFC1FFFC0
FFFFFFFF80
FFFFFFFF00
FFFFFFFE00
3FFFFFF800
07FFFFE000
007FFE0000
ENDCHAR
STARTCHAR 015D
ENCODING 349
SWIDTH 437 0
DWIDTH 34 0
BBX 29 61 3 -1
BITMAP
00020000
00070000
000F8000
001FC000
001FE000
003FF000
007FF800
00FFFC00
01FDFE00
03F8FF00
07F03F00
0FE01F80
07C00F00
03000600
00000000
00000000
00000000
00000000
00000000
007FFF00
01FFFFC0
07FFFFC0
0FFFFFC0
1FFFFFC0
3FFFFFC0
3FE00380
7F800000
7F000000
7F000000
7F000000
7F000000
7F000000
7F800000
7FC00000
7FE00000
3FF80000
1FFF0000
0FFFC000
07FFF800
03FFFE00
00FFFF00
001FFFC0
0007FFC0
0001FFE0
00007FF0
00001FF0
00000FF0
000007F8
000007F8
000007F8
000007F8
000007F8
400007F0
70001FF0
7F00FFF0
7FFFFFE0
7FFFFFC0
FFFFFF80
FFFFFF00
3FFFFC00
03FFC000
ENDCHAR
STARTCHAR 015E
ENCODING 350
SWIDTH 527 0
DWIDTH 41 0
BBX 36 70 3 -15
BITMAP
0007FFC000
003FFFFC00
00FFFFFF00
03FFFFFFC0
07FFFFFF80
0FFFFFFF80
1FFFC7FF00
1FF8001F00
3FE0000300
3FC0000000
7F80000000
7F80000000
7F80000000
7F80000000
7F80000000
7F80000000
7F80000000
7F80000000
7FC0000000
7FE0000000
3FF0000000
3FFC000000
1FFF000000
0FFFC00000
07FFF80000
03FFFE0000
01FFFF8000
007FFFE000
001FFFF800
0007FFFC00
0000FFFF00
00001FFF80
000007FF80
000001FFC0
000000FFE0
0000003FE0
0000003FE0
0000001FF0
0000000FF0
0000000FF0
0000000FF0
0000000FF0
0000000FF0
0000000FF0
0000000FF0
0000001FE0
2000003FE0
7800007FE0
7F0001FFC0
7FFC1FFFC0
FFFFFFFF80
FFFFFFFF00
FFFFFFFE00
3FFFFFF800
07FFFFE000
00FFFE0000
0001F00000
0003E00000
0003F00000
0007FC0000
0007FC0000
0000FE0000
00007E0000
00007E0000
0020FE0000
007FFE0000
007FFE0000
007FFC0000
007FF80000
0007C00000
ENDCHAR
STARTCHAR 015F
ENCODING 351
SWIDTH 437 0
DWIDTH 34 0
BBX 29 56 3 -15
BITMAP
007FFF00
01FFFFC0
07FFFFC0
0FFFFFC0
1FFFFFC0
3FFFFFC0
3FE00380
7F800000
7F000000
7F000000
7F000000
7F000000
7F000000
7F800000
7FC00000
7FE00000
3FF80000
1FFF0000
0FFFC000
07FFF800
03FFFE00
00FFFF00
001FFF80
0007FFC0
0001FFE0
00007FF0
00001FF0
00000FF0
000007F8
000007F8
000007F8
000007F8
000007F8
400007F0
70001FF0
7F00FFF0
7FFFFFE0
7FFFFFC0
FFFFFF80
FFFFFF00
3FFFFC00
03FFC000
001F0000
001F0000
003F8000
003FC000
003FE000
000FF000
0007F000
0007F000
0207F000
03FFF000
03FFE000
03FFC000
03FF8000
007C0000
ENDCHAR
ENDFONT
